<svg width="222" height="170" viewBox="0 0 222 170" fill="none" xmlns="http://www.w3.org/2000/svg">
<g filter="url(#filter0_d_501_5)">
<circle cx="111" cy="82" r="75" fill="white"/>
<path d="M90.3066 83.65C90.3066 79.1 92.5566 76.85 95.3066 76.85C98.4566 76.85 101.007 79.35 101.657 86.05C99.9566 88.9 97.6066 90.05 95.5566 90.05C92.3566 90.05 90.3066 88 90.3066 83.65ZM94.3066 109.7C101.657 109.7 108.507 103.65 108.507 89.65C108.507 76.8 102.207 71.3 95.2066 71.3C88.8566 71.3 83.5566 76.05 83.5566 83.65C83.5566 91.5 88.0066 95.3 94.1566 95.3C96.6566 95.3 99.8066 93.8 101.757 91.3C101.407 100.55 98.0066 103.7 93.8566 103.7C91.6566 103.7 89.4066 102.55 88.0566 101.05L84.1566 105.5C86.3566 107.75 89.7066 109.7 94.3066 109.7ZM125.75 109.7C133.3 109.7 138.25 103.1 138.25 90.35C138.25 77.6 133.3 71.3 125.75 71.3C118.2 71.3 113.2 77.55 113.2 90.35C113.2 103.1 118.2 109.7 125.75 109.7ZM125.75 103.95C122.55 103.95 120.15 100.75 120.15 90.35C120.15 80 122.55 77 125.75 77C128.95 77 131.3 80 131.3 90.35C131.3 100.75 128.95 103.95 125.75 103.95Z" fill="black"/>
<path d="M85.4831 40.06C83.4831 40.48 81.6631 40.62 78.3831 40.64V36.48H83.9631V34.38H75.7631V42.76H77.3031C81.3831 42.76 83.4831 42.64 85.7431 42.16L85.4831 40.06ZM86.9431 49.38H80.1431V47.76H86.9431V49.38ZM86.9431 45.74H80.1431V44.06H77.5431V51.48H89.5631V44.06H86.9431V45.74ZM92.0031 37.26H89.5631V33.28H86.9231V43.16H89.5631V39.42H92.0031V37.26ZM106.222 38.48V40.32H102.942V38.48H106.222ZM100.362 41.94H96.8616V39.34H100.362V41.94ZM102.942 42.42H106.222V46.9H108.862V33.3H106.222V36.36H102.942V34.52H100.362V37.32H96.8616V34.52H94.2416V44.04H102.942V42.42ZM99.3416 49.3V45.58H96.7016V51.4H109.262V49.3H99.3416ZM119 34.72H116.36V37.4C116.36 40.98 114.84 44.54 111.62 45.92L113.2 48.1C115.4 47.06 116.9 45.08 117.72 42.62C118.54 44.88 119.96 46.7 122.08 47.66L123.58 45.52C120.46 44.18 119 40.82 119 37.4V34.72ZM124.48 33.28V51.76H127.12V33.28H124.48ZM130.918 34.68V36.78H136.918C136.498 39.36 134.218 41.5 130.118 42.62L131.218 44.72C136.698 43.14 139.778 39.68 139.778 34.68H130.918ZM135.498 45.16H132.858V51.4H145.378V49.3H135.498V45.16ZM144.738 38.44V33.3H142.098V46.48H144.738V40.6H147.198V38.44H144.738Z" fill="black"/>
</g>
<defs>
<filter id="filter0_d_501_5" x="29" y="0" width="170" height="170" filterUnits="userSpaceOnUse" color-interpolation-filters="sRGB">
<feFlood flood-opacity="0" result="BackgroundImageFix"/>
<feColorMatrix in="SourceAlpha" type="matrix" values="0 0 0 0 0 0 0 0 0 0 0 0 0 0 0 0 0 0 127 0" result="hardAlpha"/>
<feOffset dx="3" dy="3"/>
<feGaussianBlur stdDeviation="5"/>
<feComposite in2="hardAlpha" operator="out"/>
<feColorMatrix type="matrix" values="0 0 0 0 0 0 0 0 0 0 0 0 0 0 0 0 0 0 0.3 0"/>
<feBlend mode="normal" in2="BackgroundImageFix" result="effect1_dropShadow_501_5"/>
<feBlend mode="normal" in="SourceGraphic" in2="effect1_dropShadow_501_5" result="shape"/>
</filter>
</defs>
</svg>
