<svg width="368" height="40" viewBox="0 0 368 40" fill="none" xmlns="http://www.w3.org/2000/svg">
<line x1="29" y1="20.5" x2="69" y2="20.5" stroke="#8FBCFF" stroke-width="3"/>
<ellipse cx="83" cy="20.4734" rx="15" ry="14.5266" fill="#8FBCFF"/>
<path d="M78.3331 28H87.5531V26.42H83.4931C82.7531 26.42 81.8531 26.5 81.0931 26.56C84.5331 23.3 86.8331 20.32 86.8331 17.4C86.8331 14.78 85.1931 13.06 82.5731 13.06C80.7131 13.06 79.4531 13.92 78.2531 15.22L79.3131 16.26C80.1131 15.3 81.1531 14.56 82.3531 14.56C84.1731 14.56 85.0531 15.78 85.0531 17.46C85.0531 19.98 82.9331 22.9 78.3331 26.92V28Z" fill="white"/>
<line x1="97" y1="20.5" x2="137" y2="20.5" stroke="#8FBCFF" stroke-width="3"/>
<ellipse cx="156" cy="20.6313" rx="20" ry="19.3688" fill="#1E84FD"/>
<path d="M155.6 32.39C159.5 32.39 162.65 30.05 162.65 26.12C162.65 23.12 160.58 21.14 158 20.54V20.42C160.31 19.55 161.9 17.78 161.9 15.11C161.9 11.63 159.2 9.59 155.51 9.59C152.96 9.59 151.01 10.7 149.36 12.23L150.83 13.97C152.06 12.71 153.62 11.84 155.39 11.84C157.67 11.84 159.11 13.22 159.11 15.32C159.11 17.69 157.55 19.52 153.02 19.52V21.62C158.09 21.62 159.86 23.39 159.86 26C159.86 28.55 158 30.11 155.39 30.11C152.9 30.11 151.22 28.94 149.93 27.59L148.55 29.39C149.99 30.95 152.15 32.39 155.6 32.39Z" fill="white"/>
<ellipse cx="353" cy="19.4734" rx="15" ry="14.5266" fill="#8FBCFF"/>
<path d="M349.753 21.5L353.093 16.5C353.513 15.78 353.913 15.06 354.273 14.34H354.353C354.313 15.1 354.253 16.28 354.253 17V21.5H349.753ZM354.253 27H355.973V22.96H357.913V21.5H355.973V12.32H353.953L347.853 21.76V22.96H354.253V27Z" fill="white"/>
<circle cx="15" cy="20.9775" r="15" fill="#8FBCFF"/>
<path d="M11.2131 29H19.2531V27.48H16.3131V14.32H14.9131C14.1131 14.8 13.1731 15.14 11.8731 15.38V16.54H14.4731V27.48H11.2131V29Z" fill="white"/>
<path d="M203.766 19.784H208.11V17.336H203.766V13.904H208.95V11.384H200.766V26.192H202.278C205.446 26.192 207.558 26.144 210.054 25.736L209.79 23.216C207.798 23.528 206.07 23.624 203.766 23.648V19.784ZM211.518 17H209.118V19.568H211.518V30.08H214.47V9.368H211.518V17ZM216.102 8.936V31.04H219.102V8.936H216.102ZM241.516 19.352C236.524 18.512 233.788 15.08 233.788 11.84V10.256H230.404V11.84C230.404 15.008 227.644 18.512 222.676 19.352L224.02 22.016C227.86 21.272 230.668 19.112 232.084 16.304C233.5 19.112 236.332 21.248 240.172 22.016L241.516 19.352ZM222.196 25.808V28.376H242.212V25.808H222.196ZM262.154 20.36H249.842V17.888H261.482V15.44H249.842V13.112H261.986V10.568H246.626V22.856H262.154V20.36ZM244.274 25.952V28.52H264.29V25.952H244.274ZM290.15 8.96H286.958V24.944H290.15V8.96ZM285.566 19.784C281.99 18.608 280.382 15.896 280.382 13.304V13.04H284.75V10.544H272.726V13.04H277.166V13.304C277.166 16.064 275.558 18.968 271.886 20.12L273.494 22.592C276.062 21.752 277.838 20.048 278.822 17.888C279.83 19.856 281.51 21.44 283.958 22.208L285.566 19.784ZM278.606 28.16V23.504H275.438V30.68H290.702V28.16H278.606ZM308.076 16.976H309.708V22.784H312.708V8.96H309.708V14.408H308.076V9.368H305.124V22.088H308.076V16.976ZM304.5 11.216H300.684V9.2H297.564V11.216H293.748V13.664H304.5V11.216ZM297.204 18.224C297.204 17.192 297.996 16.64 299.172 16.64C300.348 16.64 301.116 17.192 301.116 18.224C301.116 19.256 300.348 19.832 299.172 19.832C297.996 19.832 297.204 19.256 297.204 18.224ZM303.924 18.224C303.924 15.944 301.956 14.384 299.172 14.384C296.364 14.384 294.396 15.944 294.396 18.224C294.396 20.504 296.364 22.088 299.172 22.088C301.956 22.088 303.924 20.504 303.924 18.224ZM305.22 28.712C302.268 28.712 300.78 28.208 300.78 27.056C300.78 25.904 302.268 25.4 305.22 25.4C308.172 25.4 309.66 25.904 309.66 27.056C309.66 28.208 308.172 28.712 305.22 28.712ZM305.22 23.024C300.468 23.024 297.612 24.488 297.612 27.056C297.612 29.624 300.468 31.064 305.22 31.064C309.972 31.064 312.828 29.624 312.828 27.056C312.828 24.488 309.972 23.024 305.22 23.024Z" fill="#1E84FD"/>
</svg>
