<svg width="357" height="40" viewBox="0 0 357 40" fill="none" xmlns="http://www.w3.org/2000/svg">
<path d="M276.469 16.12V18.016H271.573V20.392H276.469V22.048H279.637V10.96H276.469V13.744H272.413C272.509 13.12 272.557 12.472 272.557 11.8H262.693V14.32H269.077C268.693 16.912 266.437 19.024 261.421 20.008L262.477 22.552C267.325 21.496 270.445 19.408 271.789 16.12H276.469ZM268.261 30.352V28.96H279.637V22.864H265.069V25.36H276.469V26.608H265.093V32.848H280.093V30.352H268.261ZM294.947 23.416C295.547 19.768 295.547 17.08 295.547 14.944V13.144H284.171V15.664H292.427C292.427 17.632 292.355 20.008 291.851 23.152L294.947 23.416ZM290.123 19.48H287.003V26.008C285.611 26.032 284.267 26.032 283.043 26.032L283.331 28.624C287.171 28.6 292.115 28.504 296.603 27.736L296.435 25.456C294.419 25.696 292.259 25.84 290.123 25.912V19.48ZM303.587 19.84H300.611V10.936H297.443V33.04H300.611V22.48H303.587V19.84ZM325.055 18.28H316.439V16.288H325.055V18.28ZM328.199 11.656H325.055V13.912H316.439V11.656H313.295V20.752H328.199V11.656ZM316.223 26.608H313.055V32.68H328.559V30.16H316.223V26.608ZM310.727 22.288V24.784H319.439V28.264H322.607V24.784H330.767V22.288H310.727ZM346.029 20.968C342.549 19.816 341.085 17.128 341.085 14.368V12.088H337.869V14.176C337.869 17.176 336.357 20.104 332.685 21.304L334.341 23.8C336.837 22.936 338.541 21.232 339.501 19.096C340.437 21.04 342.021 22.6 344.373 23.416L346.029 20.968ZM336.237 27.616H348.141V33.088H351.309V25.12H336.237V27.616ZM348.141 10.96V15.088H344.109V17.656H348.141V24.112H351.309V10.96H348.141Z" fill="#1E84FD"/>
<ellipse cx="83" cy="21.4734" rx="15" ry="14.5266" fill="#8FBCFF"/>
<path d="M78.3331 29H87.5531V27.42H83.4931C82.7531 27.42 81.8531 27.5 81.0931 27.56C84.5331 24.3 86.8331 21.32 86.8331 18.4C86.8331 15.78 85.1931 14.06 82.5731 14.06C80.7131 14.06 79.4531 14.92 78.2531 16.22L79.3131 17.26C80.1131 16.3 81.1531 15.56 82.3531 15.56C84.1731 15.56 85.0531 16.78 85.0531 18.46C85.0531 20.98 82.9331 23.9 78.3331 27.92V29Z" fill="white"/>
<line x1="97" y1="20.5" x2="137" y2="20.5" stroke="#8FBCFF" stroke-width="3"/>
<line x1="29" y1="21.5" x2="69" y2="21.5" stroke="#8FBCFF" stroke-width="3"/>
<ellipse cx="151" cy="21.4734" rx="15" ry="14.5266" fill="#8FBCFF"/>
<path d="M150.733 29.26C153.333 29.26 155.433 27.7 155.433 25.08C155.433 23.08 154.053 21.76 152.333 21.36V21.28C153.873 20.7 154.933 19.52 154.933 17.74C154.933 15.42 153.133 14.06 150.673 14.06C148.973 14.06 147.673 14.8 146.573 15.82L147.553 16.98C148.373 16.14 149.413 15.56 150.593 15.56C152.113 15.56 153.073 16.48 153.073 17.88C153.073 19.46 152.033 20.68 149.013 20.68V22.08C152.393 22.08 153.573 23.26 153.573 25C153.573 26.7 152.333 27.74 150.593 27.74C148.933 27.74 147.813 26.96 146.953 26.06L146.033 27.26C146.993 28.3 148.433 29.26 150.733 29.26Z" fill="white"/>
<line x1="165" y1="20.5" x2="205" y2="20.5" stroke="#8FBCFF" stroke-width="3"/>
<ellipse cx="225" cy="20.631" rx="20" ry="19.3688" fill="#1E84FD"/>
<path d="M220.13 23.75L225.14 16.25C225.77 15.17 226.37 14.09 226.91 13.01H227.03C226.97 14.15 226.88 15.92 226.88 17V23.75H220.13ZM226.88 32H229.46V25.94H232.37V23.75H229.46V9.98H226.43L217.28 24.14V25.94H226.88V32Z" fill="white"/>
<ellipse cx="15" cy="21.4734" rx="15" ry="14.5266" fill="#8FBCFF"/>
<path d="M11.2131 29H19.2531V27.48H16.3131V14.32H14.9131C14.1131 14.8 13.1731 15.14 11.8731 15.38V16.54H14.4731V27.48H11.2131V29Z" fill="white"/>
</svg>
