<svg width="382" height="42" viewBox="0 0 382 42" fill="none" xmlns="http://www.w3.org/2000/svg">
<ellipse cx="231" cy="21.4734" rx="15" ry="14.5266" fill="#8FBCFF"/>
<path d="M226.333 29H235.553V27.42H231.493C230.753 27.42 229.853 27.5 229.093 27.56C232.533 24.3 234.833 21.32 234.833 18.4C234.833 15.78 233.193 14.06 230.573 14.06C228.713 14.06 227.453 14.92 226.253 16.22L227.313 17.26C228.113 16.3 229.153 15.56 230.353 15.56C232.173 15.56 233.053 16.78 233.053 18.46C233.053 20.98 230.933 23.9 226.333 27.92V29Z" fill="white"/>
<line x1="245" y1="20.5" x2="285" y2="20.5" stroke="#8FBCFF" stroke-width="3"/>
<ellipse cx="299" cy="21.4734" rx="15" ry="14.5266" fill="#8FBCFF"/>
<path d="M298.733 29.26C301.333 29.26 303.433 27.7 303.433 25.08C303.433 23.08 302.053 21.76 300.333 21.36V21.28C301.873 20.7 302.933 19.52 302.933 17.74C302.933 15.42 301.133 14.06 298.673 14.06C296.973 14.06 295.673 14.8 294.573 15.82L295.553 16.98C296.373 16.14 297.413 15.56 298.593 15.56C300.113 15.56 301.073 16.48 301.073 17.88C301.073 19.46 300.033 20.68 297.013 20.68V22.08C300.393 22.08 301.573 23.26 301.573 25C301.573 26.7 300.333 27.74 298.593 27.74C296.933 27.74 295.813 26.96 294.953 26.06L294.033 27.26C294.993 28.3 296.433 29.26 298.733 29.26Z" fill="white"/>
<line x1="313" y1="20.5" x2="353" y2="20.5" stroke="#8FBCFF" stroke-width="3"/>
<ellipse cx="367" cy="21.4734" rx="15" ry="14.5266" fill="#8FBCFF"/>
<path d="M363.753 23.5L367.093 18.5C367.513 17.78 367.913 17.06 368.273 16.34H368.353C368.313 17.1 368.253 18.28 368.253 19V23.5H363.753ZM368.253 29H369.973V24.96H371.913V23.5H369.973V14.32H367.953L361.853 23.76V24.96H368.253V29Z" fill="white"/>
<circle cx="20" cy="21.3035" r="20" fill="#1E84FD"/>
<path d="M14.3197 33H26.3797V30.72H21.9697V10.98H19.8697C18.6697 11.7 17.2597 12.21 15.3097 12.57V14.31H19.2097V30.72H14.3197V33Z" fill="white"/>
<path d="M65.5921 21.04H61.3921V15.208H65.5921V21.04ZM72.6721 16.96V19.192H68.6881V16.96H72.6721ZM68.6881 21.712H72.6721V27.064H75.8401V10.96H72.6721V14.44H68.6881V12.736H58.2721V23.536H68.6881V21.712ZM64.4161 30.16V25.552H61.2481V32.68H76.3201V30.16H64.4161ZM92.7583 20.56C89.4703 19.456 87.9343 16.936 87.7903 14.488H92.0623V11.968H80.1823V14.488H84.5023C84.3583 17.152 82.7503 19.816 79.3183 20.968L80.9263 23.464C83.4943 22.6 85.2223 20.848 86.2063 18.688C87.1423 20.656 88.7983 22.24 91.2223 23.032L92.7583 20.56ZM94.7743 30.28H86.3983V28.384H94.7743V30.28ZM94.7743 25.96H86.3983V23.944H83.2783V32.8H97.9183V23.944H94.7743V25.96ZM94.7503 10.96V15.904H91.4143V18.472H94.7503V23.056H97.9183V10.96H94.7503ZM119.794 12.76H115.114V10.864H111.946V12.76H107.242V15.016H119.794V12.76ZM111.13 19.024C111.13 18.16 112.042 17.704 113.53 17.704C115.018 17.704 115.906 18.16 115.906 19.024C115.906 19.864 115.018 20.32 113.53 20.32C112.042 20.32 111.13 19.864 111.13 19.024ZM120.346 22.936C118.666 23.176 116.914 23.32 115.114 23.44V22.312C117.442 21.952 118.906 20.752 118.906 19.024C118.906 16.888 116.77 15.592 113.53 15.592C110.266 15.592 108.13 16.888 108.13 19.024C108.13 20.752 109.594 21.952 111.946 22.312V23.584C110.05 23.656 108.25 23.656 106.69 23.656L107.026 26.08C110.794 26.056 116.002 25.96 120.586 25.096L120.346 22.936ZM112.93 27.136H109.762V32.68H125.218V30.16H112.93V27.136ZM124.474 18.184V10.936H121.306V28.216H124.474V20.776H127.258V18.184H124.474ZM144.344 16.984V19.024H139.472V21.568H144.344V23.68H147.512V10.96H144.344V14.464H140.384C140.48 13.816 140.528 13.144 140.528 12.448H130.4V14.992H137.072C136.664 17.992 134.24 20.368 129.2 21.712L130.424 24.208C135.296 22.84 138.392 20.464 139.76 16.984H144.344ZM140.216 30.496C137.48 30.496 135.872 29.8 135.872 28.456C135.872 27.112 137.48 26.416 140.216 26.416C142.928 26.416 144.536 27.112 144.536 28.456C144.536 29.8 142.928 30.496 140.216 30.496ZM140.216 23.968C135.704 23.968 132.752 25.696 132.752 28.456C132.752 31.216 135.704 32.944 140.216 32.944C144.704 32.944 147.656 31.216 147.656 28.456C147.656 25.696 144.704 23.968 140.216 23.968ZM169.868 20.896C166.484 19.768 164.972 17.152 164.876 14.608H169.172V12.088H157.292V14.608H161.636C161.564 17.344 159.98 20.128 156.428 21.28L158.036 23.8C160.604 22.936 162.332 21.208 163.316 19.024C164.276 20.992 165.908 22.576 168.332 23.368L169.868 20.896ZM163.436 27.112H171.932V30.328H163.436V27.112ZM160.316 32.8H175.028V24.64H160.316V32.8ZM171.86 10.96V16.072H168.524V18.64H171.86V23.728H175.028V10.96H171.86ZM179.922 12.232V14.752H186.642C186.138 17.68 183.474 20.08 178.722 21.376L179.97 23.824C186.402 22.048 190.002 18.064 190.002 12.232H179.922ZM185.682 26.704H193.986V30.328H185.682V26.704ZM182.562 32.8H197.106V24.208H182.562V32.8ZM193.938 10.984V16.192H190.122V18.76H193.938V23.296H197.106V10.984H193.938Z" fill="#1E84FD"/>
</svg>
