<svg width="368" height="40" viewBox="0 0 368 40" fill="none" xmlns="http://www.w3.org/2000/svg">
<line x1="29" y1="20.5" x2="69" y2="20.5" stroke="#8FBCFF" stroke-width="3"/>
<ellipse cx="88" cy="20.6313" rx="20" ry="19.3688" fill="#1E84FD"/>
<path d="M80.9997 32H94.8297V29.63H88.7397C87.6297 29.63 86.2797 29.75 85.1397 29.84C90.2997 24.95 93.7497 20.48 93.7497 16.1C93.7497 12.17 91.2897 9.59 87.3597 9.59C84.5697 9.59 82.6797 10.88 80.8797 12.83L82.4697 14.39C83.6697 12.95 85.2297 11.84 87.0297 11.84C89.7597 11.84 91.0797 13.67 91.0797 16.19C91.0797 19.97 87.8997 24.35 80.9997 30.38V32Z" fill="white"/>
<ellipse cx="285" cy="20.4734" rx="15" ry="14.5266" fill="#8FBCFF"/>
<path d="M284.733 28.26C287.333 28.26 289.433 26.7 289.433 24.08C289.433 22.08 288.053 20.76 286.333 20.36V20.28C287.873 19.7 288.933 18.52 288.933 16.74C288.933 14.42 287.133 13.06 284.673 13.06C282.973 13.06 281.673 13.8 280.573 14.82L281.553 15.98C282.373 15.14 283.413 14.56 284.593 14.56C286.113 14.56 287.073 15.48 287.073 16.88C287.073 18.46 286.033 19.68 283.013 19.68V21.08C286.393 21.08 287.573 22.26 287.573 24C287.573 25.7 286.333 26.74 284.593 26.74C282.933 26.74 281.813 25.96 280.953 25.06L280.033 26.26C280.993 27.3 282.433 28.26 284.733 28.26Z" fill="white"/>
<line x1="299" y1="21.5" x2="339" y2="21.5" stroke="#8FBCFF" stroke-width="3"/>
<ellipse cx="353" cy="20.4734" rx="15" ry="14.5266" fill="#8FBCFF"/>
<path d="M349.753 22.5L353.093 17.5C353.513 16.78 353.913 16.06 354.273 15.34H354.353C354.313 16.1 354.253 17.28 354.253 18V22.5H349.753ZM354.253 28H355.973V23.96H357.913V22.5H355.973V13.32H353.953L347.853 22.76V23.96H354.253V28Z" fill="white"/>
<circle cx="15" cy="20.9775" r="15" fill="#8FBCFF"/>
<path d="M11.2131 29H19.2531V27.48H16.3131V14.32H14.9131C14.1131 14.8 13.1731 15.14 11.8731 15.38V16.54H14.4731V27.48H11.2131V29Z" fill="white"/>
<path d="M135.766 20.784H140.11V18.336H135.766V14.904H140.95V12.384H132.766V27.192H134.278C137.446 27.192 139.558 27.144 142.054 26.736L141.79 24.216C139.798 24.528 138.07 24.624 135.766 24.648V20.784ZM143.518 18H141.118V20.568H143.518V31.08H146.47V10.368H143.518V18ZM148.102 9.936V32.04H151.102V9.936H148.102ZM173.516 20.352C168.524 19.512 165.788 16.08 165.788 12.84V11.256H162.404V12.84C162.404 16.008 159.644 19.512 154.676 20.352L156.02 23.016C159.86 22.272 162.668 20.112 164.084 17.304C165.5 20.112 168.332 22.248 172.172 23.016L173.516 20.352ZM154.196 26.808V29.376H174.212V26.808H154.196ZM194.154 21.36H181.842V18.888H193.482V16.44H181.842V14.112H193.986V11.568H178.626V23.856H194.154V21.36ZM176.274 26.952V29.52H196.29V26.952H176.274ZM207.054 16.992C207.054 15.192 208.302 14.112 209.958 14.112C211.59 14.112 212.862 15.192 212.862 16.992C212.862 18.792 211.59 19.872 209.958 19.872C208.302 19.872 207.054 18.792 207.054 16.992ZM215.934 16.992C215.934 13.728 213.318 11.376 209.958 11.376C206.574 11.376 203.958 13.728 203.958 16.992C203.958 20.232 206.574 22.608 209.958 22.608C213.318 22.608 215.934 20.232 215.934 16.992ZM210.102 24.384H206.934V31.68H221.982V29.16H210.102V24.384ZM221.19 16.296V9.96H218.022V26.04H221.19V18.888H224.118V16.296H221.19ZM229.9 12.408H226.732V26.688H228.268C230.476 26.688 233.02 26.568 235.9 26.04L235.636 23.376C233.524 23.76 231.628 23.904 229.9 23.952V12.408ZM241.78 9.936V18.456H239.788V10.344H236.836V31.008H239.788V21.024H241.78V32.04H244.804V9.936H241.78Z" fill="#1E84FD"/>
</svg>
