<svg width="616" height="384" viewBox="0 0 616 384" fill="none" xmlns="http://www.w3.org/2000/svg">
<path d="M599.2 0H16.8C7.52162 0 0 6.25173 0 13.9636V370.036C0 377.748 7.52162 384 16.8 384H599.2C608.478 384 616 377.748 616 370.036V13.9636C616 6.25173 608.478 0 599.2 0Z" fill="#F3F5F8"/>
<path d="M0 11.6364C0 5.20977 7.52161 0 16.8 0H599.2C608.479 0 616 5.20977 616 11.6364V46.5455H0V11.6364Z" fill="#E0E7EC"/>
<path d="M536.966 124H79.0345C72.9403 124 68 128.904 68 134.952V343.048C68 349.096 72.9403 354 79.0345 354H536.966C543.06 354 548 349.096 548 343.048V134.952C548 128.904 543.06 124 536.966 124Z" fill="#EAFFF6"/>
<circle cx="40" cy="23" r="7" fill="#F54B23"/>
<circle cx="68" cy="23" r="7" fill="#F7C02B"/>
<circle cx="96.0001" cy="23.2485" r="7" fill="#1EC103"/>
<rect x="68" y="68" width="480" height="32" rx="5" fill="#C6DDFF"/>
<path d="M204.169 87.716C202.849 87.716 202.009 86.516 202.009 84.524C202.009 82.616 202.849 81.476 204.169 81.476C205.489 81.476 206.329 82.616 206.329 84.524C206.329 86.516 205.489 87.716 204.169 87.716ZM207.037 91.412C207.685 91.412 208.225 91.292 208.537 91.148L208.213 89.84C207.961 89.924 207.625 89.984 207.241 89.984C206.437 89.984 205.633 89.708 205.225 89.036C206.989 88.58 208.141 86.948 208.141 84.524C208.141 81.644 206.521 79.952 204.169 79.952C201.817 79.952 200.197 81.632 200.197 84.524C200.197 87.056 201.457 88.736 203.353 89.096C203.965 90.44 205.225 91.412 207.037 91.412ZM209.767 89H215.107V87.572H213.439V80.348H212.131C211.567 80.696 210.955 80.924 210.067 81.092V82.184H211.675V87.572H209.767V89ZM217.794 89.168C218.43 89.168 218.898 88.664 218.898 88.016C218.898 87.356 218.43 86.864 217.794 86.864C217.17 86.864 216.702 87.356 216.702 88.016C216.702 88.664 217.17 89.168 217.794 89.168ZM223.491 80.108V81.392H227.103C226.815 83.84 225.447 85.592 222.879 86.912L223.767 88.124C227.439 86.264 228.699 83.42 228.699 80.108H223.491ZM233.187 83.192H231.639V78.968H230.055V90.008H231.639V84.5H233.187V83.192ZM240.614 83.996C238.874 83.48 238.118 82.244 238.094 80.984H240.254V79.712H234.278V80.984H236.474C236.45 82.364 235.658 83.768 233.87 84.368L234.662 85.604C235.958 85.184 236.834 84.308 237.326 83.216C237.806 84.128 238.646 84.86 239.858 85.22L240.614 83.996ZM239.114 88.82C237.698 88.82 236.942 88.52 236.942 87.896C236.942 87.26 237.698 86.96 239.114 86.96C240.518 86.96 241.274 87.26 241.274 87.896C241.274 88.52 240.518 88.82 239.114 88.82ZM239.114 85.736C236.81 85.736 235.37 86.54 235.37 87.896C235.37 89.24 236.81 90.032 239.114 90.032C241.406 90.032 242.846 89.24 242.846 87.896C242.846 86.54 241.406 85.736 239.114 85.736ZM242.726 81.524V78.98H241.142V85.544H242.726V82.82H244.19V81.524H242.726ZM249.04 80.12V81.38H252.724C252.496 83.828 251.272 85.556 248.452 86.912L249.28 88.16C253.204 86.264 254.344 83.504 254.344 80.12H249.04ZM256.036 78.968V90.02H257.632V78.968H256.036ZM261.183 87.272H267.123V90.044H268.707V86.024H261.183V87.272ZM262.515 83.684C261.723 83.684 261.123 83.168 261.123 82.292C261.123 81.416 261.723 80.912 262.515 80.912C263.319 80.912 263.931 81.416 263.931 82.292C263.931 83.168 263.319 83.684 262.515 83.684ZM267.123 78.98V81.656H265.371C265.071 80.42 263.931 79.556 262.515 79.556C260.883 79.556 259.611 80.708 259.611 82.292C259.611 83.888 260.883 85.04 262.515 85.04C263.931 85.04 265.071 84.188 265.371 82.928H267.123V85.532H268.707V78.98H267.123ZM272.99 86.3C272.39 86.3 272.03 85.472 272.03 83.768C272.03 82.076 272.39 81.248 272.99 81.248C273.602 81.248 273.95 82.076 273.95 83.768C273.95 85.472 273.602 86.3 272.99 86.3ZM276.242 83.048H275.366C275.186 80.984 274.298 79.76 272.99 79.76C271.526 79.76 270.602 81.272 270.602 83.768C270.602 86.276 271.526 87.788 272.99 87.788C274.334 87.788 275.234 86.492 275.378 84.332H276.242V89.54H277.718V79.16H276.242V83.048ZM278.486 78.968V90.02H279.986V78.968H278.486ZM291.161 82.916C289.673 83.204 288.257 83.312 286.937 83.336V79.496H285.353V84.656H286.289C287.849 84.656 289.541 84.548 291.341 84.188L291.161 82.916ZM287.969 86.948H292.061V88.664H287.969V86.948ZM286.409 89.9H293.609V85.712H286.409V89.9ZM295.073 81.308H293.609V78.98H292.025V85.196H293.609V82.604H295.073V81.308ZM304.852 81.968H298.768V79.376H297.184V83.228H304.852V81.968ZM298.672 86.504H297.076V89.792H304.912V88.532H298.672V86.504ZM295.948 84.356V85.628H305.956V84.356H295.948ZM319.842 82.544C317.406 82.208 316.158 80.828 316.158 79.616V79.268H314.526V79.616C314.526 80.864 313.29 82.232 310.854 82.568L311.442 83.816C313.302 83.516 314.658 82.664 315.354 81.536C316.05 82.652 317.394 83.492 319.242 83.78L319.842 82.544ZM313.086 86.612H311.502V89.84H319.242V88.58H313.086V86.612ZM310.338 84.416V85.664H314.694V87.548H316.278V85.664H320.358V84.416H310.338ZM321.785 79.808V81.068H325.385C325.133 82.616 323.765 83.9 321.305 84.572L321.965 85.832C325.253 84.884 327.101 82.808 327.101 79.808H321.785ZM324.533 86.096H322.949V89.84H330.461V88.58H324.533V86.096ZM330.077 82.064V78.98H328.493V86.888H330.077V83.36H331.553V82.064H330.077ZM337.42 80.3C339.028 80.3 339.784 80.528 339.784 81.02C339.784 81.536 339.028 81.752 337.42 81.752C335.824 81.752 335.068 81.536 335.068 81.02C335.068 80.528 335.824 80.3 337.42 80.3ZM337.42 82.904C339.952 82.904 341.428 82.244 341.428 81.02C341.428 79.808 339.952 79.136 337.42 79.136C334.9 79.136 333.424 79.808 333.424 81.02C333.424 82.244 334.9 82.904 337.42 82.904ZM335.152 88.136H341.2V85.292H333.568V86.456H339.64V87.044H333.58V89.948H341.488V88.76H335.152V88.136ZM332.428 83.432V84.668H342.412V83.432H332.428ZM350.862 82.844H348.702V80.732H350.862V82.844ZM352.422 79.496H347.154V84.092H352.422V79.496ZM349.818 87.956H355.53V84.932H348.234V86.156H353.97V86.816H348.246V89.9H355.854V88.676H349.818V87.956ZM355.53 81.104V78.98H353.946V84.5H355.53V82.4H356.982V81.104H355.53ZM367.782 82.22C366.342 81.776 365.766 80.732 365.766 79.676V79.208H364.17V79.676C364.17 80.528 363.798 81.428 362.862 81.992C361.926 81.416 361.542 80.504 361.542 79.676V79.208H359.97V79.676C359.97 80.696 359.382 81.764 357.942 82.22L358.674 83.372C359.694 83.036 360.354 82.388 360.738 81.608C361.122 82.448 361.782 83.156 362.862 83.516C363.942 83.156 364.602 82.448 364.974 81.608C365.358 82.4 366.03 83.036 367.062 83.372L367.782 82.22ZM360.582 87.308H365.106V88.664H360.582V87.308ZM359.034 89.9H366.666V86.06H359.034V89.9ZM357.87 84.008V85.256H367.866V84.008H357.87ZM371.561 86.336C370.961 86.336 370.529 85.856 370.529 85.028C370.529 84.2 370.961 83.708 371.561 83.708C372.161 83.708 372.593 84.2 372.593 85.028C372.593 85.856 372.161 86.336 371.561 86.336ZM371.561 82.388C370.145 82.388 369.137 83.48 369.137 85.028C369.137 86.564 370.145 87.656 371.561 87.656C372.977 87.656 373.985 86.564 373.985 85.028C373.985 83.48 372.977 82.388 371.561 82.388ZM372.341 79.28H370.781V80.648H368.897V81.908H374.177V80.648H372.341V79.28ZM376.889 78.968V83.48H376.049V79.184H374.573V89.564H376.049V84.752H376.889V90.02H378.389V78.968H376.889ZM381.004 84.452C382.936 84.188 384.292 83.36 384.952 82.232C385.612 83.36 386.968 84.188 388.9 84.452L389.464 83.216C387.22 82.94 386.056 81.86 385.9 80.804H389.032V79.544H380.836V80.804H384.016C383.86 81.86 382.684 82.94 380.428 83.216L381.004 84.452ZM389.944 85.088H379.96V86.348H384.124V90.056H385.708V86.348H389.944V85.088ZM394.515 79.94H392.991V81.8C392.991 83.684 392.403 85.664 390.783 86.648L391.731 87.836C392.727 87.236 393.375 86.18 393.759 84.956C394.107 86.072 394.695 87.008 395.631 87.584L396.495 86.36C394.995 85.364 394.515 83.528 394.515 81.74V79.94ZM396.723 82.712H395.331V83.996H396.723V89.54H398.199V79.16H396.723V82.712ZM398.967 78.98V90.032H400.467V78.98H398.967ZM405.806 85.352C406.19 85.424 406.586 85.46 407.018 85.46C407.45 85.46 407.858 85.424 408.242 85.352V87.464H405.806V85.352ZM407.018 80.768C408.554 80.768 409.586 81.392 409.586 82.496C409.586 83.588 408.554 84.224 407.018 84.224C405.482 84.224 404.462 83.588 404.462 82.496C404.462 81.392 405.482 80.768 407.018 80.768ZM409.814 87.464V84.764C410.642 84.248 411.146 83.456 411.146 82.496C411.146 80.684 409.406 79.52 407.018 79.52C404.642 79.52 402.902 80.684 402.902 82.496C402.89 83.456 403.394 84.248 404.234 84.764V87.464H402.026V88.748H412.034V87.464H409.814ZM414.493 89.168C415.129 89.168 415.597 88.664 415.597 88.016C415.597 87.356 415.129 86.864 414.493 86.864C413.869 86.864 413.401 87.356 413.401 88.016C413.401 88.664 413.869 89.168 414.493 89.168Z" fill="black"/>
</svg>
