<svg width="474" height="372" viewBox="0 0 474 372" fill="none" xmlns="http://www.w3.org/2000/svg">
<path d="M125.781 90.7894C128.539 91.5695 127.667 79.0462 136.325 73.5435C143.3 69.095 151.451 71.4352 150.681 64.4357C150.174 59.7763 138.373 59.5866 130.181 67.1343C122.091 74.6188 123.774 90.2202 125.781 90.7894Z" fill="url(#paint0_radial_416_195)"/>
<path d="M135.412 98.4215C137.764 100.509 142.752 90.4943 153.418 90.8527C161.954 91.1478 165.949 100.72 170.491 96.3132C175.661 91.2954 168.058 82.8833 156.399 82.04C140.887 80.9015 132.837 96.1445 135.412 98.4215V98.4215Z" fill="url(#paint1_radial_416_195)"/>
<path d="M138.008 109.511C138.252 111.303 150.904 110.565 159.684 116.869C168.443 123.173 170.714 130.784 175.885 129.392C181.055 127.98 178.399 118.893 167.572 111.725C155.791 103.882 137.278 104.177 138.008 109.511V109.511Z" fill="url(#paint2_radial_416_195)"/>
<path d="M139.793 120.854C138.434 122.498 139.914 123.552 145.186 129.392C150.458 135.232 153.054 138.395 155.304 140.503C157.433 142.506 160.373 143.096 161.833 141.663C163.962 139.554 160.84 135.401 158.407 132.787C155.041 129.16 149.566 124.86 147.214 123.342C144.902 121.887 141.03 119.357 139.793 120.854V120.854Z" fill="url(#paint3_radial_416_195)"/>
<path d="M125.233 120.306C124.057 120.706 125.639 124.543 126.653 130.362C127.281 134.01 128.173 136.94 128.822 149.274C129.552 163.463 127.322 169.935 134.074 170.019C141.232 170.125 138.393 154.629 137.075 146.702C135.595 137.847 133.871 131.943 131.945 127.811C130.201 124.079 126.937 119.736 125.233 120.306Z" fill="url(#paint4_radial_416_195)"/>
<path d="M115.095 128.865C112.743 128.338 109.803 134.199 107.106 143.455C104.288 153.195 102.787 161.544 108.444 162.324C115.744 163.336 114.973 153.195 115.521 144.593C115.947 137.91 116.656 129.224 115.095 128.865V128.865Z" fill="url(#paint5_radial_416_195)"/>
<path d="M109.215 118.745C106.356 116.511 94.7986 124.607 89.04 133.567C82.7137 143.392 77.4215 158.15 84.3156 158.656C91.8179 159.204 90.6013 148.683 96.1368 138.036C102.788 125.26 110.594 119.821 109.215 118.745V118.745Z" fill="url(#paint6_radial_416_195)"/>
<path d="M93.9665 116.49C94.737 117.923 88.5932 122.077 83.7674 126.968C78.9416 131.859 73.7913 139.913 71.1148 137.109C68.4383 134.326 69.9388 128.907 75.4134 122.899C82.125 115.499 92.7702 114.255 93.9665 116.49V116.49Z" fill="url(#paint7_radial_416_195)"/>
<path d="M59.5169 117.944C63.6128 120.748 65.5796 108.605 75.576 107.614C85.4304 106.644 95.3457 110.017 96.2378 107.656C96.9272 105.864 85.8765 99.834 73.8525 101.563C61.3621 103.376 54.1436 114.255 59.5169 117.944Z" fill="url(#paint8_radial_416_195)"/>
<path d="M105.869 98.9907C108.444 97.8733 104.369 77.8444 86.0389 76.959C69.6351 76.1578 64.2618 88.407 67.5872 92.4128C70.3245 95.7228 77.1983 86.1933 85.7347 86.1511C101.104 86.0668 102.868 100.277 105.869 98.9907V98.9907Z" fill="url(#paint9_radial_416_195)"/>
<path d="M97.5763 62.749C95.4269 64.7519 96.1975 68.7155 103.233 73.6279C110.371 78.6034 110.249 88.6811 112.703 88.5546C115.176 88.4492 114.811 76.6216 110.533 69.2426C106.782 62.8334 100.638 59.8607 97.5763 62.749V62.749Z" fill="url(#paint10_radial_416_195)"/>
<path d="M171.565 81.1123C173.836 83.9374 182.474 77.6547 197.702 77.7601C211.226 77.8445 218.181 83.7899 220.777 77.1065C223.412 70.2967 213.761 67.05 198.148 68.2306C183.123 69.3902 168.767 77.6758 171.565 81.1123V81.1123Z" fill="url(#paint11_radial_416_195)"/>
<path d="M181.055 95.4066C181.927 97.6414 188.091 94.7319 194.397 96.271C199.73 97.5571 205.285 101.963 207.171 97.3041C209.077 92.6447 204.231 87.9854 195.451 87.7956C186.732 87.627 179.838 92.2231 181.055 95.4066Z" fill="url(#paint12_radial_416_195)"/>
<path d="M172.073 108.836C172.296 111.198 179.677 109.258 188.821 112.041C197.966 114.824 202.447 118.176 206.827 122.098C211.227 126.04 216.499 131.838 220.007 127.642C224.245 122.561 217.168 116.911 211.815 113.222C207.111 109.975 200.095 106.222 189.49 105.421C178.217 104.578 171.87 106.602 172.073 108.836V108.836Z" fill="url(#paint13_radial_416_195)"/>
<path d="M188.74 128.022C188.841 129.898 192.633 130.531 197.317 134.473C202.812 139.112 206.401 143.919 211.592 151.635C215.1 156.864 217.756 164.074 222.602 162.24C228.543 160.005 224.629 151.972 218.587 144.973C213.457 139.048 210.253 135.443 203.116 131.058C197.155 127.411 188.557 124.628 188.74 128.022V128.022Z" fill="url(#paint14_radial_416_195)"/>
<path d="M190.281 149.084C188.72 150.876 191.924 152.963 194.174 155.83C196.425 158.698 200.683 166.077 202.184 168.185C204.596 171.601 207.962 170.884 209.503 169.534C211.044 168.185 211.572 164.643 209.645 161.734C206.807 157.433 201.474 153.385 197.601 151.066C194.803 149.358 191.64 147.524 190.281 149.084Z" fill="url(#paint15_radial_416_195)"/>
<path d="M166.152 147.292C165.178 148.768 167.307 150.075 170.227 154.27C173.228 158.592 177.263 163.863 181.379 178.242C185.658 193.19 186.225 204.701 186.57 207.863C187.138 212.86 188.618 216.297 192.998 216.297C196.627 216.297 197.966 211.637 197.601 204.701C197.195 197.09 195.147 184.714 189.713 172.528C183.123 157.707 175.844 151.698 174.1 150.243C171.687 148.283 167.754 144.867 166.152 147.292V147.292Z" fill="url(#paint16_radial_416_195)"/>
<path d="M144.739 139.154C142.772 140.313 144.901 143.075 146.706 146.68C148.51 150.286 154.289 162.472 156.479 172.128C158.953 182.985 159.521 189.374 159.845 194.602C160.048 197.849 161.143 201.412 165.34 201.349C170.673 201.264 170.308 193.021 169.01 184.777C167.023 172.149 162.866 162.767 158.142 154.46C154.37 147.798 152.87 145.415 150.416 142.675C148.125 140.103 146.057 138.374 144.739 139.154V139.154Z" fill="url(#paint17_radial_416_195)"/>
<path d="M167.186 207.99C162.988 207.421 161.326 211.7 161.164 214.357C160.94 217.92 162.664 220.724 166.03 220.977C170.308 221.314 171.667 217.878 171.809 214.125C171.87 212.059 171.606 208.601 167.186 207.99Z" fill="#FFDD74"/>
<path d="M146.869 184.44C144.658 184.588 144.719 190.681 143.158 200.758C141.597 210.836 138.008 218.805 144.516 220.555C151.187 222.347 150.944 207.948 150.599 200.379C150.336 195.045 149.667 184.25 146.869 184.44V184.44Z" fill="url(#paint18_radial_416_195)"/>
<path d="M103.172 176.218C100.516 175.733 96.9881 183.534 95.4471 191.798C93.7236 200.99 93.2369 207.737 98.2453 208.327C102.828 208.875 102.909 200.316 103.274 191.693C103.76 180.181 104.957 176.555 103.172 176.218Z" fill="url(#paint19_radial_416_195)"/>
<path d="M96.319 164.285C94.3319 162.619 81.7604 175.037 79.2867 193.611C77.2387 209.023 77.7862 226.058 85.6941 224.793C93.6019 223.528 86.8498 209.845 88.9789 192.178C91.4526 171.917 98.7116 166.267 96.319 164.285V164.285Z" fill="url(#paint20_radial_416_195)"/>
<path d="M77.9279 146.849C76.0219 144.446 63.5315 154.06 56.4955 168.206C50.372 180.54 47.8983 191.398 46.7222 201.243C45.8909 208.18 47.8172 214.42 52.9877 214.146C57.2052 213.914 58.0771 209.044 58.4827 197.849C59.0301 183.112 63.0854 171.896 67.7491 162.704C71.7435 154.903 79.4284 148.747 77.9279 146.849Z" fill="url(#paint21_radial_416_195)"/>
<path d="M51.6295 148.979C49.2774 147.25 42.6672 154.671 38.8552 160.616C35.0432 166.562 29.6902 176.618 35.6921 179.022C42.6875 181.826 42.9511 171.242 45.4046 165.571C49.4193 156.294 53.6166 150.454 51.6295 148.979Z" fill="url(#paint22_radial_416_195)"/>
<path d="M58.3004 127.305C60.0645 130.13 48.669 133.757 35.5704 152.584C22.2892 171.706 25.8579 187.666 17.4025 186.401C8.74442 185.094 15.6385 165.508 26.9325 149.421C39.1188 132.091 56.7189 124.754 58.3004 127.305V127.305Z" fill="url(#paint23_radial_416_195)"/>
<path d="M10.4272 149.021C13.8337 151.846 16.7738 149.695 19.8355 145.331C23.9314 139.512 30.2374 132.829 34.6983 128.676C41.1057 122.73 51.0412 117.48 49.8246 115.288C48.6891 113.264 39.5038 115.52 28.3112 123.32C17.4429 130.91 13.3876 136.034 12.0899 137.805C10.2853 140.25 5.76359 145.141 10.4272 149.021V149.021Z" fill="url(#paint24_radial_416_195)"/>
<path d="M18.112 113.285C20.4844 116.637 24.925 114.993 27.5204 112.716C30.1158 110.439 34.2319 107.445 39.1591 105.252C44.1066 103.06 48.1822 103.84 47.9592 100.53C47.797 97.9787 37.0504 97.6414 26.2227 102.006C16.206 106.032 16.1857 110.586 18.112 113.285V113.285Z" fill="url(#paint25_radial_416_195)"/>
<path d="M53.9411 85.9192C53.353 88.5546 46.1346 84.1904 30.8257 85.8982C17.0985 87.4372 3.45233 98.1263 0.532504 90.5997C-3.40116 80.4587 15.3141 76.6006 28.5345 76.7481C41.7548 76.8957 54.9143 81.5761 53.9411 85.9192Z" fill="url(#paint26_radial_416_195)"/>
<path d="M65.3969 75.1669C63.8559 76.6427 60.4292 72.152 51.8116 68.9053C43.6807 65.8482 38.2466 64.0351 28.9802 63.9086C19.7138 63.7821 13.4888 68.6523 11.1773 62.5593C8.86577 56.4663 14.1985 52.7135 28.1083 53.1141C44.2282 53.5779 53.3121 59.7763 58.807 64.1405C62.8218 67.3029 67.2624 73.3749 65.3969 75.1669V75.1669Z" fill="url(#paint27_radial_416_195)"/>
<path d="M87.3367 69.0739C84.8427 71.0136 77.5634 60.725 68.1753 54.358C62.1937 50.289 51.366 49.5721 53.414 41.8768C55.4416 34.2659 64.6675 38.0397 73.0417 45.1447C83.18 53.7255 90.2768 66.7759 87.3367 69.0739V69.0739Z" fill="url(#paint28_radial_416_195)"/>
<path d="M46.986 10.5475C45.1002 15.1647 48.1417 18.9807 54.3464 20.4776C60.9768 22.0799 68.2967 26.9923 74.0958 31.9046C80.8073 37.597 85.7143 43.7111 89.0193 48.7077C91.4525 52.3762 93.8452 56.5717 95.4876 56.0025C97.13 55.4332 96.5622 51.4696 95.0618 47.3584C93.5613 43.2472 88.5733 30.0915 74.7649 18.1585C64.2008 9.05061 50.9399 0.912573 46.986 10.5475V10.5475Z" fill="url(#paint29_radial_416_195)"/>
<path d="M35.2658 36.6272C35.0428 40.0426 37.5773 42.7413 41.6732 42.9942C44.6944 43.184 49.1756 42.425 49.4391 37.8922C49.7027 33.6545 46.8437 30.8083 42.2207 30.8083C38.6723 30.8083 35.5497 32.3684 35.2658 36.6272Z" fill="#FEDE6A"/>
<path d="M96.3191 17.4838C92.7505 20.0981 95.6095 24.7364 98.7523 30.1336C101.895 35.5309 106.539 47.1054 110.087 46.1145C113.635 45.1236 107.633 28.6789 106.275 24.5677C104.916 20.4565 101.368 13.7943 96.3191 17.4838V17.4838Z" fill="url(#paint30_radial_416_195)"/>
<path d="M120.306 64.5411C124.159 65.0471 124.26 48.9607 128.761 33.9286C133.263 18.8964 139.123 11.2643 133.263 8.98736C127.403 6.7104 122.597 14.7009 119.84 29.9649C117.386 43.5635 116.9 64.0772 120.306 64.5411Z" fill="url(#paint31_radial_416_195)"/>
<path d="M139.67 50.3522C142.854 52.334 145.713 38.0608 156.824 27.3717C171.545 13.204 185.232 14.2581 183.022 7.00556C181.704 2.68354 170.977 3.31603 161.305 10.421C151.41 17.6946 147.172 24.5888 142.935 33.8021C140.137 39.874 137.419 48.9607 139.67 50.3522Z" fill="url(#paint32_radial_416_195)"/>
<path d="M152.607 55.3278C154.777 56.8669 160.637 49.1927 166.233 44.4068C174.06 37.7024 182.211 33.5069 191.518 30.6607C200.886 27.8145 207.699 28.447 206.705 22.2907C205.61 15.502 194.965 17.8633 187.463 20.9203C177.263 25.0948 168.139 30.1758 161.326 38.2084C155.77 44.7863 151.026 54.1893 152.607 55.3278Z" fill="url(#paint33_radial_416_195)"/>
<path d="M160.373 74.0284C163.009 76.1578 165.644 69.8329 172.68 64.8784C178.946 60.4721 183.934 57.3307 190.605 55.2013C196.323 53.3882 205.346 53.6201 203.704 48.3704C202.264 43.7532 193.363 43.7743 186.428 46.4308C179.798 48.9607 173.35 53.7887 168.362 59.2071C164.347 63.6134 158.406 72.4261 160.373 74.0284V74.0284Z" fill="url(#paint34_radial_416_195)"/>
<path d="M102.24 106.412C102.24 108.415 109.195 108.394 112.216 111.24C116.251 115.035 116.555 119.968 118.38 119.968C120.185 119.968 121.422 112.652 124.808 109.933C128.214 107.213 134.216 107.108 134.115 105.337C134.013 103.566 126.795 103.608 123.125 100.15C119.901 97.1143 119.455 92.2442 118.015 92.2652C116.353 92.2863 116.819 97.3252 112.115 101.226C107.127 105.337 102.24 104.409 102.24 106.412V106.412Z" fill="#FFFFFD"/>
<path d="M50.9603 218.679C46.7428 218.805 45.8101 222.938 46.0129 225.447C46.2764 228.841 48.5069 231.16 51.8728 230.991C55.8673 230.781 56.6378 227.323 56.2525 223.76C56.0295 221.82 54.6912 218.573 50.9603 218.679V218.679Z" fill="#FFDD74"/>
<path d="M144.597 64.4146C144.293 67.83 145.935 69.3058 148.612 69.3058C151.674 69.3058 152.85 67.0289 152.769 64.8152C152.708 62.9388 151.755 60.8094 148.835 60.6407C146.564 60.5142 144.841 61.8003 144.597 64.4146ZM167.996 97.8522C167.773 100.72 169.233 103.376 171.971 103.376C175.093 103.376 176.371 100.72 176.29 98.4636C176.229 96.5451 175.56 93.8886 172.599 93.7199C170.267 93.5724 168.199 95.1958 167.996 97.8522ZM93.8246 62.7701C93.3785 65.7006 95.102 67.9565 97.7785 67.7879C101.084 67.577 102.179 65.1736 102.097 62.8544C102.016 60.8937 100.638 58.7854 98.1841 58.7854C95.7306 58.7854 94.2504 60.0504 93.8246 62.7701V62.7701ZM60.6318 91.0002C60.2871 94.6476 62.2945 96.3553 65.2143 96.3553C68.5599 96.3553 69.8779 93.488 69.7765 91.1267C69.6954 89.1239 68.6613 86.8469 65.4982 86.6782C63.0042 86.5517 60.8751 88.1962 60.6318 91.0002ZM53.1497 118.598C52.8253 122.456 54.6908 124.079 57.4686 124.079C60.6521 124.079 61.8687 121.486 61.7876 118.998C61.7267 116.869 60.7332 114.466 57.712 114.276C55.3396 114.128 53.393 115.625 53.1497 118.598V118.598ZM66.512 137.151C64.8696 140.081 65.3968 142.696 67.5867 143.771C70.1212 145.015 72.3922 142.822 73.2236 140.819C73.9332 139.112 74.2374 136.518 71.9056 135.19C70.101 134.157 67.7692 134.916 66.512 137.151ZM79.7729 158.107C79.4688 161.628 81.1112 163.21 83.7674 163.21C86.8089 163.21 88.0052 160.89 87.9444 158.613C87.8835 156.674 86.8697 154.038 83.9702 154.038C81.6789 154.038 79.9959 155.409 79.7729 158.107ZM103.801 164.517C103.172 167.574 104.713 169.935 107.45 170.188C110.593 170.483 111.911 168.185 112.175 165.845C112.398 163.694 111.486 161.017 108.505 160.722C106.153 160.511 104.368 161.776 103.801 164.517V164.517ZM128.984 174.067C128.64 177.82 130.647 179.844 133.587 179.844C136.973 179.844 138.149 177.04 138.068 174.615C137.987 172.549 137.46 169.408 133.587 169.26C131.052 169.155 129.248 171.2 128.984 174.067V174.067ZM156.621 140.693C156.317 144.003 158.304 145.415 160.555 145.5C163.556 145.605 164.752 143.328 164.671 141.178C164.61 139.365 163.617 136.877 160.758 136.877C158.507 136.898 156.865 138.163 156.621 140.693V140.693ZM174.667 131.838C174.748 135 176.371 136.666 179.189 136.497C181.987 136.329 183.021 133.883 182.697 131.163C182.433 128.907 180.791 126.841 178.135 127.221C176.046 127.516 174.586 129.034 174.667 131.838V131.838ZM182.413 5.12918C181.987 9.78852 184.299 11.8125 188.05 11.8125C192.369 11.8125 194.011 8.6922 193.91 5.69842C193.809 3.14737 192.47 0.343334 188.374 0.0270889C185.09 -0.24699 182.737 1.56615 182.413 5.12918ZM213.72 19.4024C209.786 17.9266 207.657 19.0861 206.522 22.2275C205.224 25.7905 207.536 28.2151 210.131 28.9951C212.321 29.6698 215.16 29.3746 216.457 25.9592C217.451 23.3027 216.153 20.33 213.72 19.4024V19.4024ZM224.386 80.3112C223.757 84.0428 225.825 86.0036 228.502 86.0036C231.564 86.0036 233.186 83.3049 232.983 80.6063C232.841 78.7299 231.847 76.6427 228.928 76.474C226.636 76.3476 224.832 77.7179 224.386 80.3112ZM220.249 126.862C218.14 129.814 218.668 133.04 220.918 134.494C223.94 136.434 226.758 134.832 228.056 132.492C229.151 130.489 229.536 127.685 226.778 125.661C224.588 124.079 222.094 124.29 220.249 126.862ZM221.243 163.905C220.918 167.426 222.561 168.923 225.339 168.923C228.502 168.923 229.658 166.077 229.576 163.8C229.516 161.86 228.522 159.668 225.521 159.499C223.149 159.372 221.486 161.207 221.243 163.905V163.905ZM194.234 219.206C190.666 219.016 189.165 221.399 189.287 224.35C189.429 227.745 192.186 228.525 194.498 228.335C196.465 228.187 198.634 227.028 198.675 223.802C198.695 221.314 196.972 219.354 194.234 219.206V219.206ZM138.818 224.266C138.474 228.082 140.4 229.937 143.381 229.937C146.787 229.937 148.024 226.859 147.943 224.392C147.862 222.284 146.807 219.923 143.563 219.733C141.029 219.585 139.082 221.335 138.818 224.266V224.266ZM81.2328 223.401C81.7195 227.471 84.3149 228.841 87.3766 228.145C90.9048 227.344 91.5131 223.844 90.8642 221.314C90.3167 219.143 88.7149 216.929 85.3287 217.498C82.6927 217.92 80.8678 220.281 81.2328 223.401ZM32.6906 179.57C31.1699 182.585 32.1634 185.157 34.5966 186.19C37.4151 187.392 39.4225 185.305 40.1524 183.259C40.781 181.51 40.6593 179.19 38.0639 177.904C36.016 176.892 33.8464 177.272 32.6906 179.57ZM11.0352 192.135C11.7246 196.268 15.2122 197.343 17.6454 196.394C21.1533 195.045 21.721 191.777 20.9505 189.205C20.3016 187.012 18.1523 184.524 14.685 185.305C11.968 185.916 10.508 188.973 11.0352 192.135ZM12.5965 112.442C9.45366 115.204 9.96057 118.64 11.9071 120.432C14.1376 122.477 17.4832 121.339 19.1864 119.209C20.6463 117.396 21.5588 114.192 19.3284 111.936C17.7265 110.312 15.0094 110.312 12.5965 112.442V112.442ZM8.39928 58.7011C6.45272 61.5684 7.54766 65.1947 10.5891 66.818C13.5495 68.3782 16.9357 66.2699 18.0104 63.7399C18.9228 61.5684 18.9431 58.6167 15.6786 56.7404C13.1237 55.2646 10.2242 56.0025 8.39928 58.7011ZM37.3745 10.421C36.3607 14.7009 38.3681 17.1043 41.7543 17.6314C45.6271 18.2428 47.6548 15.0804 47.9589 12.2552C48.2225 9.85177 47.4115 6.9634 43.7617 6.18333C40.9229 5.55084 38.1653 7.13206 37.3745 10.421V10.421ZM86.9914 11.4119C86.6872 15.0171 89.161 16.9357 91.8172 16.9357C94.8587 16.9357 96.8255 14.8906 96.9269 12.1077C97.008 10.1258 95.6495 7.38506 92.3849 7.02664C89.8301 6.73148 87.2144 8.65004 86.9914 11.4119ZM130.302 5.23459C129.937 9.15603 132.37 11.2643 135.473 11.2643C139.041 11.2643 140.359 8.41812 140.278 5.88816C140.197 3.7377 139.183 1.08124 135.797 0.891492C133.121 0.764994 130.566 2.2408 130.302 5.23459V5.23459Z" fill="#FFFEFD"/>
<path d="M397.152 128.496C399.128 129.128 398.504 118.99 404.709 114.535C409.709 110.934 415.551 112.829 414.999 107.162C414.635 103.39 406.177 103.237 400.306 109.347C394.507 115.406 395.713 128.035 397.152 128.496Z" fill="url(#paint35_radial_416_195)"/>
<path d="M404.055 134.675C405.741 136.364 409.316 128.257 416.961 128.547C423.079 128.786 425.942 136.535 429.197 132.968C432.903 128.906 427.453 122.096 419.097 121.413C407.979 120.492 402.21 132.831 404.055 134.675V134.675Z" fill="url(#paint36_radial_416_195)"/>
<path d="M405.916 143.652C406.09 145.103 415.159 144.505 421.451 149.608C427.73 154.711 429.357 160.873 433.063 159.746C436.769 158.603 434.865 151.247 427.105 145.444C418.661 139.095 405.392 139.334 405.916 143.652V143.652Z" fill="url(#paint37_radial_416_195)"/>
<path d="M407.195 152.834C406.221 154.165 407.282 155.019 411.06 159.746C414.839 164.474 416.699 167.034 418.312 168.741C419.838 170.362 421.946 170.84 422.992 169.679C424.518 167.973 422.28 164.61 420.536 162.494C418.123 159.558 414.2 156.077 412.514 154.848C410.857 153.67 408.081 151.622 407.195 152.834V152.834Z" fill="url(#paint38_radial_416_195)"/>
<path d="M396.76 152.39C395.917 152.715 397.05 155.821 397.777 160.531C398.227 163.484 398.867 165.856 399.332 175.841C399.855 187.327 398.256 192.566 403.096 192.635C408.226 192.72 406.191 180.176 405.247 173.758C404.186 166.59 402.951 161.811 401.57 158.466C400.32 155.445 397.98 151.929 396.76 152.39Z" fill="url(#paint39_radial_416_195)"/>
<path d="M389.493 159.32C387.807 158.893 385.7 163.638 383.767 171.13C381.747 179.015 380.671 185.774 384.726 186.405C389.958 187.224 389.405 179.015 389.798 172.052C390.103 166.641 390.612 159.61 389.493 159.32V159.32Z" fill="url(#paint40_radial_416_195)"/>
<path d="M385.279 151.127C383.23 149.318 374.946 155.872 370.818 163.126C366.284 171.079 362.491 183.026 367.432 183.436C372.809 183.879 371.938 175.363 375.905 166.744C380.672 156.401 386.267 151.998 385.279 151.127V151.127Z" fill="url(#paint41_radial_416_195)"/>
<path d="M374.349 149.301C374.902 150.462 370.498 153.824 367.039 157.783C363.58 161.743 359.889 168.263 357.971 165.993C356.052 163.74 357.128 159.354 361.052 154.49C365.862 148.499 373.492 147.492 374.349 149.301V149.301Z" fill="url(#paint42_radial_416_195)"/>
<path d="M349.658 150.479C352.594 152.749 354.003 142.918 361.168 142.116C368.231 141.331 375.338 144.061 375.977 142.15C376.472 140.699 368.551 135.818 359.933 137.218C350.981 138.685 345.807 147.492 349.658 150.479Z" fill="url(#paint43_radial_416_195)"/>
<path d="M382.881 135.135C384.726 134.231 381.805 118.017 368.667 117.3C356.91 116.652 353.059 126.568 355.442 129.81C357.404 132.49 362.331 124.776 368.449 124.741C379.465 124.673 380.73 136.176 382.881 135.135V135.135Z" fill="url(#paint44_radial_416_195)"/>
<path d="M376.936 105.797C375.396 107.418 375.948 110.627 380.991 114.604C386.107 118.631 386.02 126.789 387.778 126.687C389.551 126.602 389.289 117.027 386.223 111.054C383.534 105.865 379.131 103.459 376.936 105.797V105.797Z" fill="url(#paint45_radial_416_195)"/>
<path d="M429.967 120.662C431.595 122.949 437.786 117.863 448.7 117.949C458.394 118.017 463.379 122.83 465.239 117.42C467.128 111.907 460.21 109.279 449.02 110.234C438.251 111.173 427.962 117.88 429.967 120.662V120.662Z" fill="url(#paint46_radial_416_195)"/>
<path d="M436.769 132.234C437.394 134.043 441.812 131.688 446.332 132.934C450.154 133.975 454.136 137.542 455.488 133.77C456.854 129.998 453.38 126.226 447.087 126.073C440.838 125.936 435.897 129.657 436.769 132.234Z" fill="url(#paint47_radial_416_195)"/>
<path d="M430.331 143.106C430.491 145.017 435.781 143.447 442.336 145.7C448.89 147.953 452.102 150.666 455.241 153.841C458.395 157.033 462.173 161.726 464.687 158.33C467.725 154.216 462.653 149.642 458.816 146.656C455.444 144.027 450.416 140.989 442.815 140.341C434.735 139.658 430.186 141.297 430.331 143.106V143.106Z" fill="url(#paint48_radial_416_195)"/>
<path d="M442.277 158.637C442.35 160.156 445.068 160.668 448.425 163.859C452.363 167.614 454.935 171.506 458.656 177.752C461.17 181.985 463.074 187.822 466.547 186.337C470.806 184.528 468.001 178.025 463.67 172.359C459.993 167.563 457.697 164.645 452.581 161.095C448.308 158.142 442.146 155.889 442.277 158.637V158.637Z" fill="url(#paint49_radial_416_195)"/>
<path d="M443.382 175.687C442.263 177.138 444.559 178.827 446.172 181.148C447.785 183.47 450.837 189.443 451.913 191.15C453.642 193.915 456.055 193.334 457.159 192.242C458.264 191.15 458.641 188.283 457.261 185.927C455.226 182.446 451.404 179.169 448.628 177.291C446.623 175.909 444.356 174.424 443.382 175.687Z" fill="url(#paint50_radial_416_195)"/>
<path d="M426.087 174.236C425.39 175.431 426.916 176.489 429.008 179.886C431.159 183.384 434.051 187.651 437.001 199.291C440.068 211.392 440.475 220.71 440.722 223.27C441.129 227.315 442.19 230.097 445.329 230.097C447.93 230.097 448.889 226.325 448.628 220.71C448.337 214.549 446.869 204.531 442.975 194.666C438.251 182.667 433.034 177.803 431.784 176.626C430.055 175.038 427.235 172.274 426.087 174.236V174.236Z" fill="url(#paint51_radial_416_195)"/>
<path d="M410.74 167.648C409.33 168.587 410.856 170.823 412.15 173.741C413.443 176.66 417.585 186.525 419.155 194.341C420.928 203.131 421.335 208.302 421.567 212.535C421.712 215.163 422.497 218.048 425.506 217.997C429.328 217.928 429.066 211.255 428.136 204.582C426.712 194.359 423.733 186.764 420.346 180.039C417.643 174.646 416.568 172.717 414.809 170.499C413.167 168.416 411.685 167.017 410.74 167.648V167.648Z" fill="url(#paint52_radial_416_195)"/>
<path d="M426.828 223.373C423.82 222.912 422.628 226.377 422.512 228.527C422.352 231.411 423.587 233.681 426 233.886C429.066 234.159 430.04 231.377 430.142 228.339C430.185 226.667 429.996 223.868 426.828 223.373Z" fill="#FFDD74"/>
<path d="M412.266 204.309C410.682 204.428 410.726 209.361 409.607 217.519C408.488 225.677 405.915 232.128 410.58 233.545C415.362 234.995 415.187 223.339 414.94 217.211C414.751 212.893 414.272 204.155 412.266 204.309V204.309Z" fill="url(#paint53_radial_416_195)"/>
<path d="M380.948 197.652C379.044 197.26 376.515 203.575 375.411 210.265C374.175 217.706 373.827 223.168 377.416 223.646C380.701 224.09 380.759 217.16 381.02 210.18C381.369 200.861 382.227 197.926 380.948 197.652Z" fill="url(#paint54_radial_416_195)"/>
<path d="M376.035 187.992C374.611 186.644 365.601 196.697 363.828 211.733C362.36 224.209 362.752 237.999 368.42 236.975C374.088 235.951 369.248 224.875 370.774 210.572C372.547 194.171 377.75 189.597 376.035 187.992V187.992Z" fill="url(#paint55_radial_416_195)"/>
<path d="M362.854 173.878C361.488 171.932 352.535 179.715 347.492 191.167C343.104 201.151 341.33 209.941 340.488 217.911C339.892 223.526 341.272 228.578 344.978 228.356C348.001 228.169 348.626 224.226 348.917 215.163C349.309 203.233 352.216 194.154 355.558 186.712C358.421 180.398 363.929 175.414 362.854 173.878Z" fill="url(#paint56_radial_416_195)"/>
<path d="M344.005 175.602C342.319 174.202 337.581 180.21 334.849 185.023C332.117 189.836 328.28 197.977 332.582 199.922C337.595 202.192 337.784 193.625 339.543 189.034C342.42 181.524 345.429 176.796 344.005 175.602Z" fill="url(#paint57_radial_416_195)"/>
<path d="M348.786 158.057C350.05 160.344 341.883 163.279 332.494 178.52C322.975 194 325.533 206.92 319.473 205.896C313.267 204.838 318.208 188.982 326.303 175.96C335.038 161.931 347.652 155.991 348.786 158.057V158.057Z" fill="url(#paint58_radial_416_195)"/>
<path d="M314.473 175.636C316.915 177.923 319.022 176.182 321.217 172.649C324.152 167.938 328.672 162.528 331.869 159.166C336.462 154.353 343.583 150.103 342.711 148.328C341.897 146.69 335.314 148.516 327.291 154.831C319.502 160.975 316.595 165.122 315.665 166.556C314.372 168.536 311.131 172.495 314.473 175.636V175.636Z" fill="url(#paint59_radial_416_195)"/>
<path d="M319.982 146.707C321.682 149.421 324.865 148.089 326.725 146.246C328.585 144.403 331.535 141.979 335.067 140.204C338.613 138.429 341.534 139.061 341.374 136.381C341.258 134.316 333.556 134.043 325.795 137.576C318.616 140.836 318.601 144.522 319.982 146.707V146.707Z" fill="url(#paint60_radial_416_195)"/>
<path d="M345.662 124.554C345.24 126.687 340.066 123.154 329.094 124.537C319.255 125.783 309.474 134.436 307.382 128.343C304.562 120.133 317.976 117.01 327.452 117.129C336.927 117.249 346.359 121.038 345.662 124.554Z" fill="url(#paint61_radial_416_195)"/>
<path d="M353.872 115.849C352.768 117.044 350.312 113.409 344.135 110.78C338.308 108.306 334.413 106.838 327.771 106.736C321.13 106.633 316.668 110.576 315.011 105.643C313.354 100.711 317.177 97.6729 327.146 97.9971C338.7 98.3726 345.211 103.39 349.149 106.923C352.027 109.483 355.209 114.399 353.872 115.849V115.849Z" fill="url(#paint62_radial_416_195)"/>
<path d="M369.597 110.917C367.81 112.487 362.592 104.158 355.864 99.0041C351.576 95.7101 343.816 95.1298 345.284 88.9003C346.737 82.739 353.349 85.7941 359.352 91.5457C366.618 98.4921 371.705 109.057 369.597 110.917V110.917Z" fill="url(#paint63_radial_416_195)"/>
<path d="M340.677 63.5385C339.325 67.2762 341.505 70.3653 345.952 71.5771C350.704 72.8742 355.951 76.8509 360.107 80.8275C364.918 85.4357 368.435 90.3852 370.804 94.4301C372.547 97.3998 374.262 100.796 375.44 100.335C376.617 99.8745 376.21 96.6659 375.134 93.3378C374.059 90.0097 370.484 79.3597 360.587 69.6997C353.015 62.3267 343.511 55.7387 340.677 63.5385V63.5385Z" fill="url(#paint64_radial_416_195)"/>
<path d="M332.276 84.6506C332.116 87.4155 333.933 89.6001 336.869 89.8049C339.034 89.9585 342.246 89.3441 342.435 85.6746C342.624 82.2441 340.575 79.94 337.261 79.94C334.718 79.94 332.48 81.203 332.276 84.6506Z" fill="#FEDE6A"/>
<path d="M376.036 69.1536C373.478 71.2699 375.527 75.0247 377.78 79.3939C380.032 83.7631 383.36 93.133 385.904 92.3308C388.447 91.5287 384.145 78.2162 383.171 74.8881C382.198 71.56 379.654 66.1668 376.036 69.1536V69.1536Z" fill="url(#paint65_radial_416_195)"/>
<path d="M393.228 107.248C395.989 107.657 396.062 94.6349 399.288 82.466C402.515 70.2971 406.715 64.1187 402.515 62.2755C398.315 60.4322 394.87 66.9007 392.894 79.2573C391.135 90.2657 390.786 106.872 393.228 107.248Z" fill="url(#paint66_radial_416_195)"/>
<path d="M407.107 95.7613C409.389 97.3656 411.438 85.8112 419.402 77.1581C429.953 65.6889 439.763 66.5423 438.179 60.6712C437.234 57.1724 429.546 57.6844 422.614 63.4361C415.522 69.3242 412.484 74.9052 409.447 82.3636C407.441 87.2789 405.494 94.6349 407.107 95.7613Z" fill="url(#paint67_radial_416_195)"/>
<path d="M416.379 99.7892C417.934 101.035 422.134 94.8226 426.145 90.9484C431.755 85.521 437.597 82.1246 444.268 79.8206C450.982 77.5165 455.865 78.0285 455.153 73.0449C454.368 67.5493 446.739 69.4608 441.361 71.9355C434.051 75.3148 427.511 79.428 422.628 85.9306C418.646 91.2556 415.246 98.8676 416.379 99.7892Z" fill="url(#paint68_radial_416_195)"/>
<path d="M421.945 114.928C423.834 116.652 425.724 111.531 430.767 107.521C435.257 103.954 438.832 101.411 443.614 99.6868C447.712 98.219 454.179 98.4067 453.002 94.157C451.97 90.4193 445.59 90.4364 440.62 92.5868C435.868 94.6349 431.246 98.5433 427.671 102.93C424.794 106.497 420.535 113.631 421.945 114.928V114.928Z" fill="url(#paint69_radial_416_195)"/>
<path d="M380.279 141.143C380.279 142.764 385.264 142.747 387.43 145.051C390.322 148.123 390.54 152.117 391.848 152.117C393.141 152.117 394.028 146.195 396.455 143.993C398.896 141.792 403.198 141.706 403.125 140.273C403.053 138.839 397.879 138.873 395.248 136.074C392.938 133.616 392.618 129.674 391.586 129.691C390.394 129.708 390.729 133.787 387.357 136.944C383.782 140.273 380.279 139.522 380.279 141.143V141.143Z" fill="#FFFFFD"/>
<path d="M343.525 232.026C340.502 232.128 339.834 235.473 339.979 237.504C340.168 240.252 341.766 242.13 344.179 241.993C347.042 241.822 347.594 239.023 347.318 236.139C347.158 234.569 346.199 231.94 343.525 232.026V232.026Z" fill="#FFDD74"/>
<path d="M410.638 107.145C410.42 109.91 411.597 111.105 413.516 111.105C415.71 111.105 416.553 109.261 416.495 107.469C416.451 105.95 415.768 104.227 413.676 104.09C412.048 103.988 410.813 105.029 410.638 107.145ZM427.409 134.214C427.249 136.535 428.296 138.685 430.258 138.685C432.496 138.685 433.411 136.535 433.353 134.709C433.31 133.156 432.83 131.005 430.708 130.869C429.037 130.749 427.555 132.063 427.409 134.214ZM374.248 105.814C373.928 108.186 375.163 110.012 377.081 109.876C379.45 109.705 380.235 107.76 380.177 105.882C380.119 104.295 379.131 102.588 377.372 102.588C375.614 102.588 374.553 103.612 374.248 105.814V105.814ZM350.457 128.667C350.21 131.619 351.649 133.002 353.741 133.002C356.139 133.002 357.084 130.681 357.011 128.769C356.953 127.148 356.212 125.305 353.945 125.168C352.157 125.066 350.631 126.397 350.457 128.667ZM345.094 151.008C344.862 154.131 346.199 155.445 348.19 155.445C350.472 155.445 351.343 153.346 351.285 151.332C351.242 149.608 350.53 147.663 348.364 147.509C346.664 147.39 345.269 148.601 345.094 151.008V151.008ZM354.672 166.027C353.494 168.399 353.872 170.516 355.442 171.386C357.258 172.393 358.886 170.618 359.482 168.997C359.991 167.614 360.209 165.515 358.537 164.44C357.244 163.603 355.573 164.218 354.672 166.027ZM364.176 182.992C363.958 185.842 365.135 187.122 367.039 187.122C369.219 187.122 370.077 185.245 370.033 183.401C369.989 181.831 369.263 179.698 367.184 179.698C365.542 179.698 364.336 180.807 364.176 182.992ZM381.398 188.18C380.947 190.655 382.052 192.566 384.014 192.771C386.266 193.01 387.211 191.15 387.4 189.255C387.56 187.515 386.906 185.347 384.769 185.108C383.084 184.937 381.805 185.961 381.398 188.18V188.18ZM399.448 195.912C399.201 198.95 400.639 200.588 402.747 200.588C405.174 200.588 406.017 198.318 405.959 196.355C405.9 194.683 405.523 192.14 402.747 192.02C400.93 191.935 399.637 193.59 399.448 195.912V195.912ZM419.256 168.894C419.038 171.574 420.462 172.717 422.076 172.786C424.227 172.871 425.084 171.028 425.026 169.287C424.982 167.819 424.27 165.805 422.221 165.805C420.608 165.822 419.431 166.846 419.256 168.894V168.894ZM432.191 161.726C432.249 164.286 433.411 165.634 435.432 165.498C437.437 165.361 438.178 163.382 437.946 161.18C437.757 159.354 436.58 157.681 434.676 157.988C433.179 158.227 432.133 159.456 432.191 161.726V161.726ZM437.742 59.1522C437.437 62.924 439.094 64.5625 441.782 64.5625C444.878 64.5625 446.055 62.0365 445.982 59.613C445.91 57.5479 444.951 55.2779 442.015 55.0219C439.661 54.8001 437.975 56.2678 437.742 59.1522ZM460.181 70.7067C457.362 69.512 455.836 70.4507 455.022 72.9937C454.092 75.878 455.749 77.8408 457.609 78.4723C459.178 79.0184 461.213 78.7795 462.143 76.0146C462.855 73.8641 461.925 71.4576 460.181 70.7067V70.7067ZM467.826 120.014C467.375 123.035 468.857 124.622 470.776 124.622C472.97 124.622 474.133 122.437 473.988 120.253C473.886 118.734 473.174 117.044 471.081 116.908C469.439 116.805 468.145 117.915 467.826 120.014ZM464.861 157.698C463.349 160.088 463.727 162.699 465.34 163.876C467.506 165.447 469.526 164.15 470.456 162.255C471.241 160.634 471.517 158.364 469.54 156.725C467.971 155.445 466.183 155.616 464.861 157.698ZM465.573 187.685C465.34 190.535 466.518 191.747 468.509 191.747C470.776 191.747 471.604 189.443 471.546 187.6C471.502 186.03 470.79 184.255 468.639 184.118C466.939 184.016 465.747 185.501 465.573 187.685V187.685ZM446.215 232.452C443.657 232.299 442.582 234.227 442.669 236.617C442.771 239.365 444.747 239.996 446.404 239.843C447.814 239.723 449.369 238.784 449.398 236.173C449.412 234.159 448.177 232.572 446.215 232.452V232.452ZM406.496 236.549C406.249 239.638 407.63 241.14 409.766 241.14C412.208 241.14 413.094 238.648 413.036 236.651C412.978 234.944 412.222 233.033 409.897 232.879C408.08 232.76 406.685 234.176 406.496 236.549V236.549ZM365.223 235.849C365.571 239.143 367.432 240.252 369.626 239.689C372.155 239.04 372.591 236.207 372.126 234.159C371.733 232.401 370.585 230.609 368.158 231.07C366.269 231.411 364.961 233.323 365.223 235.849ZM330.43 200.366C329.341 202.807 330.053 204.889 331.797 205.725C333.817 206.698 335.255 205.008 335.779 203.353C336.229 201.936 336.142 200.059 334.282 199.018C332.814 198.199 331.259 198.506 330.43 200.366ZM314.909 210.538C315.403 213.883 317.903 214.754 319.647 213.986C322.161 212.893 322.568 210.248 322.016 208.166C321.551 206.391 320.01 204.377 317.525 205.008C315.578 205.503 314.531 207.978 314.909 210.538ZM316.028 146.024C313.776 148.26 314.139 151.042 315.534 152.493C317.133 154.148 319.531 153.227 320.751 151.503C321.798 150.035 322.452 147.441 320.853 145.615C319.705 144.3 317.758 144.3 316.028 146.024V146.024ZM313.02 102.52C311.625 104.841 312.41 107.777 314.59 109.091C316.711 110.354 319.138 108.647 319.909 106.599C320.563 104.841 320.577 102.452 318.237 100.933C316.406 99.738 314.328 100.335 313.02 102.52ZM333.788 63.4361C333.061 66.9007 334.5 68.8464 336.927 69.273C339.703 69.768 341.156 67.2079 341.374 64.9209C341.563 62.9752 340.981 60.637 338.366 60.0056C336.331 59.4935 334.354 60.7736 333.788 63.4361V63.4361ZM369.35 64.2382C369.132 67.1567 370.905 68.7098 372.809 68.7098C374.989 68.7098 376.398 67.0543 376.471 64.8014C376.529 63.1971 375.555 60.9784 373.216 60.6882C371.385 60.4493 369.51 62.0024 369.35 64.2382ZM400.392 59.2375C400.131 62.412 401.875 64.1187 404.098 64.1187C406.656 64.1187 407.601 61.8147 407.543 59.7666C407.485 58.0258 406.758 55.8753 404.331 55.7217C402.412 55.6193 400.581 56.814 400.392 59.2375V59.2375Z" fill="#FFFEFD"/>
<path d="M264.957 283.382C266.578 283.875 266.066 275.96 271.157 272.482C275.258 269.67 280.051 271.15 279.598 266.726C279.3 263.781 272.361 263.661 267.544 268.431C262.787 273.162 263.777 283.022 264.957 283.382Z" fill="url(#paint70_radial_416_195)"/>
<path d="M270.62 288.206C272.003 289.525 274.936 283.196 281.207 283.422C286.226 283.609 288.575 289.658 291.246 286.873C294.286 283.702 289.815 278.385 282.96 277.852C273.839 277.133 269.106 286.767 270.62 288.206V288.206Z" fill="url(#paint71_radial_416_195)"/>
<path d="M272.146 295.215C272.289 296.347 279.729 295.881 284.891 299.865C290.042 303.85 291.377 308.66 294.417 307.78C297.457 306.888 295.896 301.145 289.529 296.614C282.602 291.657 271.717 291.844 272.146 295.215V295.215Z" fill="url(#paint72_radial_416_195)"/>
<path d="M273.196 302.384C272.397 303.423 273.267 304.089 276.367 307.78C279.467 311.472 280.993 313.47 282.316 314.803C283.568 316.069 285.297 316.442 286.155 315.536C287.407 314.203 285.571 311.578 284.14 309.926C282.161 307.634 278.942 304.916 277.559 303.956C276.2 303.037 273.923 301.438 273.196 302.384V302.384Z" fill="url(#paint73_radial_416_195)"/>
<path d="M264.635 302.037C263.944 302.291 264.873 304.716 265.47 308.393C265.839 310.699 266.364 312.551 266.745 320.346C267.175 329.314 265.863 333.405 269.833 333.458C274.042 333.525 272.373 323.731 271.598 318.72C270.727 313.124 269.714 309.393 268.581 306.781C267.556 304.423 265.637 301.678 264.635 302.037Z" fill="url(#paint74_radial_416_195)"/>
<path d="M258.674 307.447C257.291 307.114 255.562 310.819 253.976 316.668C252.319 322.825 251.437 328.101 254.763 328.594C259.055 329.234 258.602 322.825 258.924 317.388C259.174 313.164 259.592 307.674 258.674 307.447V307.447Z" fill="url(#paint75_radial_416_195)"/>
<path d="M255.217 301.051C253.536 299.639 246.74 304.756 243.354 310.419C239.634 316.628 236.523 325.956 240.576 326.276C244.987 326.622 244.272 319.973 247.527 313.244C251.437 305.169 256.028 301.731 255.217 301.051V301.051Z" fill="url(#paint76_radial_416_195)"/>
<path d="M246.25 299.625C246.703 300.532 243.091 303.157 240.253 306.248C237.416 309.34 234.388 314.43 232.814 312.657C231.24 310.899 232.122 307.474 235.342 303.676C239.288 298.999 245.547 298.213 246.25 299.625V299.625Z" fill="url(#paint77_radial_416_195)"/>
<path d="M225.995 300.545C228.403 302.317 229.559 294.642 235.437 294.016C241.231 293.403 247.061 295.535 247.586 294.042C247.991 292.91 241.494 289.099 234.424 290.191C227.08 291.337 222.835 298.213 225.995 300.545Z" fill="url(#paint78_radial_416_195)"/>
<path d="M253.249 288.566C254.763 287.859 252.367 275.2 241.589 274.641C231.944 274.134 228.785 281.876 230.74 284.408C232.349 286.5 236.391 280.477 241.41 280.45C250.447 280.397 251.485 289.378 253.249 288.566V288.566Z" fill="url(#paint79_radial_416_195)"/>
<path d="M248.373 265.66C247.109 266.925 247.562 269.431 251.699 272.535C255.896 275.68 255.824 282.05 257.267 281.97C258.722 281.903 258.507 274.428 255.991 269.764C253.786 265.713 250.173 263.834 248.373 265.66V265.66Z" fill="url(#paint80_radial_416_195)"/>
<path d="M291.877 277.266C293.213 279.051 298.291 275.08 307.245 275.147C315.197 275.2 319.287 278.958 320.813 274.734C322.363 270.43 316.688 268.378 307.507 269.124C298.673 269.857 290.232 275.094 291.877 277.266V277.266Z" fill="url(#paint81_radial_416_195)"/>
<path d="M297.457 286.3C297.97 287.713 301.594 285.874 305.302 286.847C308.438 287.659 311.704 290.444 312.813 287.5C313.934 284.555 311.084 281.61 305.922 281.49C300.795 281.383 296.742 284.288 297.457 286.3Z" fill="url(#paint82_radial_416_195)"/>
<path d="M292.176 294.788C292.307 296.281 296.647 295.055 302.024 296.814C307.401 298.573 310.035 300.691 312.611 303.17C315.198 305.662 318.298 309.326 320.36 306.674C322.852 303.463 318.691 299.892 315.544 297.56C312.778 295.508 308.652 293.136 302.417 292.63C295.788 292.097 292.057 293.376 292.176 294.788V294.788Z" fill="url(#paint83_radial_416_195)"/>
<path d="M301.976 306.914C302.035 308.1 304.265 308.5 307.019 310.992C310.25 313.923 312.36 316.962 315.412 321.839C317.475 325.143 319.037 329.7 321.886 328.541C325.379 327.129 323.078 322.052 319.525 317.628C316.509 313.883 314.625 311.605 310.429 308.833C306.924 306.528 301.869 304.769 301.976 306.914V306.914Z" fill="url(#paint84_radial_416_195)"/>
<path d="M302.882 320.226C301.964 321.359 303.848 322.678 305.171 324.49C306.494 326.302 308.998 330.966 309.88 332.299C311.299 334.457 313.278 334.004 314.184 333.152C315.09 332.299 315.4 330.06 314.268 328.221C312.599 325.503 309.463 322.945 307.186 321.479C305.541 320.399 303.681 319.24 302.882 320.226Z" fill="url(#paint85_radial_416_195)"/>
<path d="M288.694 319.094C288.122 320.026 289.374 320.852 291.091 323.504C292.855 326.236 295.228 329.567 297.648 338.655C300.164 348.102 300.497 355.378 300.7 357.377C301.034 360.535 301.904 362.707 304.479 362.707C306.614 362.707 307.4 359.762 307.186 355.378C306.947 350.568 305.743 342.746 302.548 335.044C298.673 325.676 294.393 321.878 293.368 320.959C291.949 319.72 289.636 317.561 288.694 319.094V319.094Z" fill="url(#paint86_radial_416_195)"/>
<path d="M276.104 313.95C274.947 314.683 276.199 316.429 277.26 318.707C278.322 320.986 281.719 328.688 283.007 334.791C284.461 341.653 284.795 345.691 284.986 348.995C285.105 351.047 285.749 353.299 288.217 353.259C291.353 353.206 291.138 347.996 290.375 342.786C289.207 334.804 286.762 328.874 283.985 323.624C281.767 319.413 280.885 317.908 279.442 316.175C278.095 314.55 276.879 313.457 276.104 313.95V313.95Z" fill="url(#paint87_radial_416_195)"/>
<path d="M289.302 357.457C286.834 357.097 285.857 359.802 285.761 361.481C285.63 363.733 286.644 365.505 288.623 365.665C291.138 365.878 291.937 363.706 292.021 361.334C292.056 360.029 291.901 357.843 289.302 357.457Z" fill="#FFDD74"/>
<path d="M277.356 342.573C276.057 342.666 276.092 346.517 275.174 352.886C274.256 359.256 272.146 364.293 275.973 365.399C279.896 366.531 279.753 357.43 279.55 352.646C279.395 349.275 279.001 342.453 277.356 342.573V342.573Z" fill="url(#paint88_radial_416_195)"/>
<path d="M251.664 337.376C250.102 337.069 248.027 342 247.121 347.223C246.108 353.033 245.822 357.297 248.767 357.67C251.461 358.016 251.509 352.606 251.723 347.156C252.009 339.881 252.713 337.589 251.664 337.376Z" fill="url(#paint89_radial_416_195)"/>
<path d="M247.634 329.834C246.465 328.781 239.073 336.629 237.619 348.369C236.415 358.11 236.737 368.876 241.386 368.077C246.036 367.277 242.066 358.629 243.318 347.463C244.772 334.657 249.04 331.086 247.634 329.834V329.834Z" fill="url(#paint90_radial_416_195)"/>
<path d="M236.82 318.814C235.7 317.295 228.355 323.371 224.218 332.312C220.618 340.107 219.163 346.97 218.472 353.193C217.983 357.577 219.116 361.521 222.156 361.348C224.636 361.201 225.148 358.123 225.387 351.047C225.709 341.733 228.093 334.644 230.835 328.834C233.184 323.904 237.703 320.013 236.82 318.814Z" fill="url(#paint91_radial_416_195)"/>
<path d="M221.357 320.16C219.974 319.067 216.088 323.757 213.846 327.515C211.605 331.273 208.457 337.629 211.986 339.148C216.1 340.92 216.255 334.231 217.697 330.646C220.058 324.783 222.526 321.092 221.357 320.16Z" fill="url(#paint92_radial_416_195)"/>
<path d="M225.28 306.461C226.317 308.247 219.617 310.539 211.915 322.438C204.106 334.524 206.204 344.611 201.232 343.812C196.142 342.986 200.195 330.607 206.836 320.439C214.001 309.486 224.35 304.849 225.28 306.461V306.461Z" fill="url(#paint93_radial_416_195)"/>
<path d="M197.131 320.186C199.134 321.972 200.863 320.613 202.663 317.854C205.071 314.177 208.779 309.952 211.402 307.327C215.17 303.57 221.011 300.252 220.296 298.866C219.628 297.587 214.228 299.012 207.647 303.943C201.256 308.74 198.872 311.978 198.109 313.097C197.048 314.643 194.389 317.734 197.131 320.186V320.186Z" fill="url(#paint94_radial_416_195)"/>
<path d="M201.65 297.6C203.044 299.719 205.655 298.679 207.181 297.24C208.708 295.801 211.128 293.909 214.025 292.523C216.934 291.137 219.33 291.63 219.199 289.538C219.104 287.926 212.785 287.713 206.418 290.471C200.529 293.016 200.517 295.894 201.65 297.6V297.6Z" fill="url(#paint95_radial_416_195)"/>
<path d="M222.716 280.304C222.371 281.97 218.126 279.211 209.125 280.291C201.054 281.263 193.03 288.019 191.313 283.262C189 276.853 200.004 274.414 207.778 274.507C215.551 274.601 223.289 277.559 222.716 280.304Z" fill="url(#paint96_radial_416_195)"/>
<path d="M229.452 273.508C228.546 274.441 226.531 271.603 221.465 269.551C216.684 267.618 213.488 266.472 208.04 266.392C202.592 266.312 198.931 269.391 197.572 265.54C196.213 261.689 199.349 259.317 207.527 259.57C217.006 259.863 222.347 263.781 225.578 266.539C227.938 268.538 230.549 272.375 229.452 273.508V273.508Z" fill="url(#paint97_radial_416_195)"/>
<path d="M242.353 269.657C240.886 270.883 236.606 264.38 231.086 260.356C227.569 257.784 221.203 257.331 222.407 252.468C223.599 247.657 229.024 250.042 233.947 254.533C239.909 259.956 244.081 268.205 242.353 269.657V269.657Z" fill="url(#paint98_radial_416_195)"/>
<path d="M218.627 232.666C217.518 235.585 219.307 237.996 222.955 238.943C226.853 239.955 231.157 243.06 234.567 246.165C238.513 249.763 241.399 253.627 243.342 256.785C244.773 259.104 246.179 261.755 247.145 261.395C248.111 261.036 247.777 258.531 246.895 255.932C246.012 253.334 243.08 245.019 234.96 237.477C228.749 231.72 220.952 226.577 218.627 232.666V232.666Z" fill="url(#paint99_radial_416_195)"/>
<path d="M211.736 249.15C211.605 251.308 213.095 253.014 215.503 253.174C217.28 253.294 219.915 252.814 220.07 249.949C220.225 247.271 218.544 245.472 215.825 245.472C213.739 245.472 211.903 246.458 211.736 249.15Z" fill="#FEDE6A"/>
<path d="M247.634 237.05C245.536 238.703 247.217 241.634 249.065 245.045C250.913 248.457 253.643 255.772 255.729 255.146C257.816 254.52 254.287 244.126 253.488 241.528C252.689 238.929 250.603 234.718 247.634 237.05V237.05Z" fill="url(#paint100_radial_416_195)"/>
<path d="M261.738 266.792C264.003 267.112 264.063 256.945 266.71 247.444C269.356 237.943 272.802 233.119 269.356 231.68C265.911 230.241 263.085 235.291 261.464 244.939C260.021 253.534 259.735 266.499 261.738 266.792Z" fill="url(#paint101_radial_416_195)"/>
<path d="M273.124 257.824C274.995 259.077 276.677 250.056 283.21 243.3C291.866 234.345 299.913 235.012 298.614 230.428C297.839 227.696 291.532 228.096 285.845 232.586C280.027 237.184 277.535 241.541 275.043 247.364C273.398 251.202 271.8 256.945 273.124 257.824Z" fill="url(#paint102_radial_416_195)"/>
<path d="M280.73 260.969C282.006 261.942 285.451 257.091 288.742 254.067C293.344 249.829 298.137 247.178 303.609 245.379C309.117 243.58 313.123 243.979 312.539 240.089C311.895 235.798 305.636 237.29 301.225 239.222C295.228 241.861 289.863 245.072 285.857 250.149C282.59 254.306 279.8 260.25 280.73 260.969Z" fill="url(#paint103_radial_416_195)"/>
<path d="M285.296 272.789C286.846 274.134 288.396 270.137 292.533 267.005C296.217 264.22 299.15 262.235 303.073 260.889C306.435 259.743 311.74 259.89 310.774 256.572C309.928 253.654 304.694 253.667 300.617 255.346C296.718 256.945 292.927 259.996 289.994 263.421C287.633 266.206 284.14 271.776 285.296 272.789V272.789Z" fill="url(#paint104_radial_416_195)"/>
<path d="M251.115 293.256C251.115 294.522 255.205 294.509 256.981 296.308C259.354 298.706 259.532 301.824 260.605 301.824C261.666 301.824 262.394 297.2 264.385 295.481C266.388 293.762 269.917 293.696 269.857 292.576C269.797 291.457 265.553 291.484 263.395 289.298C261.5 287.38 261.237 284.302 260.391 284.315C259.413 284.328 259.687 287.513 256.921 289.978C253.989 292.576 251.115 291.99 251.115 293.256V293.256Z" fill="#FFFFFD"/>
<path d="M220.964 364.213C218.484 364.293 217.935 366.904 218.054 368.49C218.209 370.635 219.521 372.101 221.5 371.995C223.849 371.861 224.302 369.676 224.075 367.424C223.944 366.198 223.157 364.146 220.964 364.213V364.213Z" fill="#FFDD74"/>
<path d="M276.021 266.712C275.842 268.871 276.807 269.804 278.381 269.804C280.181 269.804 280.873 268.365 280.825 266.965C280.789 265.779 280.229 264.434 278.512 264.327C277.177 264.247 276.164 265.06 276.021 266.712ZM289.779 287.846C289.648 289.658 290.506 291.337 292.116 291.337C293.952 291.337 294.703 289.658 294.655 288.232C294.619 287.02 294.226 285.341 292.485 285.234C291.114 285.141 289.898 286.167 289.779 287.846ZM246.167 265.673C245.905 267.525 246.918 268.951 248.492 268.844C250.435 268.711 251.079 267.192 251.031 265.726C250.984 264.487 250.173 263.154 248.73 263.154C247.288 263.154 246.417 263.954 246.167 265.673V265.673ZM226.65 283.515C226.448 285.821 227.628 286.9 229.345 286.9C231.312 286.9 232.087 285.088 232.027 283.595C231.98 282.329 231.372 280.89 229.512 280.784C228.045 280.704 226.793 281.743 226.65 283.515ZM222.251 300.958C222.06 303.396 223.157 304.423 224.79 304.423C226.662 304.423 227.378 302.784 227.33 301.211C227.294 299.865 226.71 298.346 224.934 298.226C223.539 298.133 222.394 299.079 222.251 300.958V300.958ZM230.108 312.684C229.142 314.536 229.452 316.189 230.74 316.868C232.23 317.654 233.565 316.269 234.054 315.003C234.471 313.923 234.65 312.284 233.279 311.445C232.218 310.792 230.847 311.272 230.108 312.684ZM237.905 325.929C237.726 328.155 238.692 329.154 240.254 329.154C242.042 329.154 242.745 327.688 242.71 326.249C242.674 325.023 242.078 323.358 240.373 323.358C239.026 323.358 238.036 324.224 237.905 325.929ZM252.033 329.98C251.663 331.912 252.569 333.405 254.179 333.565C256.027 333.751 256.802 332.299 256.957 330.82C257.088 329.461 256.551 327.768 254.799 327.582C253.416 327.448 252.367 328.248 252.033 329.98V329.98ZM266.84 336.017C266.638 338.388 267.818 339.668 269.547 339.668C271.538 339.668 272.229 337.895 272.182 336.363C272.134 335.057 271.824 333.072 269.547 332.978C268.056 332.912 266.995 334.204 266.84 336.017V336.017ZM283.09 314.923C282.912 317.015 284.08 317.908 285.403 317.961C287.168 318.028 287.871 316.588 287.824 315.229C287.788 314.083 287.204 312.511 285.523 312.511C284.199 312.524 283.234 313.324 283.09 314.923V314.923ZM293.701 309.326C293.749 311.325 294.703 312.378 296.36 312.271C298.005 312.164 298.613 310.619 298.423 308.9C298.268 307.474 297.302 306.168 295.74 306.408C294.512 306.595 293.654 307.554 293.701 309.326V309.326ZM298.256 229.242C298.005 232.187 299.364 233.466 301.57 233.466C304.109 233.466 305.075 231.494 305.016 229.602C304.956 227.989 304.169 226.217 301.761 226.017C299.829 225.844 298.446 226.99 298.256 229.242ZM316.664 238.263C314.351 237.33 313.099 238.063 312.431 240.049C311.668 242.3 313.027 243.833 314.553 244.326C315.841 244.752 317.51 244.566 318.273 242.407C318.857 240.728 318.094 238.849 316.664 238.263V238.263ZM322.935 276.759C322.565 279.118 323.781 280.357 325.355 280.357C327.155 280.357 328.109 278.652 327.99 276.946C327.906 275.76 327.322 274.441 325.605 274.334C324.258 274.254 323.197 275.12 322.935 276.759ZM320.503 306.181C319.263 308.047 319.573 310.086 320.896 311.005C322.672 312.231 324.33 311.218 325.093 309.739C325.737 308.473 325.963 306.701 324.342 305.422C323.054 304.423 321.588 304.556 320.503 306.181ZM321.087 329.594C320.896 331.819 321.862 332.765 323.495 332.765C325.355 332.765 326.035 330.966 325.987 329.527C325.951 328.301 325.367 326.915 323.602 326.809C322.208 326.729 321.23 327.888 321.087 329.594V329.594ZM305.206 364.546C303.108 364.426 302.226 365.932 302.297 367.797C302.381 369.942 304.002 370.435 305.361 370.316C306.518 370.222 307.793 369.489 307.817 367.451C307.829 365.878 306.816 364.639 305.206 364.546V364.546ZM272.623 367.744C272.42 370.156 273.553 371.328 275.305 371.328C277.308 371.328 278.035 369.383 277.988 367.824C277.94 366.491 277.32 364.999 275.413 364.879C273.922 364.786 272.778 365.892 272.623 367.744V367.744ZM238.763 367.197C239.05 369.769 240.576 370.635 242.376 370.196C244.45 369.689 244.808 367.477 244.426 365.878C244.105 364.506 243.163 363.107 241.172 363.466C239.622 363.733 238.549 365.225 238.763 367.197ZM210.221 339.494C209.327 341.4 209.911 343.026 211.342 343.679C212.999 344.438 214.18 343.119 214.609 341.826C214.978 340.72 214.907 339.255 213.381 338.442C212.177 337.802 210.901 338.042 210.221 339.494ZM197.488 347.436C197.894 350.048 199.944 350.728 201.375 350.128C203.438 349.275 203.771 347.21 203.318 345.584C202.937 344.198 201.673 342.626 199.634 343.119C198.037 343.505 197.178 345.437 197.488 347.436ZM198.406 297.067C196.558 298.813 196.857 300.985 198.001 302.117C199.313 303.41 201.28 302.69 202.281 301.344C203.14 300.198 203.676 298.173 202.365 296.747C201.423 295.721 199.825 295.721 198.406 297.067V297.067ZM195.939 263.101C194.794 264.913 195.438 267.205 197.226 268.231C198.967 269.217 200.958 267.885 201.59 266.286C202.126 264.913 202.138 263.048 200.219 261.862C198.716 260.929 197.012 261.395 195.939 263.101ZM212.975 232.586C212.379 235.291 213.56 236.811 215.551 237.144C217.828 237.53 219.02 235.531 219.199 233.746C219.354 232.227 218.877 230.401 216.731 229.908C215.062 229.508 213.44 230.508 212.975 232.586V232.586ZM242.149 233.213C241.97 235.491 243.425 236.704 244.987 236.704C246.775 236.704 247.932 235.411 247.991 233.652C248.039 232.4 247.24 230.668 245.321 230.441C243.818 230.255 242.28 231.467 242.149 233.213ZM267.615 229.308C267.401 231.787 268.831 233.119 270.656 233.119C272.754 233.119 273.529 231.321 273.481 229.722C273.433 228.362 272.837 226.683 270.846 226.563C269.273 226.484 267.77 227.416 267.615 229.308V229.308Z" fill="#FFFEFD"/>
<defs>
<radialGradient id="paint0_radial_416_195" cx="0" cy="0" r="1" gradientUnits="userSpaceOnUse" gradientTransform="translate(123.094 94.5591) scale(23.5411 24.4774)">
<stop stop-color="#FEB1DA"/>
<stop offset="0.447" stop-color="#F086D2"/>
<stop offset="0.993" stop-color="#DD4CC8"/>
</radialGradient>
<radialGradient id="paint1_radial_416_195" cx="0" cy="0" r="1" gradientUnits="userSpaceOnUse" gradientTransform="translate(131.821 100.319) scale(25.952 26.9841)">
<stop stop-color="#FEB1DA"/>
<stop offset="0.447" stop-color="#F086D2"/>
<stop offset="0.993" stop-color="#DD4CC8"/>
</radialGradient>
<radialGradient id="paint2_radial_416_195" cx="0" cy="0" r="1" gradientUnits="userSpaceOnUse" gradientTransform="translate(134.861 108.48) scale(21.7426 22.6073)">
<stop stop-color="#FEB1DA"/>
<stop offset="0.447" stop-color="#F086D2"/>
<stop offset="0.993" stop-color="#DD4CC8"/>
</radialGradient>
<radialGradient id="paint3_radial_416_195" cx="0" cy="0" r="1" gradientUnits="userSpaceOnUse" gradientTransform="translate(136.816 118.815) scale(15.69 16.314)">
<stop stop-color="#FEB1DA"/>
<stop offset="0.447" stop-color="#F086D2"/>
<stop offset="0.993" stop-color="#DD4CC8"/>
</radialGradient>
<radialGradient id="paint4_radial_416_195" cx="0" cy="0" r="1" gradientUnits="userSpaceOnUse" gradientTransform="translate(126.022 118.783) scale(37.3698 38.856)">
<stop stop-color="#FEB1DA"/>
<stop offset="0.447" stop-color="#F086D2"/>
<stop offset="0.993" stop-color="#DD4CC8"/>
</radialGradient>
<radialGradient id="paint5_radial_416_195" cx="0" cy="0" r="1" gradientUnits="userSpaceOnUse" gradientTransform="translate(114.758 126.017) scale(28.3426 29.4698)">
<stop stop-color="#FEB1DA"/>
<stop offset="0.447" stop-color="#F086D2"/>
<stop offset="0.993" stop-color="#DD4CC8"/>
</radialGradient>
<radialGradient id="paint6_radial_416_195" cx="0" cy="0" r="1" gradientUnits="userSpaceOnUse" gradientTransform="translate(103.864 116.856) scale(32.917 34.2261)">
<stop stop-color="#FEB1DA"/>
<stop offset="0.447" stop-color="#F086D2"/>
<stop offset="0.993" stop-color="#DD4CC8"/>
</radialGradient>
<radialGradient id="paint7_radial_416_195" cx="0" cy="0" r="1" gradientUnits="userSpaceOnUse" gradientTransform="translate(95.2764 114.683) scale(18.8633 19.6135)">
<stop stop-color="#FEB1DA"/>
<stop offset="0.447" stop-color="#F086D2"/>
<stop offset="0.993" stop-color="#DD4CC8"/>
</radialGradient>
<radialGradient id="paint8_radial_416_195" cx="0" cy="0" r="1" gradientUnits="userSpaceOnUse" gradientTransform="translate(97.8741 108.368) scale(25.4512 26.4634)">
<stop stop-color="#FEB1DA"/>
<stop offset="0.447" stop-color="#F086D2"/>
<stop offset="0.993" stop-color="#DD4CC8"/>
</radialGradient>
<radialGradient id="paint9_radial_416_195" cx="0" cy="0" r="1" gradientUnits="userSpaceOnUse" gradientTransform="translate(102.982 93.6082) scale(21.994 22.8687)">
<stop stop-color="#FEB1DA"/>
<stop offset="0.447" stop-color="#F086D2"/>
<stop offset="0.993" stop-color="#DD4CC8"/>
</radialGradient>
<radialGradient id="paint10_radial_416_195" cx="0" cy="0" r="1" gradientUnits="userSpaceOnUse" gradientTransform="translate(114.89 91.3945) scale(20.0921 20.8911)">
<stop stop-color="#FEB1DA"/>
<stop offset="0.447" stop-color="#F086D2"/>
<stop offset="0.993" stop-color="#DD4CC8"/>
</radialGradient>
<radialGradient id="paint11_radial_416_195" cx="0" cy="0" r="1" gradientUnits="userSpaceOnUse" gradientTransform="translate(171.371 76.0166) scale(48.5381 50.4685)">
<stop offset="0.223" stop-color="#FF7E8A"/>
<stop offset="0.337" stop-color="#FF8290"/>
<stop offset="0.483" stop-color="#FF8E9F"/>
<stop offset="0.61" stop-color="#FF9CB3"/>
<stop offset="0.694" stop-color="#FFA6A8"/>
<stop offset="0.84" stop-color="#FEC08C"/>
<stop offset="1" stop-color="#FDE366"/>
</radialGradient>
<radialGradient id="paint12_radial_416_195" cx="0" cy="0" r="1" gradientUnits="userSpaceOnUse" gradientTransform="translate(181.467 93.1992) scale(22.6429 23.5434)">
<stop offset="0.396" stop-color="#FF7E8A"/>
<stop offset="0.575" stop-color="#FF8290"/>
<stop offset="0.802" stop-color="#FF8E9F"/>
<stop offset="1" stop-color="#FF9CB3"/>
</radialGradient>
<radialGradient id="paint13_radial_416_195" cx="0" cy="0" r="1" gradientUnits="userSpaceOnUse" gradientTransform="translate(176.373 106.64) scale(46.7497 48.609)">
<stop offset="0.309" stop-color="#FF7E8A"/>
<stop offset="0.397" stop-color="#FF8290"/>
<stop offset="0.508" stop-color="#FF8E9F"/>
<stop offset="0.605" stop-color="#FF9CB3"/>
<stop offset="0.69" stop-color="#FFA6A8"/>
<stop offset="0.838" stop-color="#FEC08C"/>
<stop offset="1" stop-color="#FDE366"/>
</radialGradient>
<radialGradient id="paint14_radial_416_195" cx="0" cy="0" r="1" gradientUnits="userSpaceOnUse" gradientTransform="translate(190.034 124.166) scale(49.8216 51.8031)">
<stop offset="0.316" stop-color="#FF7E8A"/>
<stop offset="0.405" stop-color="#FF8290"/>
<stop offset="0.518" stop-color="#FF8E9F"/>
<stop offset="0.617" stop-color="#FF9CB3"/>
<stop offset="0.699" stop-color="#FFA6A8"/>
<stop offset="0.843" stop-color="#FEC08C"/>
<stop offset="1" stop-color="#FDE366"/>
</radialGradient>
<radialGradient id="paint15_radial_416_195" cx="0" cy="0" r="1" gradientUnits="userSpaceOnUse" gradientTransform="translate(193.467 146.17) scale(37.9456 39.4548)">
<stop offset="0.178" stop-color="#FF7E8A"/>
<stop offset="0.286" stop-color="#FF8290"/>
<stop offset="0.423" stop-color="#FF8E9F"/>
<stop offset="0.543" stop-color="#FF9CB3"/>
<stop offset="0.611" stop-color="#FFA6A8"/>
<stop offset="0.73" stop-color="#FEC08C"/>
<stop offset="0.861" stop-color="#FDE366"/>
</radialGradient>
<radialGradient id="paint16_radial_416_195" cx="0" cy="0" r="1" gradientUnits="userSpaceOnUse" gradientTransform="translate(173.401 147.52) scale(69.6299 72.399)">
<stop stop-color="#FF7E8A"/>
<stop offset="0.158" stop-color="#FF8290"/>
<stop offset="0.36" stop-color="#FF8E9F"/>
<stop offset="0.536" stop-color="#FF9CB3"/>
<stop offset="0.62" stop-color="#FFA6A8"/>
<stop offset="0.768" stop-color="#FEC18B"/>
<stop offset="0.922" stop-color="#FDE366"/>
</radialGradient>
<radialGradient id="paint17_radial_416_195" cx="0" cy="0" r="1" gradientUnits="userSpaceOnUse" gradientTransform="translate(151.491 145.129) scale(62.3505 64.8302)">
<stop offset="0.304" stop-color="#FF7E8A"/>
<stop offset="0.348" stop-color="#FF818E"/>
<stop offset="0.756" stop-color="#FF9CB3"/>
<stop offset="0.804" stop-color="#FFA3AC"/>
<stop offset="0.876" stop-color="#FEB598"/>
<stop offset="0.961" stop-color="#FDD377"/>
<stop offset="1" stop-color="#FDE366"/>
</radialGradient>
<radialGradient id="paint18_radial_416_195" cx="0" cy="0" r="1" gradientUnits="userSpaceOnUse" gradientTransform="translate(139.149 185.749) scale(36.5993 38.0548)">
<stop offset="0.126" stop-color="#FF7E8A"/>
<stop offset="0.302" stop-color="#FF8A9B"/>
<stop offset="0.598" stop-color="#FF9CB3"/>
<stop offset="0.731" stop-color="#FF9EB0"/>
<stop offset="0.811" stop-color="#FFA6A8"/>
<stop offset="0.878" stop-color="#FEB39A"/>
<stop offset="0.937" stop-color="#FEC685"/>
<stop offset="0.991" stop-color="#FDDE6B"/>
<stop offset="1" stop-color="#FDE366"/>
</radialGradient>
<radialGradient id="paint19_radial_416_195" cx="0" cy="0" r="1" gradientUnits="userSpaceOnUse" gradientTransform="translate(107.828 174.78) scale(35.6361 37.0534)">
<stop offset="0.126" stop-color="#FF7E8A"/>
<stop offset="0.302" stop-color="#FF8A9B"/>
<stop offset="0.598" stop-color="#FF9CB3"/>
<stop offset="0.731" stop-color="#FF9EB0"/>
<stop offset="0.811" stop-color="#FFA6A8"/>
<stop offset="0.878" stop-color="#FEB39A"/>
<stop offset="0.937" stop-color="#FEC685"/>
<stop offset="0.991" stop-color="#FDDE6B"/>
<stop offset="1" stop-color="#FDE366"/>
</radialGradient>
<radialGradient id="paint20_radial_416_195" cx="0" cy="0" r="1" gradientUnits="userSpaceOnUse" gradientTransform="translate(84.5282 169.214) scale(47.9075 49.8128)">
<stop offset="0.318" stop-color="#FF7E8A"/>
<stop offset="0.53" stop-color="#FF93A7"/>
<stop offset="0.612" stop-color="#FF9CB3"/>
<stop offset="0.699" stop-color="#FFAAA4"/>
<stop offset="0.866" stop-color="#FECF7B"/>
<stop offset="0.945" stop-color="#FDE366"/>
</radialGradient>
<radialGradient id="paint21_radial_416_195" cx="0" cy="0" r="1" gradientUnits="userSpaceOnUse" gradientTransform="translate(63.4991 159.271) scale(46.6281 48.4825)">
<stop offset="0.396" stop-color="#FF7E8A"/>
<stop offset="0.485" stop-color="#FF8290"/>
<stop offset="0.598" stop-color="#FF8E9F"/>
<stop offset="0.696" stop-color="#FF9CB3"/>
<stop offset="0.744" stop-color="#FFA6A8"/>
<stop offset="0.829" stop-color="#FEC08C"/>
<stop offset="0.922" stop-color="#FDE366"/>
</radialGradient>
<radialGradient id="paint22_radial_416_195" cx="0" cy="0" r="1" gradientUnits="userSpaceOnUse" gradientTransform="translate(56.0842 150.296) scale(38.0024 39.5138)">
<stop offset="0.233" stop-color="#FF7E8A"/>
<stop offset="0.369" stop-color="#FF8A9B"/>
<stop offset="0.598" stop-color="#FF9CB3"/>
<stop offset="0.731" stop-color="#FF9EB0"/>
<stop offset="0.811" stop-color="#FFA6A8"/>
<stop offset="0.878" stop-color="#FEB39A"/>
<stop offset="0.937" stop-color="#FEC685"/>
<stop offset="0.991" stop-color="#FDDE6B"/>
<stop offset="1" stop-color="#FDE366"/>
</radialGradient>
<radialGradient id="paint23_radial_416_195" cx="0" cy="0" r="1" gradientUnits="userSpaceOnUse" gradientTransform="translate(52.844 128.975) scale(59.6679 62.0409)">
<stop offset="0.35" stop-color="#FF7E8A"/>
<stop offset="0.43" stop-color="#FF8290"/>
<stop offset="0.533" stop-color="#FF8E9F"/>
<stop offset="0.622" stop-color="#FF9CB3"/>
<stop offset="0.687" stop-color="#FFA6A8"/>
<stop offset="0.799" stop-color="#FEC08C"/>
<stop offset="0.922" stop-color="#FDE366"/>
</radialGradient>
<radialGradient id="paint24_radial_416_195" cx="0" cy="0" r="1" gradientUnits="userSpaceOnUse" gradientTransform="translate(46.0106 113.285) scale(58.7149 61.0501)">
<stop offset="0.29" stop-color="#FF7E8A"/>
<stop offset="0.397" stop-color="#FF8290"/>
<stop offset="0.533" stop-color="#FF8E9F"/>
<stop offset="0.652" stop-color="#FF9CB3"/>
<stop offset="0.71" stop-color="#FFA6A8"/>
<stop offset="0.811" stop-color="#FEC08C"/>
<stop offset="0.922" stop-color="#FDE366"/>
</radialGradient>
<radialGradient id="paint25_radial_416_195" cx="0" cy="0" r="1" gradientUnits="userSpaceOnUse" gradientTransform="translate(49.413 100.92) scale(38.0936 39.6086)">
<stop offset="0.357" stop-color="#FF7E8A"/>
<stop offset="0.445" stop-color="#FF8290"/>
<stop offset="0.557" stop-color="#FF8E9F"/>
<stop offset="0.654" stop-color="#FF9CB3"/>
<stop offset="0.711" stop-color="#FFA6A8"/>
<stop offset="0.81" stop-color="#FEC08C"/>
<stop offset="0.918" stop-color="#FDE366"/>
</radialGradient>
<radialGradient id="paint26_radial_416_195" cx="0" cy="0" r="1" gradientUnits="userSpaceOnUse" gradientTransform="translate(59.3407 85.6599) scale(55.7323 57.9487)">
<stop offset="0.334" stop-color="#FF7E8A"/>
<stop offset="0.427" stop-color="#FF8290"/>
<stop offset="0.545" stop-color="#FF8E9F"/>
<stop offset="0.648" stop-color="#FF9CB3"/>
<stop offset="0.696" stop-color="#FFA6A8"/>
<stop offset="0.778" stop-color="#FEC08C"/>
<stop offset="0.869" stop-color="#FDE366"/>
</radialGradient>
<radialGradient id="paint27_radial_416_195" cx="0" cy="0" r="1" gradientUnits="userSpaceOnUse" gradientTransform="translate(60.3116 71.4647) scale(49.339 51.3013)">
<stop offset="0.272" stop-color="#FF7E8A"/>
<stop offset="0.372" stop-color="#FF8290"/>
<stop offset="0.499" stop-color="#FF8E9F"/>
<stop offset="0.61" stop-color="#FF9CB3"/>
<stop offset="0.677" stop-color="#FFA6A8"/>
<stop offset="0.794" stop-color="#FEC08C"/>
<stop offset="0.922" stop-color="#FDE366"/>
</radialGradient>
<radialGradient id="paint28_radial_416_195" cx="0" cy="0" r="1" gradientUnits="userSpaceOnUse" gradientTransform="translate(86.041 65.6142) scale(37.4387 38.9277)">
<stop offset="0.396" stop-color="#FF7E8A"/>
<stop offset="0.758" stop-color="#FF9CB3"/>
<stop offset="0.812" stop-color="#FFA7A7"/>
<stop offset="0.908" stop-color="#FEC389"/>
<stop offset="1" stop-color="#FDE366"/>
</radialGradient>
<radialGradient id="paint29_radial_416_195" cx="0" cy="0" r="1" gradientUnits="userSpaceOnUse" gradientTransform="translate(98.45 54.0249) scale(55.0327 57.2214)">
<stop offset="0.666" stop-color="#FF7E8A"/>
<stop offset="0.723" stop-color="#FF8488"/>
<stop offset="0.796" stop-color="#FF9382"/>
<stop offset="0.877" stop-color="#FEAE79"/>
<stop offset="0.965" stop-color="#FDD26C"/>
<stop offset="1" stop-color="#FDE366"/>
</radialGradient>
<radialGradient id="paint30_radial_416_195" cx="0" cy="0" r="1" gradientUnits="userSpaceOnUse" gradientTransform="translate(108.911 50.6179) scale(32.1952 33.4756)">
<stop offset="0.666" stop-color="#FF7E8A"/>
<stop offset="0.723" stop-color="#FF8488"/>
<stop offset="0.796" stop-color="#FF9382"/>
<stop offset="0.877" stop-color="#FEAE79"/>
<stop offset="0.965" stop-color="#FDD26C"/>
<stop offset="1" stop-color="#FDE366"/>
</radialGradient>
<radialGradient id="paint31_radial_416_195" cx="0" cy="0" r="1" gradientUnits="userSpaceOnUse" gradientTransform="translate(119.359 69.4176) scale(48.9051 50.8501)">
<stop offset="0.666" stop-color="#FF7E8A"/>
<stop offset="0.723" stop-color="#FF8488"/>
<stop offset="0.796" stop-color="#FF9382"/>
<stop offset="0.877" stop-color="#FEAE79"/>
<stop offset="0.965" stop-color="#FDD26C"/>
<stop offset="1" stop-color="#FDE366"/>
</radialGradient>
<radialGradient id="paint32_radial_416_195" cx="0" cy="0" r="1" gradientUnits="userSpaceOnUse" gradientTransform="translate(137.778 52.7683) scale(55.8641 58.0858)">
<stop offset="0.666" stop-color="#FF7E8A"/>
<stop offset="0.723" stop-color="#FF8488"/>
<stop offset="0.796" stop-color="#FF9382"/>
<stop offset="0.877" stop-color="#FEAE79"/>
<stop offset="0.965" stop-color="#FDD26C"/>
<stop offset="1" stop-color="#FDE366"/>
</radialGradient>
<radialGradient id="paint33_radial_416_195" cx="0" cy="0" r="1" gradientUnits="userSpaceOnUse" gradientTransform="translate(150.407 51.4359) scale(51.4113 53.4559)">
<stop offset="0.666" stop-color="#FF7E8A"/>
<stop offset="0.723" stop-color="#FF8488"/>
<stop offset="0.796" stop-color="#FF9382"/>
<stop offset="0.877" stop-color="#FEAE79"/>
<stop offset="0.965" stop-color="#FDD26C"/>
<stop offset="1" stop-color="#FDE366"/>
</radialGradient>
<radialGradient id="paint34_radial_416_195" cx="0" cy="0" r="1" gradientUnits="userSpaceOnUse" gradientTransform="translate(167.313 67.5328) scale(44.2537 46.0136)">
<stop offset="0.109" stop-color="#FF7E8A"/>
<stop offset="0.227" stop-color="#FF8290"/>
<stop offset="0.377" stop-color="#FF8E9F"/>
<stop offset="0.507" stop-color="#FF9CB3"/>
<stop offset="0.613" stop-color="#FFA6A8"/>
<stop offset="0.798" stop-color="#FEC08C"/>
<stop offset="1" stop-color="#FDE366"/>
</radialGradient>
<radialGradient id="paint35_radial_416_195" cx="0" cy="0" r="1" gradientUnits="userSpaceOnUse" gradientTransform="translate(395.226 131.548) scale(16.8728 19.815)">
<stop stop-color="#FEB1DA"/>
<stop offset="0.447" stop-color="#F086D2"/>
<stop offset="0.993" stop-color="#DD4CC8"/>
</radialGradient>
<radialGradient id="paint36_radial_416_195" cx="0" cy="0" r="1" gradientUnits="userSpaceOnUse" gradientTransform="translate(401.481 136.211) scale(18.6008 21.8443)">
<stop stop-color="#FEB1DA"/>
<stop offset="0.447" stop-color="#F086D2"/>
<stop offset="0.993" stop-color="#DD4CC8"/>
</radialGradient>
<radialGradient id="paint37_radial_416_195" cx="0" cy="0" r="1" gradientUnits="userSpaceOnUse" gradientTransform="translate(403.66 142.817) scale(15.5837 18.3012)">
<stop stop-color="#FEB1DA"/>
<stop offset="0.447" stop-color="#F086D2"/>
<stop offset="0.993" stop-color="#DD4CC8"/>
</radialGradient>
<radialGradient id="paint38_radial_416_195" cx="0" cy="0" r="1" gradientUnits="userSpaceOnUse" gradientTransform="translate(405.061 151.184) scale(11.2456 13.2066)">
<stop stop-color="#FEB1DA"/>
<stop offset="0.447" stop-color="#F086D2"/>
<stop offset="0.993" stop-color="#DD4CC8"/>
</radialGradient>
<radialGradient id="paint39_radial_416_195" cx="0" cy="0" r="1" gradientUnits="userSpaceOnUse" gradientTransform="translate(397.325 151.158) scale(26.7844 31.4548)">
<stop stop-color="#FEB1DA"/>
<stop offset="0.447" stop-color="#F086D2"/>
<stop offset="0.993" stop-color="#DD4CC8"/>
</radialGradient>
<radialGradient id="paint40_radial_416_195" cx="0" cy="0" r="1" gradientUnits="userSpaceOnUse" gradientTransform="translate(389.251 157.014) scale(20.3142 23.8565)">
<stop stop-color="#FEB1DA"/>
<stop offset="0.447" stop-color="#F086D2"/>
<stop offset="0.993" stop-color="#DD4CC8"/>
</radialGradient>
<radialGradient id="paint41_radial_416_195" cx="0" cy="0" r="1" gradientUnits="userSpaceOnUse" gradientTransform="translate(381.444 149.598) scale(23.5929 27.7069)">
<stop stop-color="#FEB1DA"/>
<stop offset="0.447" stop-color="#F086D2"/>
<stop offset="0.993" stop-color="#DD4CC8"/>
</radialGradient>
<radialGradient id="paint42_radial_416_195" cx="0" cy="0" r="1" gradientUnits="userSpaceOnUse" gradientTransform="translate(375.288 147.838) scale(13.5201 15.8776)">
<stop stop-color="#FEB1DA"/>
<stop offset="0.447" stop-color="#F086D2"/>
<stop offset="0.993" stop-color="#DD4CC8"/>
</radialGradient>
<radialGradient id="paint43_radial_416_195" cx="0" cy="0" r="1" gradientUnits="userSpaceOnUse" gradientTransform="translate(377.15 142.727) scale(18.2418 21.4227)">
<stop stop-color="#FEB1DA"/>
<stop offset="0.447" stop-color="#F086D2"/>
<stop offset="0.993" stop-color="#DD4CC8"/>
</radialGradient>
<radialGradient id="paint44_radial_416_195" cx="0" cy="0" r="1" gradientUnits="userSpaceOnUse" gradientTransform="translate(380.811 130.778) scale(15.764 18.5128)">
<stop stop-color="#FEB1DA"/>
<stop offset="0.447" stop-color="#F086D2"/>
<stop offset="0.993" stop-color="#DD4CC8"/>
</radialGradient>
<radialGradient id="paint45_radial_416_195" cx="0" cy="0" r="1" gradientUnits="userSpaceOnUse" gradientTransform="translate(389.346 128.986) scale(14.4008 16.9119)">
<stop stop-color="#FEB1DA"/>
<stop offset="0.447" stop-color="#F086D2"/>
<stop offset="0.993" stop-color="#DD4CC8"/>
</radialGradient>
<radialGradient id="paint46_radial_416_195" cx="0" cy="0" r="1" gradientUnits="userSpaceOnUse" gradientTransform="translate(429.828 116.537) scale(34.7891 40.8555)">
<stop offset="0.223" stop-color="#FF7E8A"/>
<stop offset="0.337" stop-color="#FF8290"/>
<stop offset="0.483" stop-color="#FF8E9F"/>
<stop offset="0.61" stop-color="#FF9CB3"/>
<stop offset="0.694" stop-color="#FFA6A8"/>
<stop offset="0.84" stop-color="#FEC08C"/>
<stop offset="1" stop-color="#FDE366"/>
</radialGradient>
<radialGradient id="paint47_radial_416_195" cx="0" cy="0" r="1" gradientUnits="userSpaceOnUse" gradientTransform="translate(437.064 130.447) scale(16.229 19.0589)">
<stop offset="0.396" stop-color="#FF7E8A"/>
<stop offset="0.575" stop-color="#FF8290"/>
<stop offset="0.802" stop-color="#FF8E9F"/>
<stop offset="1" stop-color="#FF9CB3"/>
</radialGradient>
<radialGradient id="paint48_radial_416_195" cx="0" cy="0" r="1" gradientUnits="userSpaceOnUse" gradientTransform="translate(433.414 141.327) scale(33.5073 39.3501)">
<stop offset="0.309" stop-color="#FF7E8A"/>
<stop offset="0.397" stop-color="#FF8290"/>
<stop offset="0.508" stop-color="#FF8E9F"/>
<stop offset="0.605" stop-color="#FF9CB3"/>
<stop offset="0.69" stop-color="#FFA6A8"/>
<stop offset="0.838" stop-color="#FEC08C"/>
<stop offset="1" stop-color="#FDE366"/>
</radialGradient>
<radialGradient id="paint49_radial_416_195" cx="0" cy="0" r="1" gradientUnits="userSpaceOnUse" gradientTransform="translate(443.204 155.515) scale(35.7091 41.9358)">
<stop offset="0.316" stop-color="#FF7E8A"/>
<stop offset="0.405" stop-color="#FF8290"/>
<stop offset="0.518" stop-color="#FF8E9F"/>
<stop offset="0.617" stop-color="#FF9CB3"/>
<stop offset="0.699" stop-color="#FFA6A8"/>
<stop offset="0.843" stop-color="#FEC08C"/>
<stop offset="1" stop-color="#FDE366"/>
</radialGradient>
<radialGradient id="paint50_radial_416_195" cx="0" cy="0" r="1" gradientUnits="userSpaceOnUse" gradientTransform="translate(445.665 173.328) scale(27.1971 31.9396)">
<stop offset="0.178" stop-color="#FF7E8A"/>
<stop offset="0.286" stop-color="#FF8290"/>
<stop offset="0.423" stop-color="#FF8E9F"/>
<stop offset="0.543" stop-color="#FF9CB3"/>
<stop offset="0.611" stop-color="#FFA6A8"/>
<stop offset="0.73" stop-color="#FEC08C"/>
<stop offset="0.861" stop-color="#FDE366"/>
</radialGradient>
<radialGradient id="paint51_radial_416_195" cx="0" cy="0" r="1" gradientUnits="userSpaceOnUse" gradientTransform="translate(431.283 174.421) scale(49.9064 58.6088)">
<stop stop-color="#FF7E8A"/>
<stop offset="0.158" stop-color="#FF8290"/>
<stop offset="0.36" stop-color="#FF8E9F"/>
<stop offset="0.536" stop-color="#FF9CB3"/>
<stop offset="0.62" stop-color="#FFA6A8"/>
<stop offset="0.768" stop-color="#FEC18B"/>
<stop offset="0.922" stop-color="#FDE366"/>
</radialGradient>
<radialGradient id="paint52_radial_416_195" cx="0" cy="0" r="1" gradientUnits="userSpaceOnUse" gradientTransform="translate(415.58 172.485) scale(44.689 52.4816)">
<stop offset="0.304" stop-color="#FF7E8A"/>
<stop offset="0.348" stop-color="#FF818E"/>
<stop offset="0.756" stop-color="#FF9CB3"/>
<stop offset="0.804" stop-color="#FFA3AC"/>
<stop offset="0.876" stop-color="#FEB598"/>
<stop offset="0.961" stop-color="#FDD377"/>
<stop offset="1" stop-color="#FDE366"/>
</radialGradient>
<radialGradient id="paint53_radial_416_195" cx="0" cy="0" r="1" gradientUnits="userSpaceOnUse" gradientTransform="translate(406.733 205.369) scale(26.2321 30.8063)">
<stop offset="0.126" stop-color="#FF7E8A"/>
<stop offset="0.302" stop-color="#FF8A9B"/>
<stop offset="0.598" stop-color="#FF9CB3"/>
<stop offset="0.731" stop-color="#FF9EB0"/>
<stop offset="0.811" stop-color="#FFA6A8"/>
<stop offset="0.878" stop-color="#FEB39A"/>
<stop offset="0.937" stop-color="#FEC685"/>
<stop offset="0.991" stop-color="#FDDE6B"/>
<stop offset="1" stop-color="#FDE366"/>
</radialGradient>
<radialGradient id="paint54_radial_416_195" cx="0" cy="0" r="1" gradientUnits="userSpaceOnUse" gradientTransform="translate(384.284 196.488) scale(25.5418 29.9956)">
<stop offset="0.126" stop-color="#FF7E8A"/>
<stop offset="0.302" stop-color="#FF8A9B"/>
<stop offset="0.598" stop-color="#FF9CB3"/>
<stop offset="0.731" stop-color="#FF9EB0"/>
<stop offset="0.811" stop-color="#FFA6A8"/>
<stop offset="0.878" stop-color="#FEB39A"/>
<stop offset="0.937" stop-color="#FEC685"/>
<stop offset="0.991" stop-color="#FDDE6B"/>
<stop offset="1" stop-color="#FDE366"/>
</radialGradient>
<radialGradient id="paint55_radial_416_195" cx="0" cy="0" r="1" gradientUnits="userSpaceOnUse" gradientTransform="translate(367.584 191.983) scale(34.3372 40.3247)">
<stop offset="0.318" stop-color="#FF7E8A"/>
<stop offset="0.53" stop-color="#FF93A7"/>
<stop offset="0.612" stop-color="#FF9CB3"/>
<stop offset="0.699" stop-color="#FFAAA4"/>
<stop offset="0.866" stop-color="#FECF7B"/>
<stop offset="0.945" stop-color="#FDE366"/>
</radialGradient>
<radialGradient id="paint56_radial_416_195" cx="0" cy="0" r="1" gradientUnits="userSpaceOnUse" gradientTransform="translate(352.512 183.934) scale(33.4201 39.2477)">
<stop offset="0.396" stop-color="#FF7E8A"/>
<stop offset="0.485" stop-color="#FF8290"/>
<stop offset="0.598" stop-color="#FF8E9F"/>
<stop offset="0.696" stop-color="#FF9CB3"/>
<stop offset="0.744" stop-color="#FFA6A8"/>
<stop offset="0.829" stop-color="#FEC08C"/>
<stop offset="0.922" stop-color="#FDE366"/>
</radialGradient>
<radialGradient id="paint57_radial_416_195" cx="0" cy="0" r="1" gradientUnits="userSpaceOnUse" gradientTransform="translate(347.197 176.668) scale(27.2378 31.9873)">
<stop offset="0.233" stop-color="#FF7E8A"/>
<stop offset="0.369" stop-color="#FF8A9B"/>
<stop offset="0.598" stop-color="#FF9CB3"/>
<stop offset="0.731" stop-color="#FF9EB0"/>
<stop offset="0.811" stop-color="#FFA6A8"/>
<stop offset="0.878" stop-color="#FEB39A"/>
<stop offset="0.937" stop-color="#FEC685"/>
<stop offset="0.991" stop-color="#FDDE6B"/>
<stop offset="1" stop-color="#FDE366"/>
</radialGradient>
<radialGradient id="paint58_radial_416_195" cx="0" cy="0" r="1" gradientUnits="userSpaceOnUse" gradientTransform="translate(344.875 159.408) scale(42.7663 50.2236)">
<stop offset="0.35" stop-color="#FF7E8A"/>
<stop offset="0.43" stop-color="#FF8290"/>
<stop offset="0.533" stop-color="#FF8E9F"/>
<stop offset="0.622" stop-color="#FF9CB3"/>
<stop offset="0.687" stop-color="#FFA6A8"/>
<stop offset="0.799" stop-color="#FEC08C"/>
<stop offset="0.922" stop-color="#FDE366"/>
</radialGradient>
<radialGradient id="paint59_radial_416_195" cx="0" cy="0" r="1" gradientUnits="userSpaceOnUse" gradientTransform="translate(339.977 146.707) scale(42.0832 49.4215)">
<stop offset="0.29" stop-color="#FF7E8A"/>
<stop offset="0.397" stop-color="#FF8290"/>
<stop offset="0.533" stop-color="#FF8E9F"/>
<stop offset="0.652" stop-color="#FF9CB3"/>
<stop offset="0.71" stop-color="#FFA6A8"/>
<stop offset="0.811" stop-color="#FEC08C"/>
<stop offset="0.922" stop-color="#FDE366"/>
</radialGradient>
<radialGradient id="paint60_radial_416_195" cx="0" cy="0" r="1" gradientUnits="userSpaceOnUse" gradientTransform="translate(342.416 136.697) scale(27.3032 32.0641)">
<stop offset="0.357" stop-color="#FF7E8A"/>
<stop offset="0.445" stop-color="#FF8290"/>
<stop offset="0.557" stop-color="#FF8E9F"/>
<stop offset="0.654" stop-color="#FF9CB3"/>
<stop offset="0.711" stop-color="#FFA6A8"/>
<stop offset="0.81" stop-color="#FEC08C"/>
<stop offset="0.918" stop-color="#FDE366"/>
</radialGradient>
<radialGradient id="paint61_radial_416_195" cx="0" cy="0" r="1" gradientUnits="userSpaceOnUse" gradientTransform="translate(349.532 124.344) scale(39.9454 46.9109)">
<stop offset="0.334" stop-color="#FF7E8A"/>
<stop offset="0.427" stop-color="#FF8290"/>
<stop offset="0.545" stop-color="#FF8E9F"/>
<stop offset="0.648" stop-color="#FF9CB3"/>
<stop offset="0.696" stop-color="#FFA6A8"/>
<stop offset="0.778" stop-color="#FEC08C"/>
<stop offset="0.869" stop-color="#FDE366"/>
</radialGradient>
<radialGradient id="paint62_radial_416_195" cx="0" cy="0" r="1" gradientUnits="userSpaceOnUse" gradientTransform="translate(350.228 112.852) scale(35.3632 41.5296)">
<stop offset="0.272" stop-color="#FF7E8A"/>
<stop offset="0.372" stop-color="#FF8290"/>
<stop offset="0.499" stop-color="#FF8E9F"/>
<stop offset="0.61" stop-color="#FF9CB3"/>
<stop offset="0.677" stop-color="#FFA6A8"/>
<stop offset="0.794" stop-color="#FEC08C"/>
<stop offset="0.922" stop-color="#FDE366"/>
</radialGradient>
<radialGradient id="paint63_radial_416_195" cx="0" cy="0" r="1" gradientUnits="userSpaceOnUse" gradientTransform="translate(368.669 108.116) scale(26.8338 31.5129)">
<stop offset="0.396" stop-color="#FF7E8A"/>
<stop offset="0.758" stop-color="#FF9CB3"/>
<stop offset="0.812" stop-color="#FFA7A7"/>
<stop offset="0.908" stop-color="#FEC389"/>
<stop offset="1" stop-color="#FDE366"/>
</radialGradient>
<radialGradient id="paint64_radial_416_195" cx="0" cy="0" r="1" gradientUnits="userSpaceOnUse" gradientTransform="translate(377.563 98.7344) scale(39.444 46.3221)">
<stop offset="0.666" stop-color="#FF7E8A"/>
<stop offset="0.723" stop-color="#FF8488"/>
<stop offset="0.796" stop-color="#FF9382"/>
<stop offset="0.877" stop-color="#FEAE79"/>
<stop offset="0.965" stop-color="#FDD26C"/>
<stop offset="1" stop-color="#FDE366"/>
</radialGradient>
<radialGradient id="paint65_radial_416_195" cx="0" cy="0" r="1" gradientUnits="userSpaceOnUse" gradientTransform="translate(385.061 95.9764) scale(23.0755 27.0993)">
<stop offset="0.666" stop-color="#FF7E8A"/>
<stop offset="0.723" stop-color="#FF8488"/>
<stop offset="0.796" stop-color="#FF9382"/>
<stop offset="0.877" stop-color="#FEAE79"/>
<stop offset="0.965" stop-color="#FDD26C"/>
<stop offset="1" stop-color="#FDE366"/>
</radialGradient>
<radialGradient id="paint66_radial_416_195" cx="0" cy="0" r="1" gradientUnits="userSpaceOnUse" gradientTransform="translate(392.549 111.195) scale(35.0522 41.1644)">
<stop offset="0.666" stop-color="#FF7E8A"/>
<stop offset="0.723" stop-color="#FF8488"/>
<stop offset="0.796" stop-color="#FF9382"/>
<stop offset="0.877" stop-color="#FEAE79"/>
<stop offset="0.965" stop-color="#FDD26C"/>
<stop offset="1" stop-color="#FDE366"/>
</radialGradient>
<radialGradient id="paint67_radial_416_195" cx="0" cy="0" r="1" gradientUnits="userSpaceOnUse" gradientTransform="translate(405.751 97.7172) scale(40.0399 47.0218)">
<stop offset="0.666" stop-color="#FF7E8A"/>
<stop offset="0.723" stop-color="#FF8488"/>
<stop offset="0.796" stop-color="#FF9382"/>
<stop offset="0.877" stop-color="#FEAE79"/>
<stop offset="0.965" stop-color="#FDD26C"/>
<stop offset="1" stop-color="#FDE366"/>
</radialGradient>
<radialGradient id="paint68_radial_416_195" cx="0" cy="0" r="1" gradientUnits="userSpaceOnUse" gradientTransform="translate(414.802 96.6386) scale(36.8485 43.2739)">
<stop offset="0.666" stop-color="#FF7E8A"/>
<stop offset="0.723" stop-color="#FF8488"/>
<stop offset="0.796" stop-color="#FF9382"/>
<stop offset="0.877" stop-color="#FEAE79"/>
<stop offset="0.965" stop-color="#FDD26C"/>
<stop offset="1" stop-color="#FDE366"/>
</radialGradient>
<radialGradient id="paint69_radial_416_195" cx="0" cy="0" r="1" gradientUnits="userSpaceOnUse" gradientTransform="translate(426.92 109.669) scale(31.7183 37.2491)">
<stop offset="0.109" stop-color="#FF7E8A"/>
<stop offset="0.227" stop-color="#FF8290"/>
<stop offset="0.377" stop-color="#FF8E9F"/>
<stop offset="0.507" stop-color="#FF9CB3"/>
<stop offset="0.613" stop-color="#FFA6A8"/>
<stop offset="0.798" stop-color="#FEC08C"/>
<stop offset="1" stop-color="#FDE366"/>
</radialGradient>
<radialGradient id="paint70_radial_416_195" cx="0" cy="0" r="1" gradientUnits="userSpaceOnUse" gradientTransform="translate(263.377 285.765) scale(13.8418 15.4705)">
<stop stop-color="#FEB1DA"/>
<stop offset="0.447" stop-color="#F086D2"/>
<stop offset="0.993" stop-color="#DD4CC8"/>
</radialGradient>
<radialGradient id="paint71_radial_416_195" cx="0" cy="0" r="1" gradientUnits="userSpaceOnUse" gradientTransform="translate(268.509 289.405) scale(15.2593 17.0549)">
<stop stop-color="#FEB1DA"/>
<stop offset="0.447" stop-color="#F086D2"/>
<stop offset="0.993" stop-color="#DD4CC8"/>
</radialGradient>
<radialGradient id="paint72_radial_416_195" cx="0" cy="0" r="1" gradientUnits="userSpaceOnUse" gradientTransform="translate(270.296 294.563) scale(12.7843 14.2886)">
<stop stop-color="#FEB1DA"/>
<stop offset="0.447" stop-color="#F086D2"/>
<stop offset="0.993" stop-color="#DD4CC8"/>
</radialGradient>
<radialGradient id="paint73_radial_416_195" cx="0" cy="0" r="1" gradientUnits="userSpaceOnUse" gradientTransform="translate(271.446 301.095) scale(9.22547 10.311)">
<stop stop-color="#FEB1DA"/>
<stop offset="0.447" stop-color="#F086D2"/>
<stop offset="0.993" stop-color="#DD4CC8"/>
</radialGradient>
<radialGradient id="paint74_radial_416_195" cx="0" cy="0" r="1" gradientUnits="userSpaceOnUse" gradientTransform="translate(265.099 301.075) scale(21.9728 24.5583)">
<stop stop-color="#FEB1DA"/>
<stop offset="0.447" stop-color="#F086D2"/>
<stop offset="0.993" stop-color="#DD4CC8"/>
</radialGradient>
<radialGradient id="paint75_radial_416_195" cx="0" cy="0" r="1" gradientUnits="userSpaceOnUse" gradientTransform="translate(258.476 305.647) scale(16.665 18.6259)">
<stop stop-color="#FEB1DA"/>
<stop offset="0.447" stop-color="#F086D2"/>
<stop offset="0.993" stop-color="#DD4CC8"/>
</radialGradient>
<radialGradient id="paint76_radial_416_195" cx="0" cy="0" r="1" gradientUnits="userSpaceOnUse" gradientTransform="translate(252.071 299.857) scale(19.3547 21.6321)">
<stop stop-color="#FEB1DA"/>
<stop offset="0.447" stop-color="#F086D2"/>
<stop offset="0.993" stop-color="#DD4CC8"/>
</radialGradient>
<radialGradient id="paint77_radial_416_195" cx="0" cy="0" r="1" gradientUnits="userSpaceOnUse" gradientTransform="translate(247.021 298.483) scale(11.0913 12.3964)">
<stop stop-color="#FEB1DA"/>
<stop offset="0.447" stop-color="#F086D2"/>
<stop offset="0.993" stop-color="#DD4CC8"/>
</radialGradient>
<radialGradient id="paint78_radial_416_195" cx="0" cy="0" r="1" gradientUnits="userSpaceOnUse" gradientTransform="translate(248.548 294.493) scale(14.9649 16.7258)">
<stop stop-color="#FEB1DA"/>
<stop offset="0.447" stop-color="#F086D2"/>
<stop offset="0.993" stop-color="#DD4CC8"/>
</radialGradient>
<radialGradient id="paint79_radial_416_195" cx="0" cy="0" r="1" gradientUnits="userSpaceOnUse" gradientTransform="translate(251.551 285.164) scale(12.9321 14.4538)">
<stop stop-color="#FEB1DA"/>
<stop offset="0.447" stop-color="#F086D2"/>
<stop offset="0.993" stop-color="#DD4CC8"/>
</radialGradient>
<radialGradient id="paint80_radial_416_195" cx="0" cy="0" r="1" gradientUnits="userSpaceOnUse" gradientTransform="translate(258.553 283.764) scale(11.8138 13.2039)">
<stop stop-color="#FEB1DA"/>
<stop offset="0.447" stop-color="#F086D2"/>
<stop offset="0.993" stop-color="#DD4CC8"/>
</radialGradient>
<radialGradient id="paint81_radial_416_195" cx="0" cy="0" r="1" gradientUnits="userSpaceOnUse" gradientTransform="translate(291.763 274.045) scale(28.5396 31.8978)">
<stop offset="0.223" stop-color="#FF7E8A"/>
<stop offset="0.337" stop-color="#FF8290"/>
<stop offset="0.483" stop-color="#FF8E9F"/>
<stop offset="0.61" stop-color="#FF9CB3"/>
<stop offset="0.694" stop-color="#FFA6A8"/>
<stop offset="0.84" stop-color="#FEC08C"/>
<stop offset="1" stop-color="#FDE366"/>
</radialGradient>
<radialGradient id="paint82_radial_416_195" cx="0" cy="0" r="1" gradientUnits="userSpaceOnUse" gradientTransform="translate(297.699 284.905) scale(13.3136 14.8802)">
<stop offset="0.396" stop-color="#FF7E8A"/>
<stop offset="0.575" stop-color="#FF8290"/>
<stop offset="0.802" stop-color="#FF8E9F"/>
<stop offset="1" stop-color="#FF9CB3"/>
</radialGradient>
<radialGradient id="paint83_radial_416_195" cx="0" cy="0" r="1" gradientUnits="userSpaceOnUse" gradientTransform="translate(294.705 293.4) scale(27.488 30.7226)">
<stop offset="0.309" stop-color="#FF7E8A"/>
<stop offset="0.397" stop-color="#FF8290"/>
<stop offset="0.508" stop-color="#FF8E9F"/>
<stop offset="0.605" stop-color="#FF9CB3"/>
<stop offset="0.69" stop-color="#FFA6A8"/>
<stop offset="0.838" stop-color="#FEC08C"/>
<stop offset="1" stop-color="#FDE366"/>
</radialGradient>
<radialGradient id="paint84_radial_416_195" cx="0" cy="0" r="1" gradientUnits="userSpaceOnUse" gradientTransform="translate(302.736 304.477) scale(29.2943 32.7413)">
<stop offset="0.316" stop-color="#FF7E8A"/>
<stop offset="0.405" stop-color="#FF8290"/>
<stop offset="0.518" stop-color="#FF8E9F"/>
<stop offset="0.617" stop-color="#FF9CB3"/>
<stop offset="0.699" stop-color="#FFA6A8"/>
<stop offset="0.843" stop-color="#FEC08C"/>
<stop offset="1" stop-color="#FDE366"/>
</radialGradient>
<radialGradient id="paint85_radial_416_195" cx="0" cy="0" r="1" gradientUnits="userSpaceOnUse" gradientTransform="translate(304.755 318.385) scale(22.3114 24.9368)">
<stop offset="0.178" stop-color="#FF7E8A"/>
<stop offset="0.286" stop-color="#FF8290"/>
<stop offset="0.423" stop-color="#FF8E9F"/>
<stop offset="0.543" stop-color="#FF9CB3"/>
<stop offset="0.611" stop-color="#FFA6A8"/>
<stop offset="0.73" stop-color="#FEC08C"/>
<stop offset="0.861" stop-color="#FDE366"/>
</radialGradient>
<radialGradient id="paint86_radial_416_195" cx="0" cy="0" r="1" gradientUnits="userSpaceOnUse" gradientTransform="translate(292.957 319.237) scale(40.9412 45.7587)">
<stop stop-color="#FF7E8A"/>
<stop offset="0.158" stop-color="#FF8290"/>
<stop offset="0.36" stop-color="#FF8E9F"/>
<stop offset="0.536" stop-color="#FF9CB3"/>
<stop offset="0.62" stop-color="#FFA6A8"/>
<stop offset="0.768" stop-color="#FEC18B"/>
<stop offset="0.922" stop-color="#FDE366"/>
</radialGradient>
<radialGradient id="paint87_radial_416_195" cx="0" cy="0" r="1" gradientUnits="userSpaceOnUse" gradientTransform="translate(280.074 317.726) scale(36.661 40.975)">
<stop offset="0.304" stop-color="#FF7E8A"/>
<stop offset="0.348" stop-color="#FF818E"/>
<stop offset="0.756" stop-color="#FF9CB3"/>
<stop offset="0.804" stop-color="#FFA3AC"/>
<stop offset="0.876" stop-color="#FEB598"/>
<stop offset="0.961" stop-color="#FDD377"/>
<stop offset="1" stop-color="#FDE366"/>
</radialGradient>
<radialGradient id="paint88_radial_416_195" cx="0" cy="0" r="1" gradientUnits="userSpaceOnUse" gradientTransform="translate(272.817 343.4) scale(21.5197 24.052)">
<stop offset="0.126" stop-color="#FF7E8A"/>
<stop offset="0.302" stop-color="#FF8A9B"/>
<stop offset="0.598" stop-color="#FF9CB3"/>
<stop offset="0.731" stop-color="#FF9EB0"/>
<stop offset="0.811" stop-color="#FFA6A8"/>
<stop offset="0.878" stop-color="#FEB39A"/>
<stop offset="0.937" stop-color="#FEC685"/>
<stop offset="0.991" stop-color="#FDDE6B"/>
<stop offset="1" stop-color="#FDE366"/>
</radialGradient>
<radialGradient id="paint89_radial_416_195" cx="0" cy="0" r="1" gradientUnits="userSpaceOnUse" gradientTransform="translate(254.401 336.467) scale(20.9534 23.419)">
<stop offset="0.126" stop-color="#FF7E8A"/>
<stop offset="0.302" stop-color="#FF8A9B"/>
<stop offset="0.598" stop-color="#FF9CB3"/>
<stop offset="0.731" stop-color="#FF9EB0"/>
<stop offset="0.811" stop-color="#FFA6A8"/>
<stop offset="0.878" stop-color="#FEB39A"/>
<stop offset="0.937" stop-color="#FEC685"/>
<stop offset="0.991" stop-color="#FDDE6B"/>
<stop offset="1" stop-color="#FDE366"/>
</radialGradient>
<radialGradient id="paint90_radial_416_195" cx="0" cy="0" r="1" gradientUnits="userSpaceOnUse" gradientTransform="translate(240.701 332.949) scale(28.1688 31.4834)">
<stop offset="0.318" stop-color="#FF7E8A"/>
<stop offset="0.53" stop-color="#FF93A7"/>
<stop offset="0.612" stop-color="#FF9CB3"/>
<stop offset="0.699" stop-color="#FFAAA4"/>
<stop offset="0.866" stop-color="#FECF7B"/>
<stop offset="0.945" stop-color="#FDE366"/>
</radialGradient>
<radialGradient id="paint91_radial_416_195" cx="0" cy="0" r="1" gradientUnits="userSpaceOnUse" gradientTransform="translate(228.336 326.665) scale(27.4165 30.6426)">
<stop offset="0.396" stop-color="#FF7E8A"/>
<stop offset="0.485" stop-color="#FF8290"/>
<stop offset="0.598" stop-color="#FF8E9F"/>
<stop offset="0.696" stop-color="#FF9CB3"/>
<stop offset="0.744" stop-color="#FFA6A8"/>
<stop offset="0.829" stop-color="#FEC08C"/>
<stop offset="0.922" stop-color="#FDE366"/>
</radialGradient>
<radialGradient id="paint92_radial_416_195" cx="0" cy="0" r="1" gradientUnits="userSpaceOnUse" gradientTransform="translate(223.977 320.992) scale(22.3448 24.9741)">
<stop offset="0.233" stop-color="#FF7E8A"/>
<stop offset="0.369" stop-color="#FF8A9B"/>
<stop offset="0.598" stop-color="#FF9CB3"/>
<stop offset="0.731" stop-color="#FF9EB0"/>
<stop offset="0.811" stop-color="#FFA6A8"/>
<stop offset="0.878" stop-color="#FEB39A"/>
<stop offset="0.937" stop-color="#FEC685"/>
<stop offset="0.991" stop-color="#FDDE6B"/>
<stop offset="1" stop-color="#FDE366"/>
</radialGradient>
<radialGradient id="paint93_radial_416_195" cx="0" cy="0" r="1" gradientUnits="userSpaceOnUse" gradientTransform="translate(222.071 307.517) scale(35.0837 39.212)">
<stop offset="0.35" stop-color="#FF7E8A"/>
<stop offset="0.43" stop-color="#FF8290"/>
<stop offset="0.533" stop-color="#FF8E9F"/>
<stop offset="0.622" stop-color="#FF9CB3"/>
<stop offset="0.687" stop-color="#FFA6A8"/>
<stop offset="0.799" stop-color="#FEC08C"/>
<stop offset="0.922" stop-color="#FDE366"/>
</radialGradient>
<radialGradient id="paint94_radial_416_195" cx="0" cy="0" r="1" gradientUnits="userSpaceOnUse" gradientTransform="translate(218.054 297.6) scale(34.5234 38.5857)">
<stop offset="0.29" stop-color="#FF7E8A"/>
<stop offset="0.397" stop-color="#FF8290"/>
<stop offset="0.533" stop-color="#FF8E9F"/>
<stop offset="0.652" stop-color="#FF9CB3"/>
<stop offset="0.71" stop-color="#FFA6A8"/>
<stop offset="0.811" stop-color="#FEC08C"/>
<stop offset="0.922" stop-color="#FDE366"/>
</radialGradient>
<radialGradient id="paint95_radial_416_195" cx="0" cy="0" r="1" gradientUnits="userSpaceOnUse" gradientTransform="translate(220.054 289.785) scale(22.3984 25.034)">
<stop offset="0.357" stop-color="#FF7E8A"/>
<stop offset="0.445" stop-color="#FF8290"/>
<stop offset="0.557" stop-color="#FF8E9F"/>
<stop offset="0.654" stop-color="#FF9CB3"/>
<stop offset="0.711" stop-color="#FFA6A8"/>
<stop offset="0.81" stop-color="#FEC08C"/>
<stop offset="0.918" stop-color="#FDE366"/>
</radialGradient>
<radialGradient id="paint96_radial_416_195" cx="0" cy="0" r="1" gradientUnits="userSpaceOnUse" gradientTransform="translate(225.891 280.14) scale(32.7696 36.6256)">
<stop offset="0.334" stop-color="#FF7E8A"/>
<stop offset="0.427" stop-color="#FF8290"/>
<stop offset="0.545" stop-color="#FF8E9F"/>
<stop offset="0.648" stop-color="#FF9CB3"/>
<stop offset="0.696" stop-color="#FFA6A8"/>
<stop offset="0.778" stop-color="#FEC08C"/>
<stop offset="0.869" stop-color="#FDE366"/>
</radialGradient>
<radialGradient id="paint97_radial_416_195" cx="0" cy="0" r="1" gradientUnits="userSpaceOnUse" gradientTransform="translate(226.462 271.168) scale(29.0105 32.4242)">
<stop offset="0.272" stop-color="#FF7E8A"/>
<stop offset="0.372" stop-color="#FF8290"/>
<stop offset="0.499" stop-color="#FF8E9F"/>
<stop offset="0.61" stop-color="#FF9CB3"/>
<stop offset="0.677" stop-color="#FFA6A8"/>
<stop offset="0.794" stop-color="#FEC08C"/>
<stop offset="0.922" stop-color="#FDE366"/>
</radialGradient>
<radialGradient id="paint98_radial_416_195" cx="0" cy="0" r="1" gradientUnits="userSpaceOnUse" gradientTransform="translate(241.591 267.47) scale(22.0133 24.6036)">
<stop offset="0.396" stop-color="#FF7E8A"/>
<stop offset="0.758" stop-color="#FF9CB3"/>
<stop offset="0.812" stop-color="#FFA7A7"/>
<stop offset="0.908" stop-color="#FEC389"/>
<stop offset="1" stop-color="#FDE366"/>
</radialGradient>
<radialGradient id="paint99_radial_416_195" cx="0" cy="0" r="1" gradientUnits="userSpaceOnUse" gradientTransform="translate(248.887 260.146) scale(32.3583 36.1659)">
<stop offset="0.666" stop-color="#FF7E8A"/>
<stop offset="0.723" stop-color="#FF8488"/>
<stop offset="0.796" stop-color="#FF9382"/>
<stop offset="0.877" stop-color="#FEAE79"/>
<stop offset="0.965" stop-color="#FDD26C"/>
<stop offset="1" stop-color="#FDE366"/>
</radialGradient>
<radialGradient id="paint100_radial_416_195" cx="0" cy="0" r="1" gradientUnits="userSpaceOnUse" gradientTransform="translate(255.038 257.992) scale(18.9302 21.1577)">
<stop offset="0.666" stop-color="#FF7E8A"/>
<stop offset="0.723" stop-color="#FF8488"/>
<stop offset="0.796" stop-color="#FF9382"/>
<stop offset="0.877" stop-color="#FEAE79"/>
<stop offset="0.965" stop-color="#FDD26C"/>
<stop offset="1" stop-color="#FDE366"/>
</radialGradient>
<radialGradient id="paint101_radial_416_195" cx="0" cy="0" r="1" gradientUnits="userSpaceOnUse" gradientTransform="translate(261.181 269.874) scale(28.7554 32.139)">
<stop offset="0.666" stop-color="#FF7E8A"/>
<stop offset="0.723" stop-color="#FF8488"/>
<stop offset="0.796" stop-color="#FF9382"/>
<stop offset="0.877" stop-color="#FEAE79"/>
<stop offset="0.965" stop-color="#FDD26C"/>
<stop offset="1" stop-color="#FDE366"/>
</radialGradient>
<radialGradient id="paint102_radial_416_195" cx="0" cy="0" r="1" gradientUnits="userSpaceOnUse" gradientTransform="translate(272.011 259.351) scale(32.8471 36.7122)">
<stop offset="0.666" stop-color="#FF7E8A"/>
<stop offset="0.723" stop-color="#FF8488"/>
<stop offset="0.796" stop-color="#FF9382"/>
<stop offset="0.877" stop-color="#FEAE79"/>
<stop offset="0.965" stop-color="#FDD26C"/>
<stop offset="1" stop-color="#FDE366"/>
</radialGradient>
<radialGradient id="paint103_radial_416_195" cx="0" cy="0" r="1" gradientUnits="userSpaceOnUse" gradientTransform="translate(279.437 258.509) scale(30.229 33.786)">
<stop offset="0.666" stop-color="#FF7E8A"/>
<stop offset="0.723" stop-color="#FF8488"/>
<stop offset="0.796" stop-color="#FF9382"/>
<stop offset="0.877" stop-color="#FEAE79"/>
<stop offset="0.965" stop-color="#FDD26C"/>
<stop offset="1" stop-color="#FDE366"/>
</radialGradient>
<radialGradient id="paint104_radial_416_195" cx="0" cy="0" r="1" gradientUnits="userSpaceOnUse" gradientTransform="translate(289.377 268.683) scale(26.0204 29.0822)">
<stop offset="0.109" stop-color="#FF7E8A"/>
<stop offset="0.227" stop-color="#FF8290"/>
<stop offset="0.377" stop-color="#FF8E9F"/>
<stop offset="0.507" stop-color="#FF9CB3"/>
<stop offset="0.613" stop-color="#FFA6A8"/>
<stop offset="0.798" stop-color="#FEC08C"/>
<stop offset="1" stop-color="#FDE366"/>
</radialGradient>
</defs>
</svg>
