<svg width="420" height="320" viewBox="0 0 420 320" fill="none" xmlns="http://www.w3.org/2000/svg">
<path d="M75 150C116.421 150 150 116.421 150 75C150 33.5786 116.421 0 75 0C33.5786 0 0 33.5786 0 75C0 116.421 33.5786 150 75 150Z" fill="#FFDD67"/>
<path d="M66.2506 64.75C61.5006 52 54.5006 45.5 47.5006 45.5C40.5006 45.5 33.5006 52 28.7506 64.75C28.2506 66 30.7506 68.25 32.0006 67C36.5006 62.25 42.0006 60.25 47.5006 60.25C53.0006 60.25 58.5006 62.25 63.0006 67C64.5006 68.5 66.7506 66 66.2506 64.75ZM121.001 64.75C116.251 52 109.251 45.5 102.251 45.5C95.2506 45.5 88.2506 52 83.5006 64.75C83.0006 66 85.5006 68.25 86.7506 67C91.2506 62.25 96.7506 60.25 102.251 60.25C107.751 60.25 113.251 62.25 117.751 67C119.001 68.5 121.501 66 121.001 64.75ZM130.001 88.5C130.001 86.5 128.501 84 124.001 83.25C113.001 81.75 96.2506 80 75.0006 80C53.7506 80 37.0006 81.75 26.0006 83.25C21.7506 84 20.0006 86.5 20.0006 88.5C20.0006 112.5 28.7506 120 64.5006 120H85.5006C121.251 120 130.001 112.5 130.001 88.5Z" fill="#664E27"/>
<path d="M117.25 90.5C117.75 89.25 117 88 116 87.75C116 87.75 97.4996 85 74.9996 85C52.4996 85 33.9996 87.75 33.9996 87.75C32.7496 88 32.2496 89.25 32.7496 90.5L35.4996 97.75C35.9996 99 37.4996 100 38.7496 100H111.5C112.75 100 114.25 99 114.75 97.75L117.25 90.5M74.9996 115C90.9996 115 113.75 115 113 109.75C113 108.75 112.75 107.75 112.25 106.5C111.75 105.25 111.5 104.75 108.75 104.75H40.9996C38.2496 104.75 37.9996 105 37.4996 106.5C37.2496 107.75 36.9996 108.75 36.7496 109.75C36.2496 115 58.9996 115 74.9996 115Z" fill="white"/>
<path d="M361.194 91.7174C349.584 87.9114 352.889 84.8817 363.969 80.5591C369.277 78.4847 366.049 74.1102 366.194 70.6106C366.259 69.0087 372.324 69.3281 371.884 63.1492C371.574 58.798 362.344 52.5983 359.829 49.9528C358.377 48.4263 362.789 44.2491 359.682 40.5755C355.439 35.5545 354.769 26.8184 352.202 21.9324C352.202 21.9324 354.159 18.8274 352.659 17.062C339.719 1.85103 291.431 3.24777 279.09 25.6345C265.238 50.7654 265.053 85.4996 293.856 104.213C306.666 112.533 290.258 142 290.258 142H341.056C341.056 136.969 335.391 118.92 345.306 119.73C353.922 120.434 364.472 120.047 363.537 109.943C363.254 106.895 362.922 104.15 364.972 101.624C367.022 99.1009 369.989 94.5992 361.194 91.7174ZM372.822 86.9742L420 93.3919V80.5591L372.822 86.9742ZM411.15 129.229L416.21 118.115L372.822 93.7943L411.15 129.229ZM416.21 55.7189L411.15 44.6021L372.822 80.0424L416.21 55.7189Z" fill="#699BF7"/>
<path d="M177.581 317.304C158.233 317.304 142.508 291.597 142.508 260C142.508 228.403 158.245 202.696 177.581 202.696C196.918 202.696 212.655 228.403 212.655 260C212.655 291.597 196.918 317.304 177.581 317.304V317.304Z" fill="#FAFAFA"/>
<path d="M177.581 205.392C185.895 205.392 193.858 210.784 199.99 220.584C206.536 231.031 210.147 245.037 210.147 260C210.147 274.963 206.536 288.969 199.99 299.416C193.858 309.216 185.895 314.608 177.581 314.608C169.268 314.608 161.305 309.216 155.173 299.416C148.615 288.969 145.016 274.963 145.016 260C145.016 245.037 148.627 231.031 155.173 220.584C161.305 210.784 169.255 205.392 177.581 205.392M177.581 200C156.828 200 140 226.866 140 260C140 293.134 156.828 320 177.581 320C198.335 320 215.163 293.134 215.163 260C215.163 226.866 198.335 200 177.581 200V200Z" fill="#B0BEC5"/>
<path d="M166.885 254.392C163.5 250.968 164.252 244.174 168.591 239.214C168.816 238.958 169.042 238.715 169.28 238.486C167.349 237.313 165.23 236.652 162.998 236.652C153.982 236.652 146.671 247.342 146.671 260.512C146.671 273.682 153.982 284.372 162.998 284.372C172.014 284.372 179.325 273.682 179.325 260.512C179.325 258.153 179.086 255.862 178.648 253.705C174.585 256.846 169.732 257.264 166.885 254.392V254.392Z" fill="url(#paint0_linear_414_28)"/>
<path d="M252.419 320C273.174 320 290 293.137 290 260C290 226.863 273.174 200 252.419 200C231.663 200 214.837 226.863 214.837 260C214.837 293.137 231.663 320 252.419 320Z" fill="#EEEEEE"/>
<path d="M252.419 317.304C233.082 317.304 217.345 291.597 217.345 260C217.345 228.403 233.082 202.696 252.419 202.696C271.755 202.696 287.492 228.403 287.492 260C287.492 291.597 271.767 317.304 252.419 317.304V317.304Z" fill="#FAFAFA"/>
<path d="M252.419 205.392C260.732 205.392 268.695 210.784 274.827 220.584C281.373 231.031 284.984 245.037 284.984 260C284.984 274.963 281.373 288.969 274.827 299.416C268.695 309.216 260.732 314.608 252.419 314.608C244.105 314.608 236.142 309.216 230.01 299.416C223.464 288.969 219.853 274.963 219.853 260C219.853 245.037 223.464 231.031 230.01 220.584C236.142 210.784 244.105 205.392 252.419 205.392M252.419 200C231.665 200 214.837 226.866 214.837 260C214.837 293.134 231.665 320 252.419 320C273.172 320 290 293.134 290 260C290 226.866 273.172 200 252.419 200V200Z" fill="#B0BEC5"/>
<path d="M241.722 254.392C238.336 250.968 239.089 244.174 243.428 239.214C243.653 238.958 243.879 238.715 244.117 238.486C242.186 237.313 240.067 236.652 237.835 236.652C228.819 236.652 221.508 247.342 221.508 260.512C221.508 273.682 228.819 284.372 237.835 284.372C246.851 284.372 254.162 273.682 254.162 260.512C254.162 258.153 253.923 255.862 253.484 253.705C249.434 256.846 244.569 257.264 241.722 254.392V254.392Z" fill="url(#paint1_linear_414_28)"/>
<defs>
<linearGradient id="paint0_linear_414_28" x1="162.989" y1="236.647" x2="162.989" y2="284.376" gradientUnits="userSpaceOnUse">
<stop stop-color="#424242"/>
<stop offset="1" stop-color="#212121"/>
</linearGradient>
<linearGradient id="paint1_linear_414_28" x1="237.834" y1="236.647" x2="237.834" y2="284.376" gradientUnits="userSpaceOnUse">
<stop stop-color="#424242"/>
<stop offset="1" stop-color="#212121"/>
</linearGradient>
</defs>
</svg>
