<svg width="722" height="488" viewBox="0 0 722 488" fill="none" xmlns="http://www.w3.org/2000/svg">
<path d="M8 56.8411C8 46.3124 8 34.5695 8 28.3179C8 14.6424 17.8577 8 33.8178 8H51.8903H69.9628" stroke="#D1E3FE" stroke-width="15"/>
<path d="M714 430.768C714 441.297 714 447.2 714 457.729C714 470.676 703.737 479.609 688.182 479.609H670.11H652.037" stroke="#D1E3FE" stroke-width="15"/>
<path d="M68.5545 480C55.9056 480 48.8139 480 36.1649 480C20.6099 480 9.87769 471.458 9.87769 458.51L9.87769 443.467L9.87769 428.424" stroke="#D1E3FE" stroke-width="15"/>
<path d="M654.854 8C667.503 8 674.594 8 687.243 8C702.798 8 713.531 16.5425 713.531 29.4901V44.5331V59.5762" stroke="#D1E3FE" stroke-width="15"/>
<path d="M656.2 52H73.8C64.5216 52 57 58.2517 57 65.9636V422.036C57 429.748 64.5216 436 73.8 436H656.2C665.478 436 673 429.748 673 422.036V65.9636C673 58.2517 665.478 52 656.2 52Z" fill="#F3F5F8"/>
<path d="M57 63.6364C57 57.2098 64.5216 52 73.8 52H656.2C665.479 52 673 57.2098 673 63.6364V98.5455H57V63.6364Z" fill="#E0E7EC"/>
<path d="M593.966 176H136.034C129.94 176 125 180.904 125 186.952V395.048C125 401.096 129.94 406 136.034 406H593.966C600.06 406 605 401.096 605 395.048V186.952C605 180.904 600.06 176 593.966 176Z" fill="#EAFFF6"/>
<circle cx="97" cy="75" r="7" fill="#F54B23"/>
<circle cx="125" cy="75" r="7" fill="#F7C02B"/>
<circle cx="153" cy="75.2485" r="7" fill="#1EC103"/>
<rect x="125" y="120" width="480" height="32" rx="5" fill="#C6DDFF"/>
<path d="M261.169 139.716C259.849 139.716 259.009 138.516 259.009 136.524C259.009 134.616 259.849 133.476 261.169 133.476C262.489 133.476 263.329 134.616 263.329 136.524C263.329 138.516 262.489 139.716 261.169 139.716ZM264.037 143.412C264.685 143.412 265.225 143.292 265.537 143.148L265.213 141.84C264.961 141.924 264.625 141.984 264.241 141.984C263.437 141.984 262.633 141.708 262.225 141.036C263.989 140.58 265.141 138.948 265.141 136.524C265.141 133.644 263.521 131.952 261.169 131.952C258.817 131.952 257.197 133.632 257.197 136.524C257.197 139.056 258.457 140.736 260.353 141.096C260.965 142.44 262.225 143.412 264.037 143.412ZM266.767 141H272.107V139.572H270.439V132.348H269.131C268.567 132.696 267.955 132.924 267.067 133.092V134.184H268.675V139.572H266.767V141ZM274.794 141.168C275.43 141.168 275.898 140.664 275.898 140.016C275.898 139.356 275.43 138.864 274.794 138.864C274.17 138.864 273.702 139.356 273.702 140.016C273.702 140.664 274.17 141.168 274.794 141.168ZM280.491 132.108V133.392H284.103C283.815 135.84 282.447 137.592 279.879 138.912L280.767 140.124C284.439 138.264 285.699 135.42 285.699 132.108H280.491ZM290.187 135.192H288.639V130.968H287.055V142.008H288.639V136.5H290.187V135.192ZM297.614 135.996C295.874 135.48 295.118 134.244 295.094 132.984H297.254V131.712H291.278V132.984H293.474C293.45 134.364 292.658 135.768 290.87 136.368L291.662 137.604C292.958 137.184 293.834 136.308 294.326 135.216C294.806 136.128 295.646 136.86 296.858 137.22L297.614 135.996ZM296.114 140.82C294.698 140.82 293.942 140.52 293.942 139.896C293.942 139.26 294.698 138.96 296.114 138.96C297.518 138.96 298.274 139.26 298.274 139.896C298.274 140.52 297.518 140.82 296.114 140.82ZM296.114 137.736C293.81 137.736 292.37 138.54 292.37 139.896C292.37 141.24 293.81 142.032 296.114 142.032C298.406 142.032 299.846 141.24 299.846 139.896C299.846 138.54 298.406 137.736 296.114 137.736ZM299.726 133.524V130.98H298.142V137.544H299.726V134.82H301.19V133.524H299.726ZM306.04 132.12V133.38H309.724C309.496 135.828 308.272 137.556 305.452 138.912L306.28 140.16C310.204 138.264 311.344 135.504 311.344 132.12H306.04ZM313.036 130.968V142.02H314.632V130.968H313.036ZM318.183 139.272H324.123V142.044H325.707V138.024H318.183V139.272ZM319.515 135.684C318.723 135.684 318.123 135.168 318.123 134.292C318.123 133.416 318.723 132.912 319.515 132.912C320.319 132.912 320.931 133.416 320.931 134.292C320.931 135.168 320.319 135.684 319.515 135.684ZM324.123 130.98V133.656H322.371C322.071 132.42 320.931 131.556 319.515 131.556C317.883 131.556 316.611 132.708 316.611 134.292C316.611 135.888 317.883 137.04 319.515 137.04C320.931 137.04 322.071 136.188 322.371 134.928H324.123V137.532H325.707V130.98H324.123ZM329.99 138.3C329.39 138.3 329.03 137.472 329.03 135.768C329.03 134.076 329.39 133.248 329.99 133.248C330.602 133.248 330.95 134.076 330.95 135.768C330.95 137.472 330.602 138.3 329.99 138.3ZM333.242 135.048H332.366C332.186 132.984 331.298 131.76 329.99 131.76C328.526 131.76 327.602 133.272 327.602 135.768C327.602 138.276 328.526 139.788 329.99 139.788C331.334 139.788 332.234 138.492 332.378 136.332H333.242V141.54H334.718V131.16H333.242V135.048ZM335.486 130.968V142.02H336.986V130.968H335.486ZM348.161 134.916C346.673 135.204 345.257 135.312 343.937 135.336V131.496H342.353V136.656H343.289C344.849 136.656 346.541 136.548 348.341 136.188L348.161 134.916ZM344.969 138.948H349.061V140.664H344.969V138.948ZM343.409 141.9H350.609V137.712H343.409V141.9ZM352.073 133.308H350.609V130.98H349.025V137.196H350.609V134.604H352.073V133.308ZM361.852 133.968H355.768V131.376H354.184V135.228H361.852V133.968ZM355.672 138.504H354.076V141.792H361.912V140.532H355.672V138.504ZM352.948 136.356V137.628H362.956V136.356H352.948ZM376.842 134.544C374.406 134.208 373.158 132.828 373.158 131.616V131.268H371.526V131.616C371.526 132.864 370.29 134.232 367.854 134.568L368.442 135.816C370.302 135.516 371.658 134.664 372.354 133.536C373.05 134.652 374.394 135.492 376.242 135.78L376.842 134.544ZM370.086 138.612H368.502V141.84H376.242V140.58H370.086V138.612ZM367.338 136.416V137.664H371.694V139.548H373.278V137.664H377.358V136.416H367.338ZM378.785 131.808V133.068H382.385C382.133 134.616 380.765 135.9 378.305 136.572L378.965 137.832C382.253 136.884 384.101 134.808 384.101 131.808H378.785ZM381.533 138.096H379.949V141.84H387.461V140.58H381.533V138.096ZM387.077 134.064V130.98H385.493V138.888H387.077V135.36H388.553V134.064H387.077ZM394.42 132.3C396.028 132.3 396.784 132.528 396.784 133.02C396.784 133.536 396.028 133.752 394.42 133.752C392.824 133.752 392.068 133.536 392.068 133.02C392.068 132.528 392.824 132.3 394.42 132.3ZM394.42 134.904C396.952 134.904 398.428 134.244 398.428 133.02C398.428 131.808 396.952 131.136 394.42 131.136C391.9 131.136 390.424 131.808 390.424 133.02C390.424 134.244 391.9 134.904 394.42 134.904ZM392.152 140.136H398.2V137.292H390.568V138.456H396.64V139.044H390.58V141.948H398.488V140.76H392.152V140.136ZM389.428 135.432V136.668H399.412V135.432H389.428ZM407.862 134.844H405.702V132.732H407.862V134.844ZM409.422 131.496H404.154V136.092H409.422V131.496ZM406.818 139.956H412.53V136.932H405.234V138.156H410.97V138.816H405.246V141.9H412.854V140.676H406.818V139.956ZM412.53 133.104V130.98H410.946V136.5H412.53V134.4H413.982V133.104H412.53ZM424.782 134.22C423.342 133.776 422.766 132.732 422.766 131.676V131.208H421.17V131.676C421.17 132.528 420.798 133.428 419.862 133.992C418.926 133.416 418.542 132.504 418.542 131.676V131.208H416.97V131.676C416.97 132.696 416.382 133.764 414.942 134.22L415.674 135.372C416.694 135.036 417.354 134.388 417.738 133.608C418.122 134.448 418.782 135.156 419.862 135.516C420.942 135.156 421.602 134.448 421.974 133.608C422.358 134.4 423.03 135.036 424.062 135.372L424.782 134.22ZM417.582 139.308H422.106V140.664H417.582V139.308ZM416.034 141.9H423.666V138.06H416.034V141.9ZM414.87 136.008V137.256H424.866V136.008H414.87ZM428.561 138.336C427.961 138.336 427.529 137.856 427.529 137.028C427.529 136.2 427.961 135.708 428.561 135.708C429.161 135.708 429.593 136.2 429.593 137.028C429.593 137.856 429.161 138.336 428.561 138.336ZM428.561 134.388C427.145 134.388 426.137 135.48 426.137 137.028C426.137 138.564 427.145 139.656 428.561 139.656C429.977 139.656 430.985 138.564 430.985 137.028C430.985 135.48 429.977 134.388 428.561 134.388ZM429.341 131.28H427.781V132.648H425.897V133.908H431.177V132.648H429.341V131.28ZM433.889 130.968V135.48H433.049V131.184H431.573V141.564H433.049V136.752H433.889V142.02H435.389V130.968H433.889ZM438.004 136.452C439.936 136.188 441.292 135.36 441.952 134.232C442.612 135.36 443.968 136.188 445.9 136.452L446.464 135.216C444.22 134.94 443.056 133.86 442.9 132.804H446.032V131.544H437.836V132.804H441.016C440.86 133.86 439.684 134.94 437.428 135.216L438.004 136.452ZM446.944 137.088H436.96V138.348H441.124V142.056H442.708V138.348H446.944V137.088ZM451.515 131.94H449.991V133.8C449.991 135.684 449.403 137.664 447.783 138.648L448.731 139.836C449.727 139.236 450.375 138.18 450.759 136.956C451.107 138.072 451.695 139.008 452.631 139.584L453.495 138.36C451.995 137.364 451.515 135.528 451.515 133.74V131.94ZM453.723 134.712H452.331V135.996H453.723V141.54H455.199V131.16H453.723V134.712ZM455.967 130.98V142.032H457.467V130.98H455.967ZM462.806 137.352C463.19 137.424 463.586 137.46 464.018 137.46C464.45 137.46 464.858 137.424 465.242 137.352V139.464H462.806V137.352ZM464.018 132.768C465.554 132.768 466.586 133.392 466.586 134.496C466.586 135.588 465.554 136.224 464.018 136.224C462.482 136.224 461.462 135.588 461.462 134.496C461.462 133.392 462.482 132.768 464.018 132.768ZM466.814 139.464V136.764C467.642 136.248 468.146 135.456 468.146 134.496C468.146 132.684 466.406 131.52 464.018 131.52C461.642 131.52 459.902 132.684 459.902 134.496C459.89 135.456 460.394 136.248 461.234 136.764V139.464H459.026V140.748H469.034V139.464H466.814ZM471.493 141.168C472.129 141.168 472.597 140.664 472.597 140.016C472.597 139.356 472.129 138.864 471.493 138.864C470.869 138.864 470.401 139.356 470.401 140.016C470.401 140.664 470.869 141.168 471.493 141.168Z" fill="black"/>
</svg>
