<svg width="243" height="110" viewBox="0 0 243 110" fill="none" xmlns="http://www.w3.org/2000/svg">
<g filter="url(#filter0_d_501_14)">
<rect x="10" y="10" width="203" height="70" rx="15" fill="white"/>
</g>
<g filter="url(#filter1_i_501_14)">
<circle cx="39" cy="45" r="15" fill="#FF6B6B"/>
</g>
<path d="M61.7941 55H65.9381V47.16H68.8221L73.0781 55H77.6981L72.8541 46.516C75.2341 45.592 76.8021 43.66 76.8021 40.552C76.8021 35.792 73.3581 34.252 69.0181 34.252H61.7941V55ZM65.9381 43.884V37.556H68.6261C71.2861 37.556 72.7701 38.312 72.7701 40.552C72.7701 42.764 71.2861 43.884 68.6261 43.884H65.9381ZM87.0479 55.392C88.9799 55.392 90.9679 54.72 92.5079 53.656L91.1079 51.136C89.9879 51.836 88.8679 52.228 87.5799 52.228C85.2559 52.228 83.5759 50.884 83.2399 48.308H92.8999C93.0119 47.944 93.0959 47.188 93.0959 46.404C93.0959 42.092 90.8559 38.928 86.5439 38.928C82.8199 38.928 79.2359 42.092 79.2359 47.16C79.2359 52.34 82.6519 55.392 87.0479 55.392ZM83.1839 45.564C83.4919 43.296 84.9479 42.12 86.5999 42.12C88.6159 42.12 89.5679 43.464 89.5679 45.564H83.1839ZM103.149 55.392C104.885 55.392 106.789 54.804 108.301 53.488L106.649 50.772C105.781 51.5 104.717 52.032 103.597 52.032C101.357 52.032 99.7054 50.128 99.7054 47.16C99.7054 44.22 101.329 42.288 103.737 42.288C104.605 42.288 105.333 42.652 106.117 43.324L108.077 40.664C106.929 39.684 105.445 38.928 103.513 38.928C99.2574 38.928 95.5054 41.952 95.5054 47.16C95.5054 52.368 98.8094 55.392 103.149 55.392ZM116.955 55.392C120.875 55.392 124.487 52.368 124.487 47.16C124.487 41.952 120.875 38.928 116.955 38.928C113.035 38.928 109.423 41.952 109.423 47.16C109.423 52.368 113.035 55.392 116.955 55.392ZM116.955 52.032C114.827 52.032 113.623 50.128 113.623 47.16C113.623 44.22 114.827 42.288 116.955 42.288C119.083 42.288 120.287 44.22 120.287 47.16C120.287 50.128 119.083 52.032 116.955 52.032ZM127.931 55H132.047V45.648C132.915 43.38 134.399 42.568 135.631 42.568C136.275 42.568 136.723 42.652 137.283 42.82L137.983 39.264C137.507 39.068 137.003 38.928 136.135 38.928C134.511 38.928 132.831 40.048 131.683 42.092H131.599L131.291 39.32H127.931V55ZM145.314 55.392C146.938 55.392 148.506 54.496 149.654 53.376H149.766L150.074 55H153.406V32.656H149.318V38.172L149.458 40.636C148.338 39.6 147.246 38.928 145.482 38.928C142.094 38.928 138.902 42.064 138.902 47.16C138.902 52.312 141.422 55.392 145.314 55.392ZM146.378 52.004C144.306 52.004 143.13 50.38 143.13 47.132C143.13 43.996 144.614 42.316 146.378 42.316C147.358 42.316 148.366 42.624 149.318 43.492V50.38C148.394 51.556 147.47 52.004 146.378 52.004ZM157.817 55H161.933V39.32H157.817V55ZM159.889 36.8C161.289 36.8 162.269 35.904 162.269 34.532C162.269 33.188 161.289 32.292 159.889 32.292C158.461 32.292 157.481 33.188 157.481 34.532C157.481 35.904 158.461 36.8 159.889 36.8ZM166.321 55H170.437V44.22C171.585 43.072 172.397 42.456 173.685 42.456C175.225 42.456 175.897 43.296 175.897 45.732V55H180.013V45.228C180.013 41.28 178.557 38.928 175.169 38.928C173.041 38.928 171.445 40.048 170.073 41.392H169.989L169.681 39.32H166.321V55ZM189.775 61.804C195.011 61.804 198.315 59.396 198.315 56.232C198.315 53.488 196.243 52.312 192.463 52.312H189.803C187.955 52.312 187.339 51.864 187.339 51.024C187.339 50.38 187.591 50.044 188.011 49.68C188.683 49.904 189.411 50.044 190.027 50.044C193.387 50.044 196.075 48.252 196.075 44.724C196.075 43.744 195.767 42.876 195.375 42.344H198.035V39.32H192.379C191.735 39.096 190.895 38.928 190.027 38.928C186.695 38.928 183.699 40.916 183.699 44.584C183.699 46.432 184.707 47.916 185.799 48.7V48.812C184.847 49.484 184.035 50.576 184.035 51.752C184.035 53.04 184.651 53.852 185.463 54.384V54.524C184.035 55.336 183.223 56.456 183.223 57.772C183.223 60.544 186.079 61.804 189.775 61.804ZM190.027 47.496C188.655 47.496 187.563 46.46 187.563 44.584C187.563 42.764 188.627 41.728 190.027 41.728C191.427 41.728 192.491 42.764 192.491 44.584C192.491 46.46 191.399 47.496 190.027 47.496ZM190.391 59.2C188.123 59.2 186.667 58.444 186.667 57.128C186.667 56.484 186.975 55.868 187.675 55.308C188.235 55.448 188.907 55.532 189.859 55.532H191.763C193.443 55.532 194.367 55.812 194.367 56.932C194.367 58.164 192.743 59.2 190.391 59.2Z" fill="#FF0000"/>
<defs>
<filter id="filter0_d_501_14" x="0" y="0" width="243" height="110" filterUnits="userSpaceOnUse" color-interpolation-filters="sRGB">
<feFlood flood-opacity="0" result="BackgroundImageFix"/>
<feColorMatrix in="SourceAlpha" type="matrix" values="0 0 0 0 0 0 0 0 0 0 0 0 0 0 0 0 0 0 127 0" result="hardAlpha"/>
<feOffset dx="10" dy="10"/>
<feGaussianBlur stdDeviation="10"/>
<feComposite in2="hardAlpha" operator="out"/>
<feColorMatrix type="matrix" values="0 0 0 0 0 0 0 0 0 0 0 0 0 0 0 0 0 0 0.15 0"/>
<feBlend mode="normal" in2="BackgroundImageFix" result="effect1_dropShadow_501_14"/>
<feBlend mode="normal" in="SourceGraphic" in2="effect1_dropShadow_501_14" result="shape"/>
</filter>
<filter id="filter1_i_501_14" x="24" y="26" width="34" height="34" filterUnits="userSpaceOnUse" color-interpolation-filters="sRGB">
<feFlood flood-opacity="0" result="BackgroundImageFix"/>
<feBlend mode="normal" in="SourceGraphic" in2="BackgroundImageFix" result="shape"/>
<feColorMatrix in="SourceAlpha" type="matrix" values="0 0 0 0 0 0 0 0 0 0 0 0 0 0 0 0 0 0 127 0" result="hardAlpha"/>
<feOffset dx="4" dy="-5"/>
<feGaussianBlur stdDeviation="2"/>
<feComposite in2="hardAlpha" operator="arithmetic" k2="-1" k3="1"/>
<feColorMatrix type="matrix" values="0 0 0 0 0 0 0 0 0 0 0 0 0 0 0 0 0 0 0.25 0"/>
<feBlend mode="normal" in2="shape" result="effect1_innerShadow_501_14"/>
</filter>
</defs>
</svg>
