<svg width="459" height="172" viewBox="0 0 459 172" fill="none" xmlns="http://www.w3.org/2000/svg">
<path d="M259 85.5L220.111 55V71.9106L159 71.9444V99.0556H220.111V116L259 85.5Z" stroke="#1E84FD" stroke-width="12.5" stroke-linecap="round" stroke-linejoin="round"/>
<g filter="url(#filter0_d_502_48)">
<rect x="4" y="57" width="127" height="57" rx="15" fill="#1E84FD"/>
</g>
<path d="M33.1631 84.96C36.6431 84.62 38.9031 83.34 39.8831 81.58C40.8431 83.34 43.1231 84.62 46.5831 84.96L47.5031 82.88C44.0631 82.6 42.2631 81.4 41.8031 80.16H46.7031V78.06H33.0831V80.16H37.9631C37.5031 81.4 35.7031 82.6 32.2631 82.88L33.1631 84.96ZM39.8431 93.76C37.3631 93.76 36.1231 93.38 36.1231 92.48C36.1231 91.6 37.3631 91.2 39.8431 91.2C42.3231 91.2 43.5631 91.6 43.5631 92.48C43.5631 93.38 42.3231 93.76 39.8431 93.76ZM39.8431 89.22C35.8431 89.22 33.4631 90.4 33.4631 92.48C33.4631 94.56 35.8431 95.72 39.8431 95.72C43.8431 95.72 46.2431 94.56 46.2431 92.48C46.2431 90.4 43.8431 89.22 39.8431 89.22ZM41.1831 86.12V83.92H38.5431V86.12H31.5631V88.22H48.2031V86.12H41.1831ZM56.7816 88.72H60.0016V91.54H56.7816V88.72ZM62.6016 91.54V88.72H65.1816V86.62H54.5016V84.6H64.7616V78.48H51.8616V80.58H62.1616V82.54H51.8816V88.72H54.1816V91.54H49.9416V93.7H66.6416V91.54H62.6016ZM73.68 89.8C72.44 89.8 71.52 88.96 71.52 87.56C71.52 86.16 72.44 85.3 73.68 85.3C74.92 85.3 75.82 86.16 75.82 87.54C75.82 88.96 74.92 89.8 73.68 89.8ZM73.68 83.16C71 83.16 69 84.98 69 87.54C69 90.14 71 91.96 73.68 91.96C76.34 91.96 78.32 90.14 78.32 87.54C78.32 84.98 76.34 83.16 73.68 83.16ZM74.98 77.62H72.34V80.02H68.26V82.12H78.98V80.02H74.98V77.62ZM85.46 84.5H82.82V77.3H80.18V95.72H82.82V86.68H85.46V84.5ZM87.7784 79.2V81.3H93.9184C93.5384 85.38 91.4984 88.26 86.7984 90.52L88.1784 92.6C94.7184 89.44 96.6184 84.84 96.6184 79.2H87.7784ZM99.4384 77.28V95.7H102.098V77.28H99.4384Z" fill="white"/>
<path d="M361 157H302.667C298.246 157 294.007 155.244 290.882 152.118C287.756 148.993 286 144.754 286 140.333V23.6667C286 19.2464 287.756 15.0072 290.882 11.8816C294.007 8.75595 298.246 7 302.667 7H436C440.42 7 444.659 8.75595 447.785 11.8816C450.911 15.0072 452.667 19.2464 452.667 23.6667V82" stroke="#1E84FD" stroke-width="12.5" stroke-linecap="round"/>
<path d="M286 40.3332H452.667M311 23.7499L311.083 23.6582M336 23.7499L336.083 23.6582M361 23.7499L361.083 23.6582M449.883 120.892C444.742 107.808 432.967 98.6665 419.25 98.6665C404.6 98.6665 392.15 109.125 387.642 123.667" stroke="#1E84FD" stroke-width="12.5" stroke-linecap="round" stroke-linejoin="round"/>
<path d="M435.958 121.767H447.667C448.323 121.767 448.973 121.637 449.58 121.386C450.187 121.135 450.738 120.766 451.202 120.302C451.666 119.838 452.035 119.287 452.286 118.68C452.537 118.073 452.667 117.423 452.667 116.767V103.25M388.783 143.108C393.942 156.192 405.717 165.333 419.417 165.333C434.067 165.333 446.517 154.875 451.025 140.333" stroke="#1E84FD" stroke-width="12.5" stroke-linecap="round" stroke-linejoin="round"/>
<path d="M402.708 142.233H391C389.674 142.233 388.402 142.76 387.464 143.698C386.527 144.636 386 145.907 386 147.233V160.75" stroke="#1E84FD" stroke-width="12.5" stroke-linecap="round" stroke-linejoin="round"/>
<path d="M329.28 90H334.068V78.876C334.068 76.356 333.636 72.648 333.384 70.128H333.528L335.652 76.392L339.792 87.588H342.852L346.956 76.392L349.116 70.128H349.296C349.008 72.648 348.612 76.356 348.612 78.876V90H353.472V63.324H347.568L343.14 75.816C342.564 77.472 342.096 79.236 341.52 80.928H341.34C340.8 79.236 340.296 77.472 339.72 75.816L335.184 63.324H329.28V90ZM364.542 90.504C366.846 90.504 368.862 89.352 370.626 87.84H370.77L371.13 90H375.45V78.228C375.45 72.396 372.822 69.336 367.71 69.336C364.542 69.336 361.662 70.524 359.286 72L361.194 75.492C363.066 74.412 364.866 73.584 366.738 73.584C369.222 73.584 370.086 75.096 370.194 77.076C362.058 77.94 358.566 80.208 358.566 84.528C358.566 87.948 360.942 90.504 364.542 90.504ZM366.27 86.364C364.722 86.364 363.606 85.68 363.606 84.096C363.606 82.296 365.262 80.928 370.194 80.316V84.384C368.898 85.644 367.782 86.364 366.27 86.364ZM380.844 90H386.136V69.84H380.844V90ZM383.508 66.6C385.308 66.6 386.568 65.448 386.568 63.684C386.568 61.956 385.308 60.804 383.508 60.804C381.672 60.804 380.412 61.956 380.412 63.684C380.412 65.448 381.672 66.6 383.508 66.6ZM391.778 90H397.07V76.14C398.546 74.664 399.59 73.872 401.246 73.872C403.226 73.872 404.09 74.952 404.09 78.084V90H409.382V77.436C409.382 72.36 407.51 69.336 403.154 69.336C400.418 69.336 398.366 70.776 396.602 72.504H396.494L396.098 69.84H391.778V90Z" fill="#1E84FD"/>
<defs>
<filter id="filter0_d_502_48" x="0" y="57" width="135" height="65" filterUnits="userSpaceOnUse" color-interpolation-filters="sRGB">
<feFlood flood-opacity="0" result="BackgroundImageFix"/>
<feColorMatrix in="SourceAlpha" type="matrix" values="0 0 0 0 0 0 0 0 0 0 0 0 0 0 0 0 0 0 127 0" result="hardAlpha"/>
<feOffset dy="4"/>
<feGaussianBlur stdDeviation="2"/>
<feComposite in2="hardAlpha" operator="out"/>
<feColorMatrix type="matrix" values="0 0 0 0 0 0 0 0 0 0 0 0 0 0 0 0 0 0 0.25 0"/>
<feBlend mode="normal" in2="BackgroundImageFix" result="effect1_dropShadow_502_48"/>
<feBlend mode="normal" in="SourceGraphic" in2="effect1_dropShadow_502_48" result="shape"/>
</filter>
</defs>
</svg>
