<svg width="222" height="170" viewBox="0 0 222 170" fill="none" xmlns="http://www.w3.org/2000/svg">
<g filter="url(#filter0_d_157_3)">
<circle cx="111" cy="82" r="75" fill="white"/>
<path d="M95.2566 109.7C102.307 109.7 108.257 105.75 108.257 98.95C108.257 94.1 105.057 91 100.907 89.85V89.6C104.807 88.05 107.057 85.15 107.057 81.15C107.057 74.85 102.207 71.3 95.0566 71.3C90.7066 71.3 87.1566 73.05 83.9566 75.85L87.7066 80.35C89.9066 78.3 92.0566 77.1 94.7066 77.1C97.8566 77.1 99.6566 78.8 99.6566 81.7C99.6566 85 97.4566 87.35 90.6566 87.35V92.6C98.7066 92.6 100.857 94.9 100.857 98.5C100.857 101.85 98.3066 103.7 94.5566 103.7C91.2066 103.7 88.5066 102.05 86.3066 99.9L82.8566 104.55C85.4566 107.5 89.4066 109.7 95.2566 109.7ZM125.75 109.7C133.3 109.7 138.25 103.1 138.25 90.35C138.25 77.6 133.3 71.3 125.75 71.3C118.2 71.3 113.2 77.55 113.2 90.35C113.2 103.1 118.2 109.7 125.75 109.7ZM125.75 103.95C122.55 103.95 120.15 100.75 120.15 90.35C120.15 80 122.55 77 125.75 77C128.95 77 131.3 80 131.3 90.35C131.3 100.75 128.95 103.95 125.75 103.95Z" fill="black"/>
<path d="M85.0575 39.9H86.4975V44.56H88.9975V33.3H86.4975V37.78H85.0575V33.64H82.5975V43.98H85.0575V39.9ZM82.5775 41.48C80.1575 40.5 79.1575 38.52 79.1575 36.54V34.4H76.6175V36.54C76.6175 38.62 75.6175 40.9 73.0375 42.02L74.4375 44.06C76.1375 43.34 77.2775 42.02 77.9375 40.46C78.5975 41.78 79.6575 42.88 81.1775 43.48L82.5775 41.48ZM82.7575 49.74C80.3575 49.74 79.0375 49.26 79.0375 48.28C79.0375 47.3 80.3575 46.82 82.7575 46.82C85.1175 46.82 86.4375 47.3 86.4375 48.28C86.4375 49.26 85.1175 49.74 82.7575 49.74ZM82.7575 44.84C78.8775 44.84 76.3975 46.14 76.3975 48.28C76.3975 50.44 78.8775 51.72 82.7575 51.72C86.6175 51.72 89.0775 50.44 89.0775 48.28C89.0775 46.14 86.6175 44.84 82.7575 44.84ZM92.3759 34.34V36.44H98.2159C97.8359 38.88 95.5759 40.92 91.4759 41.94L92.5359 44C97.9959 42.58 101.076 39.26 101.076 34.34H92.3759ZM93.9159 46.86H103.556V51.74H106.196V44.76H93.9159V46.86ZM108.636 37.6H106.196V33.3H103.556V43.98H106.196V39.76H108.636V37.6ZM121.766 34.72H119.126V37.4C119.126 40.98 117.606 44.54 114.386 45.92L115.966 48.1C118.166 47.06 119.666 45.08 120.486 42.62C121.306 44.88 122.726 46.7 124.846 47.66L126.346 45.52C123.226 44.18 121.766 40.82 121.766 37.4V34.72ZM127.246 33.28V51.76H129.886V33.28H127.246ZM133.684 34.68V36.78H139.684C139.264 39.36 136.984 41.5 132.884 42.62L133.984 44.72C139.464 43.14 142.544 39.68 142.544 34.68H133.684ZM138.264 45.16H135.624V51.4H148.144V49.3H138.264V45.16ZM147.504 38.44V33.3H144.864V46.48H147.504V40.6H149.964V38.44H147.504Z" fill="black"/>
</g>
<defs>
<filter id="filter0_d_157_3" x="29" y="0" width="170" height="170" filterUnits="userSpaceOnUse" color-interpolation-filters="sRGB">
<feFlood flood-opacity="0" result="BackgroundImageFix"/>
<feColorMatrix in="SourceAlpha" type="matrix" values="0 0 0 0 0 0 0 0 0 0 0 0 0 0 0 0 0 0 127 0" result="hardAlpha"/>
<feOffset dx="3" dy="3"/>
<feGaussianBlur stdDeviation="5"/>
<feComposite in2="hardAlpha" operator="out"/>
<feColorMatrix type="matrix" values="0 0 0 0 0 0 0 0 0 0 0 0 0 0 0 0 0 0 0.3 0"/>
<feBlend mode="normal" in2="BackgroundImageFix" result="effect1_dropShadow_157_3"/>
<feBlend mode="normal" in="SourceGraphic" in2="effect1_dropShadow_157_3" result="shape"/>
</filter>
</defs>
</svg>
