<svg width="243" height="110" viewBox="0 0 243 110" fill="none" xmlns="http://www.w3.org/2000/svg">
<g filter="url(#filter0_d_501_13)">
<rect x="10" y="10" width="203" height="70" rx="15" fill="white"/>
</g>
<g filter="url(#filter1_i_501_13)">
<circle cx="39" cy="45" r="15" fill="#D9D9D9"/>
</g>
<path d="M74.926 56H79.994L82.262 45.752C82.598 44.128 82.878 42.532 83.158 40.936H83.27C83.522 42.532 83.83 44.128 84.166 45.752L86.49 56H91.642L95.478 35.252H91.558L89.906 45.388C89.598 47.544 89.29 49.756 88.982 51.996H88.842C88.394 49.756 87.974 47.516 87.526 45.388L85.146 35.252H81.59L79.182 45.388C78.734 47.544 78.286 49.756 77.866 51.996H77.754C77.446 49.756 77.11 47.572 76.802 45.388L75.15 35.252H70.95L74.926 56ZM101.705 56.392C103.497 56.392 105.065 55.496 106.437 54.32H106.549L106.829 56H110.189V46.844C110.189 42.308 108.145 39.928 104.169 39.928C101.705 39.928 99.4649 40.852 97.6169 42L99.1009 44.716C100.557 43.876 101.957 43.232 103.413 43.232C105.345 43.232 106.017 44.408 106.101 45.948C99.7729 46.62 97.0569 48.384 97.0569 51.744C97.0569 54.404 98.9049 56.392 101.705 56.392ZM103.049 53.172C101.845 53.172 100.977 52.64 100.977 51.408C100.977 50.008 102.265 48.944 106.101 48.468V51.632C105.093 52.612 104.225 53.172 103.049 53.172ZM114.384 56H118.5V40.32H114.384V56ZM116.456 37.8C117.856 37.8 118.836 36.904 118.836 35.532C118.836 34.188 117.856 33.292 116.456 33.292C115.028 33.292 114.048 34.188 114.048 35.532C114.048 36.904 115.028 37.8 116.456 37.8ZM128.628 56.392C130 56.392 131.092 56.084 131.932 55.804L131.26 52.808C130.84 52.976 130.224 53.144 129.72 53.144C128.32 53.144 127.592 52.304 127.592 50.512V43.568H131.456V40.32H127.592V36.092H124.176L123.7 40.32L121.264 40.516V43.568H123.476V50.512C123.476 54.012 124.904 56.392 128.628 56.392ZM134.646 56H138.762V40.32H134.646V56ZM136.718 37.8C138.118 37.8 139.098 36.904 139.098 35.532C139.098 34.188 138.118 33.292 136.718 33.292C135.29 33.292 134.31 34.188 134.31 35.532C134.31 36.904 135.29 37.8 136.718 37.8ZM143.15 56H147.266V45.22C148.414 44.072 149.226 43.456 150.514 43.456C152.054 43.456 152.726 44.296 152.726 46.732V56H156.842V46.228C156.842 42.28 155.386 39.928 151.998 39.928C149.87 39.928 148.274 41.048 146.902 42.392H146.818L146.51 40.32H143.15V56ZM166.603 62.804C171.839 62.804 175.143 60.396 175.143 57.232C175.143 54.488 173.071 53.312 169.291 53.312H166.631C164.783 53.312 164.167 52.864 164.167 52.024C164.167 51.38 164.419 51.044 164.839 50.68C165.511 50.904 166.239 51.044 166.855 51.044C170.215 51.044 172.903 49.252 172.903 45.724C172.903 44.744 172.595 43.876 172.203 43.344H174.863V40.32H169.207C168.563 40.096 167.723 39.928 166.855 39.928C163.523 39.928 160.527 41.916 160.527 45.584C160.527 47.432 161.535 48.916 162.627 49.7V49.812C161.675 50.484 160.863 51.576 160.863 52.752C160.863 54.04 161.479 54.852 162.291 55.384V55.524C160.863 56.336 160.051 57.456 160.051 58.772C160.051 61.544 162.907 62.804 166.603 62.804ZM166.855 48.496C165.483 48.496 164.391 47.46 164.391 45.584C164.391 43.764 165.455 42.728 166.855 42.728C168.255 42.728 169.319 43.764 169.319 45.584C169.319 47.46 168.227 48.496 166.855 48.496ZM167.219 60.2C164.951 60.2 163.495 59.444 163.495 58.128C163.495 57.484 163.803 56.868 164.503 56.308C165.063 56.448 165.735 56.532 166.687 56.532H168.591C170.271 56.532 171.195 56.812 171.195 57.932C171.195 59.164 169.571 60.2 167.219 60.2Z" fill="black"/>
<defs>
<filter id="filter0_d_501_13" x="0" y="0" width="243" height="110" filterUnits="userSpaceOnUse" color-interpolation-filters="sRGB">
<feFlood flood-opacity="0" result="BackgroundImageFix"/>
<feColorMatrix in="SourceAlpha" type="matrix" values="0 0 0 0 0 0 0 0 0 0 0 0 0 0 0 0 0 0 127 0" result="hardAlpha"/>
<feOffset dx="10" dy="10"/>
<feGaussianBlur stdDeviation="10"/>
<feComposite in2="hardAlpha" operator="out"/>
<feColorMatrix type="matrix" values="0 0 0 0 0 0 0 0 0 0 0 0 0 0 0 0 0 0 0.15 0"/>
<feBlend mode="normal" in2="BackgroundImageFix" result="effect1_dropShadow_501_13"/>
<feBlend mode="normal" in="SourceGraphic" in2="effect1_dropShadow_501_13" result="shape"/>
</filter>
<filter id="filter1_i_501_13" x="24" y="26" width="34" height="34" filterUnits="userSpaceOnUse" color-interpolation-filters="sRGB">
<feFlood flood-opacity="0" result="BackgroundImageFix"/>
<feBlend mode="normal" in="SourceGraphic" in2="BackgroundImageFix" result="shape"/>
<feColorMatrix in="SourceAlpha" type="matrix" values="0 0 0 0 0 0 0 0 0 0 0 0 0 0 0 0 0 0 127 0" result="hardAlpha"/>
<feOffset dx="4" dy="-5"/>
<feGaussianBlur stdDeviation="2"/>
<feComposite in2="hardAlpha" operator="arithmetic" k2="-1" k3="1"/>
<feColorMatrix type="matrix" values="0 0 0 0 0 0 0 0 0 0 0 0 0 0 0 0 0 0 0.25 0"/>
<feBlend mode="normal" in2="shape" result="effect1_innerShadow_501_13"/>
</filter>
</defs>
</svg>
